<svg width="826" height="450" viewBox="0 0 826 450" fill="none" xmlns="http://www.w3.org/2000/svg">
<rect x="32" y="59" width="762" height="390.225" rx="9.22518" fill="white"/>
<circle cx="674.953" cy="362.55" r="26.7111" fill="#EB001B"/>
<circle cx="705.481" cy="362.55" r="26.7111" fill="#F79E1B" fill-opacity="0.83"/>
<path d="M107.042 250.566L103.086 248.758L107.042 246.917L106.121 245.348L102.608 247.803L102.95 243.54H101.176L101.517 247.803L98.0044 245.348L97.0836 246.917L101.04 248.758L97.0836 250.566L98.0044 252.169L101.517 249.679L101.176 253.942H102.95L102.608 249.679L106.121 252.169L107.042 250.566ZM121.696 250.566L117.74 248.758L121.696 246.917L120.775 245.348L117.263 247.803L117.604 243.54H115.83L116.171 247.803L112.658 245.348L111.738 246.917L115.694 248.758L111.738 250.566L112.658 252.169L116.171 249.679L115.83 253.942H117.604L117.263 249.679L120.775 252.169L121.696 250.566ZM136.35 250.566L132.394 248.758L136.35 246.917L135.429 245.348L131.917 247.803L132.258 243.54H130.484L130.825 247.803L127.313 245.348L126.392 246.917L130.348 248.758L126.392 250.566L127.313 252.169L130.825 249.679L130.484 253.942H132.258L131.917 249.679L135.429 252.169L136.35 250.566ZM151.004 250.566L147.048 248.758L151.004 246.917L150.083 245.348L146.571 247.803L146.912 243.54H145.138L145.479 247.803L141.967 245.348L141.046 246.917L145.002 248.758L141.046 250.566L141.967 252.169L145.479 249.679L145.138 253.942H146.912L146.571 249.679L150.083 252.169L151.004 250.566ZM175.883 250.566L171.927 248.758L175.883 246.917L174.962 245.348L171.449 247.803L171.79 243.54H170.017L170.358 247.803L166.845 245.348L165.924 246.917L169.88 248.758L165.924 250.566L166.845 252.169L170.358 249.679L170.017 253.942H171.79L171.449 249.679L174.962 252.169L175.883 250.566ZM190.537 250.566L186.581 248.758L190.537 246.917L189.616 245.348L186.103 247.803L186.444 243.54H184.671L185.012 247.803L181.499 245.348L180.578 246.917L184.534 248.758L180.578 250.566L181.499 252.169L185.012 249.679L184.671 253.942H186.444L186.103 249.679L189.616 252.169L190.537 250.566ZM205.191 250.566L201.235 248.758L205.191 246.917L204.27 245.348L200.757 247.803L201.098 243.54H199.325L199.666 247.803L196.153 245.348L195.232 246.917L199.188 248.758L195.232 250.566L196.153 252.169L199.666 249.679L199.325 253.942H201.098L200.757 249.679L204.27 252.169L205.191 250.566ZM219.845 250.566L215.889 248.758L219.845 246.917L218.924 245.348L215.411 247.803L215.752 243.54H213.979L214.32 247.803L210.807 245.348L209.886 246.917L213.843 248.758L209.886 250.566L210.807 252.169L214.32 249.679L213.979 253.942H215.752L215.411 249.679L218.924 252.169L219.845 250.566ZM244.723 250.566L240.767 248.758L244.723 246.917L243.803 245.348L240.29 247.803L240.631 243.54H238.857L239.199 247.803L235.686 245.348L234.765 246.917L238.721 248.758L234.765 250.566L235.686 252.169L239.199 249.679L238.857 253.942H240.631L240.29 249.679L243.803 252.169L244.723 250.566ZM259.377 250.566L255.421 248.758L259.377 246.917L258.457 245.348L254.944 247.803L255.285 243.54H253.512L253.853 247.803L250.34 245.348L249.419 246.917L253.375 248.758L249.419 250.566L250.34 252.169L253.853 249.679L253.512 253.942H255.285L254.944 249.679L258.457 252.169L259.377 250.566ZM274.031 250.566L270.075 248.758L274.031 246.917L273.111 245.348L269.598 247.803L269.939 243.54H268.166L268.507 247.803L264.994 245.348L264.073 246.917L268.029 248.758L264.073 250.566L264.994 252.169L268.507 249.679L268.166 253.942H269.939L269.598 249.679L273.111 252.169L274.031 250.566ZM288.686 250.566L284.729 248.758L288.686 246.917L287.765 245.348L284.252 247.803L284.593 243.54H282.82L283.161 247.803L279.648 245.348L278.727 246.917L282.683 248.758L278.727 250.566L279.648 252.169L283.161 249.679L282.82 253.942H284.593L284.252 249.679L287.765 252.169L288.686 250.566Z" fill="black"/>
<path d="M326.861 254.482C326.861 253.05 326.52 251.913 325.838 251.072C325.179 250.208 324.235 249.458 323.007 248.821C323.939 248.253 324.678 247.559 325.224 246.741C325.77 245.922 326.042 244.865 326.042 243.569C326.042 242.66 325.838 241.807 325.429 241.011C325.042 240.193 324.474 239.488 323.723 238.897C322.996 238.306 322.109 237.84 321.063 237.499C320.04 237.158 318.903 236.987 317.653 236.987C316.38 236.987 315.232 237.158 314.208 237.499C313.185 237.84 312.299 238.306 311.548 238.897C310.821 239.488 310.252 240.193 309.843 241.011C309.457 241.807 309.263 242.66 309.263 243.569C309.263 244.865 309.536 245.922 310.082 246.741C310.627 247.559 311.366 248.253 312.299 248.821C311.025 249.412 310.059 250.163 309.4 251.072C308.763 251.959 308.445 253.141 308.445 254.619C308.445 255.665 308.672 256.62 309.127 257.484C309.604 258.325 310.252 259.052 311.071 259.666C311.889 260.257 312.856 260.723 313.97 261.065C315.106 261.383 316.334 261.542 317.653 261.542C318.972 261.542 320.188 261.383 321.302 261.065C322.439 260.746 323.416 260.291 324.235 259.7C325.053 259.086 325.69 258.348 326.145 257.484C326.622 256.597 326.861 255.597 326.861 254.482ZM321.063 244.149C321.063 245.013 320.756 245.718 320.142 246.263C319.529 246.809 318.699 247.082 317.653 247.082C316.607 247.082 315.777 246.809 315.163 246.263C314.549 245.695 314.243 244.979 314.243 244.115C314.243 243.365 314.538 242.717 315.129 242.171C315.72 241.603 316.562 241.318 317.653 241.318C318.744 241.318 319.585 241.603 320.177 242.171C320.768 242.739 321.063 243.399 321.063 244.149ZM321.779 254.21C321.779 255.074 321.416 255.79 320.688 256.358C319.961 256.927 318.949 257.211 317.653 257.211C316.357 257.211 315.345 256.927 314.618 256.358C313.89 255.79 313.526 255.074 313.526 254.21C313.526 253.255 313.913 252.527 314.686 252.027C315.459 251.504 316.448 251.243 317.653 251.243C318.858 251.243 319.847 251.504 320.62 252.027C321.393 252.527 321.779 253.255 321.779 254.21ZM349.127 248.548C349.127 247.366 349.059 246.309 348.922 245.377C348.786 244.445 348.593 243.615 348.342 242.887C348.092 242.16 347.797 241.523 347.456 240.977C347.115 240.432 346.728 239.943 346.296 239.511C345.842 239.056 345.375 238.67 344.898 238.351C344.421 238.01 343.909 237.737 343.363 237.533C342.818 237.328 342.215 237.18 341.556 237.089C340.919 236.976 340.203 236.919 339.407 236.919C338.066 236.919 336.827 237.135 335.69 237.567C334.576 237.976 333.621 238.556 332.825 239.306C332.029 240.056 331.404 240.943 330.949 241.966C330.517 242.989 330.301 244.103 330.301 245.308C330.301 246.536 330.495 247.628 330.881 248.582C331.29 249.537 331.87 250.345 332.621 251.004C333.371 251.663 334.269 252.175 335.315 252.539C336.361 252.88 337.532 253.05 338.827 253.05C339.873 253.05 340.794 252.902 341.59 252.607C342.386 252.311 343.079 251.913 343.67 251.413C343.488 253.027 343 254.335 342.204 255.335C341.431 256.335 340.305 256.836 338.827 256.836C337.804 256.836 336.895 256.676 336.099 256.358C335.303 256.017 334.474 255.494 333.61 254.789L330.847 258.78C331.87 259.621 332.996 260.303 334.223 260.826C335.451 261.349 336.94 261.61 338.691 261.61C340.396 261.61 341.897 261.292 343.193 260.655C344.489 260.019 345.569 259.132 346.433 257.995C347.319 256.858 347.99 255.494 348.445 253.903C348.899 252.288 349.127 250.504 349.127 248.548ZM343.773 245.104C343.773 246.15 343.409 247.014 342.681 247.696C341.976 248.355 340.976 248.685 339.68 248.685C338.384 248.685 337.361 248.355 336.611 247.696C335.883 247.036 335.519 246.161 335.519 245.07C335.519 243.978 335.872 243.103 336.577 242.444C337.281 241.762 338.282 241.421 339.578 241.421C340.896 241.421 341.92 241.762 342.647 242.444C343.397 243.126 343.773 244.013 343.773 245.104ZM353.291 241.864H364.511L353.837 261.201H359.771L370.48 241.284V237.328H353.291V241.864ZM391.868 239.545C391.345 239.136 390.81 238.772 390.265 238.454C389.719 238.113 389.151 237.828 388.56 237.601C387.968 237.374 387.332 237.203 386.65 237.089C385.968 236.976 385.217 236.919 384.399 236.919C382.625 236.919 381.079 237.26 379.761 237.942C378.442 238.601 377.351 239.522 376.487 240.704C375.623 241.864 374.975 243.24 374.543 244.831C374.134 246.423 373.929 248.139 373.929 249.981C373.929 252.368 374.179 254.266 374.679 255.676C375.202 257.063 375.896 258.188 376.76 259.052C377.601 259.894 378.567 260.53 379.658 260.962C380.75 261.394 382.08 261.61 383.649 261.61C384.945 261.61 386.15 261.417 387.264 261.03C388.378 260.621 389.333 260.053 390.128 259.325C390.947 258.575 391.583 257.7 392.038 256.699C392.516 255.676 392.754 254.551 392.754 253.323C392.754 252.072 392.538 250.97 392.106 250.015C391.674 249.06 391.083 248.264 390.333 247.628C389.583 246.991 388.696 246.513 387.673 246.195C386.65 245.854 385.547 245.684 384.365 245.684C383.182 245.684 382.205 245.843 381.432 246.161C380.682 246.479 380.011 246.832 379.42 247.218C379.511 246.445 379.67 245.718 379.897 245.036C380.124 244.354 380.431 243.774 380.818 243.296C381.227 242.796 381.705 242.41 382.25 242.137C382.819 241.841 383.478 241.693 384.228 241.693C384.729 241.693 385.195 241.739 385.627 241.83C386.059 241.921 386.468 242.046 386.854 242.205C387.241 242.364 387.616 242.569 387.98 242.819C388.344 243.046 388.719 243.308 389.105 243.603L391.868 239.545ZM387.536 253.562C387.536 254.607 387.173 255.46 386.445 256.119C385.74 256.779 384.74 257.108 383.444 257.108C382.148 257.108 381.125 256.779 380.375 256.119C379.647 255.437 379.283 254.573 379.283 253.528C379.283 252.504 379.636 251.675 380.34 251.038C381.068 250.379 382.08 250.049 383.376 250.049C384.672 250.049 385.683 250.379 386.411 251.038C387.161 251.697 387.536 252.539 387.536 253.562Z" fill="black"/>
<path d="M106.631 349.737C106.631 348.839 106.508 347.99 106.262 347.191C106.016 346.379 105.659 345.672 105.192 345.069C104.737 344.454 104.177 343.968 103.513 343.612C102.861 343.255 102.123 343.076 101.299 343.076C100.475 343.076 99.7305 343.261 99.0663 343.63C98.4144 343.987 97.8547 344.473 97.3873 345.088C96.9199 345.703 96.5571 346.416 96.2987 347.228C96.0527 348.027 95.9297 348.876 95.9297 349.774C95.9297 350.672 96.0527 351.527 96.2987 352.339C96.5448 353.138 96.8953 353.845 97.3504 354.46C97.8178 355.063 98.3775 355.543 99.0294 355.899C99.6936 356.256 100.438 356.435 101.262 356.435C102.086 356.435 102.824 356.256 103.476 355.899C104.14 355.53 104.706 355.038 105.173 354.423C105.641 353.808 105.997 353.101 106.243 352.302C106.502 351.49 106.631 350.635 106.631 349.737ZM105.635 349.774C105.635 350.537 105.53 351.268 105.321 351.97C105.124 352.658 104.835 353.273 104.454 353.815C104.085 354.343 103.63 354.768 103.088 355.088C102.56 355.407 101.963 355.567 101.299 355.567C100.635 355.567 100.032 355.407 99.4907 355.088C98.9495 354.756 98.4882 354.325 98.1069 353.796C97.7256 353.255 97.4304 352.634 97.2213 351.933C97.0245 351.232 96.9261 350.5 96.9261 349.737C96.9261 348.987 97.0245 348.261 97.2213 347.56C97.4304 346.859 97.7194 346.244 98.0884 345.715C98.4697 345.174 98.9249 344.743 99.4538 344.423C99.995 344.104 100.598 343.944 101.262 343.944C101.926 343.944 102.529 344.11 103.07 344.442C103.611 344.762 104.073 345.192 104.454 345.733C104.835 346.262 105.124 346.883 105.321 347.597C105.53 348.298 105.635 349.024 105.635 349.774ZM117.996 344.571C117.43 344.104 116.852 343.741 116.261 343.482C115.671 343.212 115.007 343.076 114.269 343.076C113.469 343.076 112.743 343.261 112.092 343.63C111.44 343.987 110.886 344.485 110.431 345.124C109.976 345.752 109.625 346.496 109.379 347.357C109.133 348.206 109.01 349.116 109.01 350.088C109.01 350.764 109.041 351.361 109.103 351.877C109.176 352.382 109.281 352.831 109.416 353.224C109.564 353.618 109.736 353.968 109.933 354.276C110.142 354.583 110.382 354.872 110.652 355.143C111.046 355.537 111.526 355.85 112.092 356.084C112.657 356.318 113.272 356.435 113.937 356.435C114.576 356.435 115.167 356.33 115.708 356.121C116.261 355.912 116.741 355.617 117.147 355.235C117.553 354.854 117.873 354.405 118.106 353.888C118.34 353.359 118.457 352.788 118.457 352.173C118.457 351.594 118.334 351.065 118.088 350.586C117.854 350.094 117.534 349.676 117.128 349.331C116.723 348.987 116.249 348.722 115.708 348.538C115.167 348.341 114.601 348.243 114.01 348.243C113.481 348.243 113.008 348.31 112.59 348.446C112.171 348.581 111.796 348.759 111.464 348.981C111.144 349.202 110.862 349.46 110.616 349.756C110.37 350.038 110.154 350.334 109.97 350.641C109.945 349.657 110.025 348.753 110.21 347.929C110.406 347.105 110.689 346.398 111.058 345.807C111.427 345.217 111.876 344.762 112.405 344.442C112.946 344.11 113.543 343.944 114.195 343.944C114.81 343.944 115.37 344.06 115.874 344.294C116.378 344.528 116.882 344.866 117.387 345.309L117.996 344.571ZM117.461 352.209C117.461 352.677 117.374 353.113 117.202 353.519C117.042 353.925 116.809 354.282 116.501 354.59C116.206 354.885 115.843 355.125 115.413 355.309C114.994 355.481 114.527 355.567 114.01 355.567C113.494 355.567 113.008 355.487 112.553 355.328C112.11 355.155 111.723 354.928 111.39 354.645C111.071 354.35 110.818 354.005 110.634 353.612C110.449 353.206 110.357 352.769 110.357 352.302C110.357 351.896 110.443 351.502 110.616 351.121C110.8 350.74 111.046 350.401 111.354 350.106C111.673 349.799 112.055 349.553 112.497 349.368C112.94 349.184 113.426 349.091 113.955 349.091C114.472 349.091 114.939 349.171 115.357 349.331C115.788 349.491 116.157 349.712 116.464 349.995C116.784 350.266 117.03 350.592 117.202 350.973C117.374 351.355 117.461 351.767 117.461 352.209ZM127.864 341.49L119.155 358.575H120.059L128.768 341.49H127.864ZM133.998 343.962C134.379 343.962 134.748 344.03 135.105 344.165C135.461 344.288 135.769 344.473 136.027 344.719C136.298 344.952 136.513 345.241 136.673 345.586C136.833 345.93 136.913 346.311 136.913 346.73C136.913 347.074 136.864 347.406 136.765 347.726C136.667 348.046 136.507 348.378 136.286 348.722C136.064 349.067 135.769 349.436 135.4 349.829C135.031 350.223 134.582 350.66 134.053 351.139L129.238 355.494V356.213H138.057V355.291H130.75L134.699 351.711C135.265 351.195 135.751 350.727 136.156 350.309C136.562 349.879 136.894 349.473 137.153 349.091C137.423 348.698 137.62 348.31 137.743 347.929C137.866 347.535 137.928 347.117 137.928 346.674C137.928 346.17 137.829 345.703 137.632 345.272C137.436 344.829 137.165 344.448 136.821 344.128C136.489 343.808 136.089 343.562 135.621 343.39C135.154 343.206 134.644 343.113 134.09 343.113C133.524 343.113 133.02 343.181 132.577 343.316C132.134 343.439 131.728 343.624 131.359 343.87C131.003 344.104 130.671 344.393 130.363 344.737C130.068 345.069 129.779 345.45 129.496 345.881L130.215 346.361C130.757 345.586 131.316 344.995 131.894 344.589C132.473 344.171 133.174 343.962 133.998 343.962ZM146.942 343.206L139.562 352.339L139.894 353.058H146.887V356.213H147.809V353.058H149.912V352.228H147.809V343.206H146.942ZM146.887 352.228H140.724L146.887 344.589V352.228Z" fill="black"/>
<path d="M105.893 365.438H96.5571V378.354H105.985V377.025H98.0146V372.505H105.063V371.176H98.0146V366.767H105.893V365.438ZM113.198 373.464L116.814 368.815H115.227L112.404 372.505L109.582 368.815H107.958L111.556 373.501L107.81 378.354H109.397L112.368 374.46L115.32 378.354H116.962L113.198 373.464ZM128.903 373.575C128.903 372.788 128.774 372.087 128.516 371.472C128.257 370.857 127.913 370.34 127.482 369.922C127.052 369.491 126.56 369.165 126.006 368.944C125.465 368.722 124.912 368.612 124.346 368.612C123.903 368.612 123.497 368.673 123.128 368.796C122.771 368.907 122.446 369.061 122.15 369.257C121.855 369.442 121.584 369.663 121.338 369.922C121.105 370.18 120.89 370.451 120.693 370.734V368.815H119.272V381.306H120.693V376.527C120.877 376.798 121.086 377.056 121.32 377.302C121.566 377.548 121.837 377.763 122.132 377.948C122.427 378.132 122.759 378.28 123.128 378.39C123.497 378.501 123.903 378.556 124.346 378.556C124.924 378.556 125.484 378.446 126.025 378.224C126.578 377.991 127.064 377.665 127.482 377.246C127.913 376.816 128.257 376.293 128.516 375.678C128.774 375.063 128.903 374.362 128.903 373.575ZM127.446 373.593C127.446 374.171 127.353 374.694 127.169 375.162C126.997 375.617 126.757 376.004 126.449 376.324C126.154 376.631 125.797 376.871 125.379 377.044C124.973 377.203 124.543 377.283 124.088 377.283C123.645 377.283 123.214 377.197 122.796 377.025C122.39 376.841 122.021 376.588 121.689 376.269C121.369 375.949 121.111 375.561 120.914 375.106C120.73 374.639 120.637 374.128 120.637 373.575C120.637 373.021 120.73 372.517 120.914 372.062C121.111 371.607 121.369 371.219 121.689 370.9C122.021 370.58 122.39 370.334 122.796 370.162C123.214 369.977 123.645 369.885 124.088 369.885C124.543 369.885 124.973 369.971 125.379 370.143C125.785 370.315 126.142 370.567 126.449 370.9C126.757 371.219 126.997 371.607 127.169 372.062C127.353 372.517 127.446 373.028 127.446 373.593ZM133.185 366.73V365.162H131.561V366.73H133.185ZM133.074 378.354V368.815H131.653V378.354H133.074ZM137.792 374.553C137.792 373.839 137.89 373.212 138.087 372.671C138.284 372.117 138.554 371.656 138.899 371.287C139.243 370.918 139.643 370.641 140.098 370.457C140.565 370.272 141.057 370.18 141.574 370.18H141.685V368.649C141.23 368.636 140.805 368.692 140.412 368.815C140.018 368.938 139.655 369.122 139.323 369.368C138.991 369.602 138.696 369.885 138.438 370.217C138.179 370.549 137.964 370.912 137.792 371.305V368.815H136.371V378.354H137.792V374.553ZM152.502 368.815H150.989L147.926 376.767L144.457 368.815H142.889L147.225 378.317C146.942 378.993 146.653 379.461 146.358 379.719C146.063 379.977 145.7 380.106 145.269 380.106C144.962 380.106 144.691 380.076 144.457 380.014C144.236 379.965 144.008 379.879 143.775 379.756L143.295 380.881C143.615 381.041 143.935 381.158 144.254 381.232C144.574 381.318 144.931 381.361 145.325 381.361C146.038 381.361 146.641 381.158 147.133 380.752C147.637 380.346 148.092 379.651 148.498 378.667L152.502 368.815ZM171.868 371.877C171.868 370.967 171.702 370.119 171.37 369.331C171.037 368.544 170.564 367.861 169.949 367.283C169.346 366.705 168.62 366.256 167.772 365.936C166.935 365.604 166.013 365.438 165.004 365.438H160.521V378.354H165.004C166.013 378.354 166.935 378.187 167.772 377.855C168.62 377.523 169.346 377.068 169.949 376.49C170.564 375.912 171.037 375.229 171.37 374.442C171.702 373.643 171.868 372.788 171.868 371.877ZM170.355 371.914C170.355 372.64 170.226 373.31 169.967 373.925C169.721 374.54 169.365 375.082 168.897 375.549C168.442 376.004 167.882 376.361 167.218 376.619C166.554 376.877 165.816 377.007 165.004 377.007H161.978V366.785H165.004C165.816 366.785 166.554 366.92 167.218 367.191C167.882 367.449 168.442 367.812 168.897 368.28C169.365 368.735 169.721 369.276 169.967 369.903C170.226 370.531 170.355 371.201 170.355 371.914ZM178.163 369.94C179.061 369.94 179.756 370.162 180.248 370.604C180.753 371.035 181.005 371.681 181.005 372.542V372.874C180.574 372.751 180.131 372.652 179.676 372.579C179.221 372.505 178.686 372.468 178.071 372.468C177.468 372.468 176.915 372.536 176.411 372.671C175.919 372.806 175.488 373.003 175.119 373.261C174.762 373.52 174.486 373.845 174.289 374.239C174.092 374.62 173.994 375.063 173.994 375.568C173.994 376.072 174.092 376.508 174.289 376.877C174.498 377.246 174.769 377.56 175.101 377.818C175.445 378.064 175.826 378.249 176.245 378.372C176.675 378.495 177.112 378.556 177.555 378.556C178.403 378.556 179.104 378.39 179.658 378.058C180.224 377.726 180.673 377.345 181.005 376.914V378.354H182.37V372.523C182.37 371.256 182.02 370.303 181.318 369.663C180.617 369.011 179.615 368.686 178.311 368.686C177.61 368.686 176.989 368.759 176.448 368.907C175.906 369.042 175.371 369.233 174.842 369.479L175.267 370.641C175.71 370.432 176.159 370.266 176.614 370.143C177.081 370.008 177.598 369.94 178.163 369.94ZM178.219 373.52C178.809 373.52 179.332 373.563 179.787 373.649C180.254 373.735 180.667 373.827 181.023 373.925V374.848C181.023 375.229 180.937 375.58 180.765 375.9C180.605 376.207 180.377 376.478 180.082 376.711C179.799 376.933 179.461 377.111 179.068 377.246C178.686 377.369 178.274 377.431 177.831 377.431C177.512 377.431 177.204 377.388 176.909 377.302C176.626 377.216 176.374 377.093 176.152 376.933C175.931 376.761 175.753 376.558 175.617 376.324C175.494 376.09 175.433 375.82 175.433 375.512C175.433 374.897 175.673 374.411 176.152 374.055C176.632 373.698 177.321 373.52 178.219 373.52ZM187.227 370.069H190.252V368.815H187.227V365.936H185.806V368.815H184.478V370.069H185.806V375.826C185.806 376.306 185.874 376.718 186.009 377.062C186.144 377.406 186.329 377.689 186.562 377.911C186.808 378.12 187.097 378.274 187.43 378.372C187.762 378.47 188.118 378.52 188.5 378.52C188.844 378.52 189.152 378.483 189.422 378.409C189.705 378.347 189.97 378.249 190.216 378.114V376.896C189.97 377.019 189.736 377.105 189.514 377.154C189.305 377.203 189.078 377.228 188.832 377.228C188.352 377.228 187.965 377.111 187.669 376.877C187.374 376.644 187.227 376.232 187.227 375.641V370.069ZM193.346 374.11H200.91C200.923 374.024 200.929 373.944 200.929 373.87C200.929 373.796 200.929 373.729 200.929 373.667C200.929 372.966 200.83 372.308 200.634 371.693C200.437 371.078 200.148 370.543 199.766 370.088C199.385 369.633 198.918 369.276 198.364 369.018C197.811 368.747 197.183 368.612 196.482 368.612C195.818 368.612 195.203 368.741 194.637 368.999C194.084 369.257 193.604 369.614 193.198 370.069C192.792 370.512 192.472 371.041 192.239 371.656C192.017 372.259 191.907 372.905 191.907 373.593C191.907 374.331 192.03 375.008 192.276 375.623C192.534 376.238 192.878 376.767 193.309 377.21C193.739 377.64 194.244 377.978 194.822 378.224C195.4 378.458 196.015 378.575 196.667 378.575C197.577 378.575 198.34 378.415 198.955 378.095C199.57 377.763 200.117 377.326 200.597 376.785L199.711 375.992C199.317 376.398 198.881 376.724 198.401 376.97C197.934 377.216 197.368 377.339 196.704 377.339C196.285 377.339 195.886 377.271 195.504 377.136C195.123 376.988 194.779 376.779 194.471 376.508C194.164 376.226 193.911 375.887 193.715 375.494C193.518 375.088 193.395 374.627 193.346 374.11ZM193.346 373.058C193.395 372.591 193.506 372.16 193.678 371.767C193.85 371.373 194.071 371.035 194.342 370.752C194.613 370.457 194.926 370.229 195.283 370.069C195.64 369.897 196.027 369.811 196.445 369.811C196.925 369.811 197.343 369.903 197.7 370.088C198.069 370.26 198.376 370.494 198.622 370.789C198.881 371.084 199.078 371.428 199.213 371.822C199.36 372.216 199.453 372.628 199.49 373.058H193.346Z" fill="black"/>
<path d="M97.4888 130.513H115.135V125.421H103.005V120.329H113.862V115.236H103.005V110.568H114.498V105.476H97.4888V130.513ZM129.665 130.513H134.545V121.779C134.545 116.05 132.883 112.902 126.695 112.902C123.901 112.902 121.072 113.822 119.127 115.661L121.956 118.561C123.088 117.287 124.537 116.509 126.27 116.509C128.109 116.509 129.665 117.712 129.665 119.586C125.245 119.586 118.031 119.692 118.031 125.633C118.031 129.099 120.93 130.938 124.149 130.938C126.306 130.938 128.427 130.195 129.594 128.356H129.665V130.513ZM129.665 122.981V124.113C129.665 126.234 127.72 127.331 125.634 127.331C124.467 127.331 123.123 126.729 123.123 125.456C123.123 123.122 126.73 122.981 128.357 122.981H129.665ZM150.852 115.166C149.26 113.468 146.749 112.902 144.486 112.902C140.879 112.902 137.272 114.671 137.272 118.702C137.272 125.244 146.219 122.91 146.219 125.669C146.219 126.588 145.017 126.906 143.814 126.906C142.223 126.906 141.056 126.234 140.066 125.032L136.848 128.604C138.545 130.336 141.197 130.938 143.602 130.938C147.28 130.938 151.523 129.665 151.523 125.28C151.523 118.737 142.577 120.895 142.577 118.348C142.577 117.323 143.637 116.934 144.522 116.934C145.795 116.934 146.82 117.429 147.598 118.384L150.852 115.166ZM171.924 113.327H166.478L162.694 124.678H162.624L158.203 113.327H152.474L160.007 130.655L159.618 131.645C158.875 133.519 158.486 134.545 156.081 134.545C155.197 134.545 154.419 134.368 153.606 134.014L152.899 138.364C154.172 138.788 155.516 139 156.859 139C161.916 139 162.73 136.949 164.144 133.307L171.924 113.327Z" fill="black"/>
<rect width="826" height="423" rx="10" fill="#F6FF82"/>
<circle cx="696.955" cy="329.046" r="28.9545" fill="#EB001B"/>
<circle cx="730.046" cy="329.046" r="28.9545" fill="#F79E1B" fill-opacity="0.83"/>
<path d="M81.3456 207.471L77.0572 205.512L81.3456 203.516L80.3474 201.815L76.5397 204.477L76.9094 199.856H74.987L75.3567 204.477L71.549 201.815L70.5508 203.516L74.8391 205.512L70.5508 207.471L71.549 209.209L75.3567 206.51L74.987 211.131H76.9094L76.5397 206.51L80.3474 209.209L81.3456 207.471ZM97.2304 207.471L92.9421 205.512L97.2304 203.516L96.2322 201.815L92.4245 204.477L92.7942 199.856H90.8718L91.2415 204.477L87.4338 201.815L86.4356 203.516L90.724 205.512L86.4356 207.471L87.4338 209.209L91.2415 206.51L90.8718 211.131H92.7942L92.4245 206.51L96.2322 209.209L97.2304 207.471ZM113.115 207.471L108.827 205.512L113.115 203.516L112.117 201.815L108.309 204.477L108.679 199.856H106.757L107.126 204.477L103.319 201.815L102.32 203.516L106.609 205.512L102.32 207.471L103.319 209.209L107.126 206.51L106.757 211.131H108.679L108.309 206.51L112.117 209.209L113.115 207.471ZM129 207.471L124.712 205.512L129 203.516L128.002 201.815L124.194 204.477L124.564 199.856H122.641L123.011 204.477L119.203 201.815L118.205 203.516L122.494 205.512L118.205 207.471L119.203 209.209L123.011 206.51L122.641 211.131H124.564L124.194 206.51L128.002 209.209L129 207.471ZM155.968 207.471L151.68 205.512L155.968 203.516L154.97 201.815L151.162 204.477L151.532 199.856H149.61L149.979 204.477L146.172 201.815L145.173 203.516L149.462 205.512L145.173 207.471L146.172 209.209L149.979 206.51L149.61 211.131H151.532L151.162 206.51L154.97 209.209L155.968 207.471ZM171.853 207.471L167.565 205.512L171.853 203.516L170.855 201.815L167.047 204.477L167.417 199.856H165.494L165.864 204.477L162.056 201.815L161.058 203.516L165.347 205.512L161.058 207.471L162.056 209.209L165.864 206.51L165.494 211.131H167.417L167.047 206.51L170.855 209.209L171.853 207.471ZM187.738 207.471L183.449 205.512L187.738 203.516L186.74 201.815L182.932 204.477L183.302 199.856H181.379L181.749 204.477L177.941 201.815L176.943 203.516L181.231 205.512L176.943 207.471L177.941 209.209L181.749 206.51L181.379 211.131H183.302L182.932 206.51L186.74 209.209L187.738 207.471ZM203.623 207.471L199.334 205.512L203.623 203.516L202.624 201.815L198.817 204.477L199.186 199.856H197.264L197.634 204.477L193.826 201.815L192.828 203.516L197.116 205.512L192.828 207.471L193.826 209.209L197.634 206.51L197.264 211.131H199.186L198.817 206.51L202.624 209.209L203.623 207.471ZM230.591 207.471L226.302 205.512L230.591 203.516L229.593 201.815L225.785 204.477L226.155 199.856H224.232L224.602 204.477L220.794 201.815L219.796 203.516L224.084 205.512L219.796 207.471L220.794 209.209L224.602 206.51L224.232 211.131H226.155L225.785 206.51L229.593 209.209L230.591 207.471ZM246.476 207.471L242.187 205.512L246.476 203.516L245.477 201.815L241.67 204.477L242.039 199.856H240.117L240.487 204.477L236.679 201.815L235.681 203.516L239.969 205.512L235.681 207.471L236.679 209.209L240.487 206.51L240.117 211.131H242.039L241.67 206.51L245.477 209.209L246.476 207.471ZM262.36 207.471L258.072 205.512L262.36 203.516L261.362 201.815L257.554 204.477L257.924 199.856H256.002L256.372 204.477L252.564 201.815L251.566 203.516L255.854 205.512L251.566 207.471L252.564 209.209L256.372 206.51L256.002 211.131H257.924L257.554 206.51L261.362 209.209L262.36 207.471ZM278.245 207.471L273.957 205.512L278.245 203.516L277.247 201.815L273.439 204.477L273.809 199.856H271.887L272.256 204.477L268.449 201.815L267.45 203.516L271.739 205.512L267.45 207.471L268.449 209.209L272.256 206.51L271.887 211.131H273.809L273.439 206.51L277.247 209.209L278.245 207.471Z" fill="black"/>
<path d="M319.626 211.717C319.626 210.165 319.257 208.932 318.517 208.02C317.803 207.084 316.78 206.271 315.449 205.58C316.46 204.964 317.26 204.213 317.852 203.325C318.443 202.438 318.739 201.292 318.739 199.887C318.739 198.902 318.517 197.977 318.074 197.115C317.655 196.228 317.039 195.464 316.225 194.823C315.437 194.182 314.476 193.677 313.342 193.307C312.233 192.937 311.001 192.752 309.645 192.752C308.265 192.752 307.02 192.937 305.911 193.307C304.802 193.677 303.841 194.182 303.028 194.823C302.239 195.464 301.623 196.228 301.179 197.115C300.76 197.977 300.551 198.902 300.551 199.887C300.551 201.292 300.847 202.438 301.438 203.325C302.03 204.213 302.831 204.964 303.841 205.58C302.461 206.221 301.413 207.035 300.699 208.02C300.009 208.982 299.664 210.263 299.664 211.865C299.664 212.999 299.91 214.034 300.403 214.97C300.92 215.882 301.623 216.671 302.51 217.336C303.397 217.977 304.445 218.482 305.652 218.852C306.885 219.197 308.216 219.37 309.645 219.37C311.074 219.37 312.393 219.197 313.601 218.852C314.833 218.507 315.893 218.014 316.78 217.373C317.667 216.708 318.357 215.907 318.85 214.97C319.368 214.009 319.626 212.925 319.626 211.717ZM313.342 200.516C313.342 201.452 313.009 202.216 312.344 202.808C311.678 203.399 310.779 203.695 309.645 203.695C308.511 203.695 307.612 203.399 306.946 202.808C306.281 202.192 305.948 201.415 305.948 200.479C305.948 199.666 306.269 198.963 306.909 198.372C307.55 197.756 308.462 197.447 309.645 197.447C310.828 197.447 311.74 197.756 312.381 198.372C313.021 198.988 313.342 199.703 313.342 200.516ZM314.118 211.421C314.118 212.358 313.724 213.134 312.935 213.75C312.147 214.367 311.05 214.675 309.645 214.675C308.24 214.675 307.143 214.367 306.355 213.75C305.566 213.134 305.172 212.358 305.172 211.421C305.172 210.386 305.591 209.598 306.429 209.056C307.267 208.489 308.339 208.205 309.645 208.205C310.951 208.205 312.023 208.489 312.861 209.056C313.699 209.598 314.118 210.386 314.118 211.421ZM343.762 205.285C343.762 204.003 343.689 202.857 343.541 201.847C343.393 200.836 343.183 199.937 342.912 199.148C342.641 198.359 342.321 197.669 341.951 197.078C341.581 196.486 341.162 195.956 340.694 195.488C340.201 194.995 339.696 194.576 339.178 194.231C338.661 193.862 338.106 193.566 337.515 193.344C336.923 193.122 336.27 192.962 335.555 192.863C334.865 192.74 334.089 192.679 333.226 192.679C331.772 192.679 330.429 192.913 329.197 193.381C327.989 193.825 326.954 194.453 326.092 195.266C325.229 196.08 324.551 197.041 324.058 198.15C323.59 199.259 323.356 200.467 323.356 201.773C323.356 203.104 323.565 204.287 323.984 205.322C324.428 206.357 325.056 207.232 325.87 207.946C326.683 208.661 327.657 209.216 328.79 209.61C329.924 209.98 331.193 210.165 332.598 210.165C333.732 210.165 334.73 210.004 335.592 209.684C336.455 209.364 337.207 208.932 337.848 208.39C337.65 210.14 337.12 211.557 336.258 212.641C335.42 213.726 334.2 214.268 332.598 214.268C331.489 214.268 330.503 214.096 329.641 213.75C328.778 213.381 327.878 212.814 326.942 212.05L323.947 216.375C325.056 217.287 326.276 218.027 327.607 218.593C328.938 219.16 330.552 219.444 332.45 219.444C334.299 219.444 335.925 219.099 337.33 218.409C338.735 217.718 339.905 216.757 340.842 215.525C341.803 214.293 342.53 212.814 343.023 211.089C343.516 209.339 343.762 207.404 343.762 205.285ZM337.958 201.551C337.958 202.685 337.564 203.621 336.775 204.361C336.011 205.075 334.927 205.433 333.522 205.433C332.117 205.433 331.008 205.075 330.195 204.361C329.406 203.646 329.012 202.697 329.012 201.514C329.012 200.331 329.394 199.382 330.158 198.667C330.922 197.928 332.007 197.558 333.411 197.558C334.841 197.558 335.95 197.928 336.738 198.667C337.552 199.407 337.958 200.368 337.958 201.551ZM348.277 198.039H360.439L348.868 219H355.301L366.909 197.41V193.122H348.277V198.039ZM390.093 195.525C389.526 195.081 388.947 194.687 388.355 194.342C387.764 193.972 387.148 193.664 386.507 193.418C385.866 193.171 385.176 192.987 384.437 192.863C383.697 192.74 382.884 192.679 381.997 192.679C380.075 192.679 378.399 193.048 376.969 193.788C375.54 194.502 374.357 195.5 373.42 196.782C372.484 198.039 371.781 199.53 371.313 201.255C370.869 202.98 370.648 204.841 370.648 206.837C370.648 209.425 370.919 211.483 371.461 213.011C372.028 214.515 372.78 215.734 373.716 216.671C374.628 217.583 375.675 218.273 376.858 218.741C378.041 219.209 379.483 219.444 381.184 219.444C382.588 219.444 383.895 219.234 385.102 218.815C386.31 218.372 387.345 217.755 388.208 216.967C389.095 216.153 389.785 215.205 390.278 214.12C390.795 213.011 391.054 211.791 391.054 210.46C391.054 209.105 390.82 207.91 390.352 206.874C389.884 205.839 389.243 204.977 388.429 204.287C387.616 203.597 386.655 203.079 385.546 202.734C384.437 202.364 383.242 202.179 381.96 202.179C380.678 202.179 379.619 202.352 378.781 202.697C377.967 203.042 377.24 203.424 376.6 203.843C376.698 203.005 376.871 202.216 377.117 201.477C377.364 200.738 377.696 200.109 378.115 199.592C378.559 199.049 379.076 198.63 379.668 198.335C380.284 198.014 380.999 197.854 381.812 197.854C382.354 197.854 382.86 197.903 383.328 198.002C383.796 198.101 384.24 198.236 384.659 198.409C385.078 198.581 385.484 198.803 385.879 199.074C386.273 199.321 386.68 199.604 387.099 199.924L390.093 195.525ZM385.398 210.719C385.398 211.853 385.004 212.777 384.215 213.492C383.451 214.206 382.367 214.564 380.962 214.564C379.557 214.564 378.448 214.206 377.635 213.492C376.846 212.752 376.452 211.816 376.452 210.682C376.452 209.573 376.834 208.674 377.598 207.983C378.386 207.269 379.483 206.911 380.888 206.911C382.293 206.911 383.389 207.269 384.178 207.983C384.991 208.698 385.398 209.61 385.398 210.719Z" fill="black"/>
<path d="M80.9 314.98C80.9 314.007 80.7667 313.087 80.5 312.22C80.2333 311.34 79.8467 310.573 79.34 309.92C78.8467 309.253 78.24 308.727 77.52 308.34C76.8133 307.953 76.0133 307.76 75.12 307.76C74.2267 307.76 73.42 307.96 72.7 308.36C71.9933 308.747 71.3867 309.273 70.88 309.94C70.3733 310.607 69.98 311.38 69.7 312.26C69.4333 313.127 69.3 314.047 69.3 315.02C69.3 315.993 69.4333 316.92 69.7 317.8C69.9667 318.667 70.3467 319.433 70.84 320.1C71.3467 320.753 71.9533 321.273 72.66 321.66C73.38 322.047 74.1867 322.24 75.08 322.24C75.9733 322.24 76.7733 322.047 77.48 321.66C78.2 321.26 78.8133 320.727 79.32 320.06C79.8267 319.393 80.2133 318.627 80.48 317.76C80.76 316.88 80.9 315.953 80.9 314.98ZM79.82 315.02C79.82 315.847 79.7067 316.64 79.48 317.4C79.2667 318.147 78.9533 318.813 78.54 319.4C78.14 319.973 77.6467 320.433 77.06 320.78C76.4867 321.127 75.84 321.3 75.12 321.3C74.4 321.3 73.7467 321.127 73.16 320.78C72.5733 320.42 72.0733 319.953 71.66 319.38C71.2467 318.793 70.9267 318.12 70.7 317.36C70.4867 316.6 70.38 315.807 70.38 314.98C70.38 314.167 70.4867 313.38 70.7 312.62C70.9267 311.86 71.24 311.193 71.64 310.62C72.0533 310.033 72.5467 309.567 73.12 309.22C73.7067 308.873 74.36 308.7 75.08 308.7C75.8 308.7 76.4533 308.88 77.04 309.24C77.6267 309.587 78.1267 310.053 78.54 310.64C78.9533 311.213 79.2667 311.887 79.48 312.66C79.7067 313.42 79.82 314.207 79.82 315.02ZM93.2192 309.38C92.6059 308.873 91.9792 308.48 91.3392 308.2C90.6992 307.907 89.9792 307.76 89.1792 307.76C88.3126 307.76 87.5259 307.96 86.8192 308.36C86.1126 308.747 85.5126 309.287 85.0192 309.98C84.5259 310.66 84.1459 311.467 83.8792 312.4C83.6126 313.32 83.4792 314.307 83.4792 315.36C83.4792 316.093 83.5126 316.74 83.5792 317.3C83.6592 317.847 83.7726 318.333 83.9192 318.76C84.0792 319.187 84.2659 319.567 84.4792 319.9C84.7059 320.233 84.9659 320.547 85.2592 320.84C85.6859 321.267 86.2059 321.607 86.8192 321.86C87.4326 322.113 88.0992 322.24 88.8192 322.24C89.5126 322.24 90.1526 322.127 90.7392 321.9C91.3392 321.673 91.8592 321.353 92.2992 320.94C92.7392 320.527 93.0859 320.04 93.3392 319.48C93.5926 318.907 93.7192 318.287 93.7192 317.62C93.7192 316.993 93.5859 316.42 93.3192 315.9C93.0659 315.367 92.7192 314.913 92.2792 314.54C91.8392 314.167 91.3259 313.88 90.7392 313.68C90.1526 313.467 89.5392 313.36 88.8992 313.36C88.3259 313.36 87.8126 313.433 87.3592 313.58C86.9059 313.727 86.4992 313.92 86.1392 314.16C85.7926 314.4 85.4859 314.68 85.2192 315C84.9526 315.307 84.7192 315.627 84.5192 315.96C84.4926 314.893 84.5792 313.913 84.7792 313.02C84.9926 312.127 85.2992 311.36 85.6992 310.72C86.0992 310.08 86.5859 309.587 87.1592 309.24C87.7459 308.88 88.3926 308.7 89.0992 308.7C89.7659 308.7 90.3726 308.827 90.9192 309.08C91.4659 309.333 92.0126 309.7 92.5592 310.18L93.2192 309.38ZM92.6392 317.66C92.6392 318.167 92.5459 318.64 92.3592 319.08C92.1859 319.52 91.9326 319.907 91.5992 320.24C91.2792 320.56 90.8859 320.82 90.4192 321.02C89.9659 321.207 89.4592 321.3 88.8992 321.3C88.3392 321.3 87.8126 321.213 87.3192 321.04C86.8392 320.853 86.4192 320.607 86.0592 320.3C85.7126 319.98 85.4392 319.607 85.2392 319.18C85.0392 318.74 84.9392 318.267 84.9392 317.76C84.9392 317.32 85.0326 316.893 85.2192 316.48C85.4192 316.067 85.6859 315.7 86.0192 315.38C86.3659 315.047 86.7792 314.78 87.2592 314.58C87.7392 314.38 88.2659 314.28 88.8392 314.28C89.3992 314.28 89.9059 314.367 90.3592 314.54C90.8259 314.713 91.2259 314.953 91.5592 315.26C91.9059 315.553 92.1726 315.907 92.3592 316.32C92.5459 316.733 92.6392 317.18 92.6392 317.66ZM103.916 306.04L94.4759 324.56H95.4559L104.896 306.04H103.916ZM110.565 308.72C110.979 308.72 111.379 308.793 111.765 308.94C112.152 309.073 112.485 309.273 112.765 309.54C113.059 309.793 113.292 310.107 113.465 310.48C113.639 310.853 113.725 311.267 113.725 311.72C113.725 312.093 113.672 312.453 113.565 312.8C113.459 313.147 113.285 313.507 113.045 313.88C112.805 314.253 112.485 314.653 112.085 315.08C111.685 315.507 111.199 315.98 110.625 316.5L105.405 321.22V322H114.965V321H107.045L111.325 317.12C111.939 316.56 112.465 316.053 112.905 315.6C113.345 315.133 113.705 314.693 113.985 314.28C114.279 313.853 114.492 313.433 114.625 313.02C114.759 312.593 114.825 312.14 114.825 311.66C114.825 311.113 114.719 310.607 114.505 310.14C114.292 309.66 113.999 309.247 113.625 308.9C113.265 308.553 112.832 308.287 112.325 308.1C111.819 307.9 111.265 307.8 110.665 307.8C110.052 307.8 109.505 307.873 109.025 308.02C108.545 308.153 108.105 308.353 107.705 308.62C107.319 308.873 106.959 309.187 106.625 309.56C106.305 309.92 105.992 310.333 105.685 310.8L106.465 311.32C107.052 310.48 107.659 309.84 108.285 309.4C108.912 308.947 109.672 308.72 110.565 308.72ZM124.597 307.9L116.597 317.8L116.957 318.58H124.537V322H125.537V318.58H127.817V317.68H125.537V307.9H124.597ZM124.537 317.68H117.857L124.537 309.4V317.68Z" fill="black"/>
<path d="M80.1 332H69.98V346H80.2V344.56H71.56V339.66H79.2V338.22H71.56V333.44H80.1V332ZM88.0184 340.7L91.9384 335.66H90.2184L87.1584 339.66L84.0984 335.66H82.3384L86.2384 340.74L82.1784 346H83.8984L87.1184 341.78L90.3184 346H92.0984L88.0184 340.7ZM105.043 340.82C105.043 339.967 104.903 339.207 104.623 338.54C104.343 337.873 103.969 337.313 103.503 336.86C103.036 336.393 102.503 336.04 101.903 335.8C101.316 335.56 100.716 335.44 100.103 335.44C99.6228 335.44 99.1828 335.507 98.7828 335.64C98.3961 335.76 98.0428 335.927 97.7228 336.14C97.4028 336.34 97.1095 336.58 96.8428 336.86C96.5895 337.14 96.3561 337.433 96.1428 337.74V335.66H94.6028V349.2H96.1428V344.02C96.3428 344.313 96.5695 344.593 96.8228 344.86C97.0895 345.127 97.3828 345.36 97.7028 345.56C98.0228 345.76 98.3828 345.92 98.7828 346.04C99.1828 346.16 99.6228 346.22 100.103 346.22C100.729 346.22 101.336 346.1 101.923 345.86C102.523 345.607 103.049 345.253 103.503 344.8C103.969 344.333 104.343 343.767 104.623 343.1C104.903 342.433 105.043 341.673 105.043 340.82ZM103.463 340.84C103.463 341.467 103.363 342.033 103.163 342.54C102.976 343.033 102.716 343.453 102.383 343.8C102.063 344.133 101.676 344.393 101.223 344.58C100.783 344.753 100.316 344.84 99.8228 344.84C99.3428 344.84 98.8761 344.747 98.4228 344.56C97.9828 344.36 97.5828 344.087 97.2228 343.74C96.8761 343.393 96.5961 342.973 96.3828 342.48C96.1828 341.973 96.0828 341.42 96.0828 340.82C96.0828 340.22 96.1828 339.673 96.3828 339.18C96.5961 338.687 96.8761 338.267 97.2228 337.92C97.5828 337.573 97.9828 337.307 98.4228 337.12C98.8761 336.92 99.3428 336.82 99.8228 336.82C100.316 336.82 100.783 336.913 101.223 337.1C101.663 337.287 102.049 337.56 102.383 337.92C102.716 338.267 102.976 338.687 103.163 339.18C103.363 339.673 103.463 340.227 103.463 340.84ZM109.684 333.4V331.7H107.924V333.4H109.684ZM109.564 346V335.66H108.024V346H109.564ZM114.678 341.88C114.678 341.107 114.785 340.427 114.998 339.84C115.211 339.24 115.505 338.74 115.878 338.34C116.251 337.94 116.685 337.64 117.178 337.44C117.685 337.24 118.218 337.14 118.778 337.14H118.898V335.48C118.405 335.467 117.945 335.527 117.518 335.66C117.091 335.793 116.698 335.993 116.338 336.26C115.978 336.513 115.658 336.82 115.378 337.18C115.098 337.54 114.865 337.933 114.678 338.36V335.66H113.138V346H114.678V341.88ZM130.623 335.66H128.983L125.663 344.28L121.903 335.66H120.203L124.903 345.96C124.597 346.693 124.283 347.2 123.963 347.48C123.643 347.76 123.25 347.9 122.783 347.9C122.45 347.9 122.157 347.867 121.903 347.8C121.663 347.747 121.417 347.653 121.163 347.52L120.643 348.74C120.99 348.913 121.337 349.04 121.683 349.12C122.03 349.213 122.417 349.26 122.843 349.26C123.617 349.26 124.27 349.04 124.803 348.6C125.35 348.16 125.843 347.407 126.283 346.34L130.623 335.66ZM151.616 338.98C151.616 337.993 151.436 337.073 151.076 336.22C150.716 335.367 150.203 334.627 149.536 334C148.883 333.373 148.096 332.887 147.176 332.54C146.269 332.18 145.269 332 144.176 332H139.316V346H144.176C145.269 346 146.269 345.82 147.176 345.46C148.096 345.1 148.883 344.607 149.536 343.98C150.203 343.353 150.716 342.613 151.076 341.76C151.436 340.893 151.616 339.967 151.616 338.98ZM149.976 339.02C149.976 339.807 149.836 340.533 149.556 341.2C149.289 341.867 148.903 342.453 148.396 342.96C147.903 343.453 147.296 343.84 146.576 344.12C145.856 344.4 145.056 344.54 144.176 344.54H140.896V333.46H144.176C145.056 333.46 145.856 333.607 146.576 333.9C147.296 334.18 147.903 334.573 148.396 335.08C148.903 335.573 149.289 336.16 149.556 336.84C149.836 337.52 149.976 338.247 149.976 339.02ZM158.44 336.88C159.414 336.88 160.167 337.12 160.7 337.6C161.247 338.067 161.52 338.767 161.52 339.7V340.06C161.054 339.927 160.574 339.82 160.08 339.74C159.587 339.66 159.007 339.62 158.34 339.62C157.687 339.62 157.087 339.693 156.54 339.84C156.007 339.987 155.54 340.2 155.14 340.48C154.754 340.76 154.454 341.113 154.24 341.54C154.027 341.953 153.92 342.433 153.92 342.98C153.92 343.527 154.027 344 154.24 344.4C154.467 344.8 154.76 345.14 155.12 345.42C155.494 345.687 155.907 345.887 156.36 346.02C156.827 346.153 157.3 346.22 157.78 346.22C158.7 346.22 159.46 346.04 160.06 345.68C160.674 345.32 161.16 344.907 161.52 344.44V346H163V339.68C163 338.307 162.62 337.273 161.86 336.58C161.1 335.873 160.014 335.52 158.6 335.52C157.84 335.52 157.167 335.6 156.58 335.76C155.994 335.907 155.414 336.113 154.84 336.38L155.3 337.64C155.78 337.413 156.267 337.233 156.76 337.1C157.267 336.953 157.827 336.88 158.44 336.88ZM158.5 340.76C159.14 340.76 159.707 340.807 160.2 340.9C160.707 340.993 161.154 341.093 161.54 341.2V342.2C161.54 342.613 161.447 342.993 161.26 343.34C161.087 343.673 160.84 343.967 160.52 344.22C160.214 344.46 159.847 344.653 159.42 344.8C159.007 344.933 158.56 345 158.08 345C157.734 345 157.4 344.953 157.08 344.86C156.774 344.767 156.5 344.633 156.26 344.46C156.02 344.273 155.827 344.053 155.68 343.8C155.547 343.547 155.48 343.253 155.48 342.92C155.48 342.253 155.74 341.727 156.26 341.34C156.78 340.953 157.527 340.76 158.5 340.76ZM168.265 337.02H171.545V335.66H168.265V332.54H166.725V335.66H165.285V337.02H166.725V343.26C166.725 343.78 166.798 344.227 166.945 344.6C167.092 344.973 167.292 345.28 167.545 345.52C167.812 345.747 168.125 345.913 168.485 346.02C168.845 346.127 169.232 346.18 169.645 346.18C170.018 346.18 170.352 346.14 170.645 346.06C170.952 345.993 171.238 345.887 171.505 345.74V344.42C171.238 344.553 170.985 344.647 170.745 344.7C170.518 344.753 170.272 344.78 170.005 344.78C169.485 344.78 169.065 344.653 168.745 344.4C168.425 344.147 168.265 343.7 168.265 343.06V337.02ZM174.898 341.4H183.098C183.111 341.307 183.118 341.22 183.118 341.14C183.118 341.06 183.118 340.987 183.118 340.92C183.118 340.16 183.011 339.447 182.798 338.78C182.584 338.113 182.271 337.533 181.858 337.04C181.444 336.547 180.938 336.16 180.338 335.88C179.738 335.587 179.058 335.44 178.298 335.44C177.578 335.44 176.911 335.58 176.298 335.86C175.698 336.14 175.178 336.527 174.738 337.02C174.298 337.5 173.951 338.073 173.698 338.74C173.458 339.393 173.338 340.093 173.338 340.84C173.338 341.64 173.471 342.373 173.738 343.04C174.018 343.707 174.391 344.28 174.858 344.76C175.324 345.227 175.871 345.593 176.498 345.86C177.124 346.113 177.791 346.24 178.498 346.24C179.484 346.24 180.311 346.067 180.978 345.72C181.644 345.36 182.238 344.887 182.758 344.3L181.798 343.44C181.371 343.88 180.898 344.233 180.378 344.5C179.871 344.767 179.258 344.9 178.538 344.9C178.084 344.9 177.651 344.827 177.238 344.68C176.824 344.52 176.451 344.293 176.118 344C175.784 343.693 175.511 343.327 175.298 342.9C175.084 342.46 174.951 341.96 174.898 341.4ZM174.898 340.26C174.951 339.753 175.071 339.287 175.258 338.86C175.444 338.433 175.684 338.067 175.978 337.76C176.271 337.44 176.611 337.193 176.998 337.02C177.384 336.833 177.804 336.74 178.258 336.74C178.778 336.74 179.231 336.84 179.618 337.04C180.018 337.227 180.351 337.48 180.618 337.8C180.898 338.12 181.111 338.493 181.258 338.92C181.418 339.347 181.518 339.793 181.558 340.26H174.898Z" fill="black"/>
<path d="M70.99 78H90.1183V72.48H76.97V66.96H88.7383V61.44H76.97V56.38H89.4283V50.86H70.99V78ZM105.869 78H111.159V68.5317C111.159 62.3217 109.357 58.91 102.649 58.91C99.6205 58.91 96.5538 59.9067 94.4455 61.9L97.5122 65.0433C98.7388 63.6633 100.311 62.82 102.189 62.82C104.182 62.82 105.869 64.1233 105.869 66.155C101.077 66.155 93.2572 66.27 93.2572 72.71C93.2572 76.4667 96.4005 78.46 99.8888 78.46C102.227 78.46 104.527 77.655 105.792 75.6617H105.869V78ZM105.869 69.835V71.0617C105.869 73.3617 103.761 74.55 101.499 74.55C100.234 74.55 98.7772 73.8983 98.7772 72.5183C98.7772 69.9883 102.687 69.835 104.451 69.835H105.869ZM128.835 61.3633C127.11 59.5233 124.388 58.91 121.935 58.91C118.025 58.91 114.115 60.8267 114.115 65.1967C114.115 72.2883 123.813 69.7583 123.813 72.7483C123.813 73.745 122.51 74.09 121.206 74.09C119.481 74.09 118.216 73.3617 117.143 72.0583L113.655 75.93C115.495 77.8083 118.37 78.46 120.976 78.46C124.963 78.46 129.563 77.08 129.563 72.3267C129.563 65.235 119.865 67.5733 119.865 64.8133C119.865 63.7017 121.015 63.28 121.973 63.28C123.353 63.28 124.465 63.8167 125.308 64.8517L128.835 61.3633ZM151.677 59.37H145.774L141.672 71.675H141.596L136.804 59.37H130.594L138.759 78.1533L138.337 79.2267C137.532 81.2583 137.111 82.37 134.504 82.37C133.546 82.37 132.702 82.1783 131.821 81.795L131.054 86.51C132.434 86.97 133.891 87.2 135.347 87.2C140.829 87.2 141.711 84.9767 143.244 81.0283L151.677 59.37Z" fill="black"/>
</svg>
