<svg width="12" height="20" viewBox="0 0 12 20" fill="none" xmlns="http://www.w3.org/2000/svg">
<path fill-rule="evenodd" clip-rule="evenodd" d="M4.35097 1.53769C5.33554 0.553123 6.67089 0 8.06328 0H10.7633C11.1775 0 11.5133 0.335786 11.5133 0.75V4.35C11.5133 4.76421 11.1775 5.1 10.7633 5.1H8.06328C8.0235 5.1 7.98535 5.1158 7.95722 5.14393C7.92908 5.17206 7.91328 5.21022 7.91328 5.25V7.2H10.7633C10.9942 7.2 11.2123 7.3064 11.3544 7.48844C11.4966 7.67048 11.5469 7.90785 11.4909 8.1319L10.5909 11.7319C10.5074 12.0658 10.2074 12.3 9.86328 12.3H7.91328V18.75C7.91328 19.1642 7.57749 19.5 7.16328 19.5H3.56328C3.14907 19.5 2.81328 19.1642 2.81328 18.75V12.3H0.863281C0.449068 12.3 0.113281 11.9642 0.113281 11.55V7.95C0.113281 7.53579 0.449068 7.2 0.863281 7.2H2.81328V5.25C2.81328 3.85761 3.3664 2.52226 4.35097 1.53769ZM8.06328 1.5C7.06872 1.5 6.11489 1.89509 5.41163 2.59835C4.70837 3.30161 4.31328 4.25544 4.31328 5.25V7.95C4.31328 8.36421 3.97749 8.7 3.56328 8.7H1.61328V10.8H3.56328C3.97749 10.8 4.31328 11.1358 4.31328 11.55V18H6.41328V11.55C6.41328 11.1358 6.74907 10.8 7.16328 10.8H9.2777L9.8027 8.7H7.16328C6.74907 8.7 6.41328 8.36421 6.41328 7.95V5.25C6.41328 4.81239 6.58712 4.39271 6.89655 4.08327C7.20599 3.77384 7.62567 3.6 8.06328 3.6H10.0133V1.5H8.06328Z" fill="#F6FF82"/>
</svg>
