<svg width="26" height="16" viewBox="0 0 26 16" fill="none" xmlns="http://www.w3.org/2000/svg">
<path d="M25.1169 9.75611C25.5516 9.41542 25.6278 8.78685 25.2871 8.35217L19.7352 1.26861C19.3945 0.833929 18.7659 0.757732 18.3313 1.09842C17.8966 1.43911 17.8204 2.06768 18.1611 2.50236L23.0961 8.79886L16.7996 13.7338C16.3649 14.0745 16.2887 14.7031 16.6294 15.1378C16.9701 15.5725 17.5986 15.6487 18.0333 15.308L25.1169 9.75611ZM1.5 12.4689C2.14595 13.2323 2.14544 13.2327 2.14495 13.2331C2.14482 13.2333 2.14436 13.2336 2.1441 13.2339C2.14359 13.2343 2.14317 13.2346 2.14285 13.2349C2.14221 13.2355 2.14196 13.2357 2.1421 13.2355C2.14239 13.2353 2.14424 13.2338 2.14768 13.231C2.15457 13.2254 2.16779 13.2149 2.18746 13.1997C2.2268 13.1694 2.29194 13.1207 2.38371 13.0566C2.56723 12.9286 2.85741 12.7393 3.26108 12.5138C4.06805 12.0631 5.33067 11.4665 7.1043 10.9254C10.6483 9.84418 16.2572 8.97715 24.3797 9.96178L24.6203 7.97631C16.2428 6.96077 10.3517 7.84368 6.5207 9.01244C4.60683 9.59633 3.2132 10.2497 2.28579 10.7678C1.82228 11.0267 1.47574 11.2514 1.23934 11.4164C1.12115 11.4988 1.03052 11.5663 0.966589 11.6156C0.934624 11.6402 0.909335 11.6603 0.890615 11.6754C0.881255 11.683 0.873537 11.6893 0.867448 11.6943C0.864404 11.6969 0.861767 11.6991 0.859535 11.7009C0.858419 11.7019 0.857404 11.7027 0.856491 11.7035C0.856035 11.7039 0.855425 11.7044 0.855197 11.7046C0.854613 11.7051 0.854054 11.7055 1.5 12.4689Z" fill="black"/>
</svg>
