<svg width="455" height="579" viewBox="0 0 455 579" fill="none" xmlns="http://www.w3.org/2000/svg">
<rect y="129" width="405" height="450" rx="10" fill="#434BB8"/>
<rect x="25" y="72" width="405" height="507" rx="10" fill="#FAF8E6"/>
<rect x="50" width="405" height="579" rx="10" fill="#F6FF82"/>
<path d="M91.4998 446.845C91.4998 445.999 91.216 445.32 90.6483 444.808C90.0807 444.285 89.1624 443.878 87.8936 443.589V439.482C88.3388 439.56 88.7673 439.693 89.1791 439.882C89.6021 440.072 90.0139 440.339 90.4146 440.684L91.1325 439.682C90.6428 439.304 90.1475 439.003 89.6466 438.781C89.1457 438.547 88.5781 438.402 87.9437 438.346V437.345H86.8751V438.313C86.3631 438.335 85.8901 438.43 85.456 438.597C85.033 438.764 84.6657 438.986 84.3541 439.265C84.0424 439.532 83.7976 439.849 83.6195 440.216C83.4525 440.573 83.369 440.968 83.369 441.402C83.369 442.281 83.6529 442.971 84.2205 443.472C84.7882 443.973 85.6897 444.368 86.9252 444.657V448.831C86.2908 448.765 85.7176 448.598 85.2056 448.33C84.6936 448.063 84.1871 447.702 83.6863 447.245L82.935 448.247C83.5249 448.748 84.1426 449.143 84.7882 449.432C85.4337 449.722 86.1294 449.9 86.8751 449.967V451.636H87.9437V450C88.4668 449.967 88.9454 449.872 89.3795 449.716C89.8247 449.549 90.2031 449.327 90.5148 449.048C90.8264 448.77 91.0657 448.447 91.2327 448.08C91.4108 447.713 91.4998 447.301 91.4998 446.845ZM86.9252 443.355C86.4689 443.244 86.0904 443.121 85.7899 442.988C85.5005 442.843 85.2723 442.687 85.1054 442.52C84.9384 442.353 84.8216 442.17 84.7548 441.969C84.688 441.769 84.6546 441.552 84.6546 441.318C84.6546 441.062 84.7047 440.823 84.8049 440.6C84.9162 440.378 85.0664 440.183 85.2557 440.016C85.456 439.849 85.6953 439.715 85.9736 439.615C86.2518 439.504 86.569 439.443 86.9252 439.432V443.355ZM90.2143 446.928C90.2143 447.485 90.0028 447.941 89.5798 448.297C89.168 448.653 88.6059 448.848 87.8936 448.881V444.891C88.361 445.002 88.7395 445.125 89.0289 445.258C89.3294 445.392 89.5687 445.542 89.7468 445.709C89.9249 445.876 90.0473 446.06 90.1141 446.26C90.1809 446.461 90.2143 446.683 90.2143 446.928Z" fill="#706E6E"/>
<path d="M103.132 436.947C103.868 436.947 104.465 437.149 104.921 437.553C105.377 437.956 105.605 438.553 105.605 439.342C105.605 439.728 105.544 440.088 105.421 440.421C105.316 440.737 105.132 441.07 104.868 441.421C104.623 441.754 104.298 442.114 103.895 442.5C103.491 442.868 103 443.289 102.421 443.763L96.2895 448.789V452H109.921V448.5H101.895L104.895 446.184C105.702 445.553 106.412 444.974 107.026 444.447C107.64 443.904 108.14 443.36 108.526 442.816C108.93 442.272 109.228 441.702 109.421 441.105C109.632 440.491 109.737 439.798 109.737 439.026C109.737 438.167 109.588 437.386 109.289 436.684C109.009 435.982 108.588 435.386 108.026 434.895C107.482 434.386 106.816 434 106.026 433.737C105.254 433.456 104.377 433.316 103.395 433.316C102.57 433.316 101.833 433.404 101.184 433.579C100.535 433.737 99.9386 433.982 99.3947 434.316C98.8684 434.632 98.3684 435.026 97.8947 435.5C97.4386 435.974 96.9825 436.518 96.5263 437.132L99.3684 439.421C100.053 438.579 100.667 437.956 101.211 437.553C101.772 437.149 102.412 436.947 103.132 436.947ZM120.712 437.053L116.317 441.474L116.949 444.053H118.633C119.791 444.053 120.677 444.254 121.291 444.658C121.922 445.061 122.238 445.649 122.238 446.421C122.238 447.123 121.992 447.675 121.501 448.079C121.028 448.482 120.405 448.684 119.633 448.684C118.685 448.684 117.861 448.5 117.159 448.132C116.475 447.746 115.817 447.193 115.185 446.474L112.396 449.132C113.185 450.079 114.159 450.851 115.317 451.447C116.492 452.026 117.914 452.316 119.58 452.316C120.598 452.316 121.519 452.167 122.343 451.868C123.168 451.57 123.861 451.149 124.422 450.605C125.001 450.061 125.44 449.421 125.738 448.684C126.054 447.947 126.212 447.14 126.212 446.263C126.212 445.404 126.071 444.675 125.791 444.079C125.51 443.465 125.142 442.956 124.685 442.553C124.229 442.132 123.703 441.807 123.106 441.579C122.51 441.351 121.896 441.184 121.264 441.079L125.922 436.632V433.579H113.475V437.053H120.712ZM138.662 433.447L128.556 445.158L129.214 448.026H138.214V452H142.083V448.026H144.556V444.737H142.083V433.447H138.662ZM138.214 444.737H133.319L138.214 439V444.737ZM148.252 442.658L150.595 444.211C151.033 444.018 151.507 443.86 152.016 443.737C152.542 443.596 153.095 443.526 153.674 443.526C154.674 443.526 155.463 443.746 156.042 444.184C156.638 444.623 156.937 445.246 156.937 446.053C156.937 446.895 156.656 447.535 156.095 447.974C155.551 448.412 154.805 448.632 153.858 448.632C153.033 448.632 152.27 448.456 151.568 448.105C150.867 447.754 150.165 447.263 149.463 446.632L147.016 449.553C147.91 450.412 148.91 451.088 150.016 451.579C151.121 452.07 152.419 452.316 153.91 452.316C154.963 452.316 155.919 452.167 156.779 451.868C157.656 451.57 158.393 451.149 158.989 450.605C159.603 450.044 160.077 449.368 160.41 448.579C160.744 447.789 160.91 446.904 160.91 445.921C160.91 444.868 160.744 443.974 160.41 443.237C160.077 442.482 159.621 441.868 159.042 441.395C158.463 440.921 157.779 440.57 156.989 440.342C156.217 440.114 155.375 440 154.463 440C153.954 440 153.516 440.035 153.147 440.105C152.779 440.158 152.41 440.228 152.042 440.316L152.252 437.132H160.095V433.579H148.779L148.252 442.658ZM168.355 452V447.789H164.091V452H168.355ZM185.253 435.289C184.849 434.974 184.437 434.693 184.016 434.447C183.595 434.184 183.156 433.965 182.7 433.789C182.244 433.614 181.753 433.482 181.227 433.395C180.7 433.307 180.121 433.263 179.49 433.263C178.121 433.263 176.928 433.526 175.911 434.053C174.893 434.561 174.051 435.272 173.384 436.184C172.718 437.079 172.218 438.14 171.884 439.368C171.569 440.596 171.411 441.921 171.411 443.342C171.411 445.184 171.604 446.649 171.99 447.737C172.393 448.807 172.928 449.675 173.595 450.342C174.244 450.991 174.99 451.482 175.832 451.816C176.674 452.149 177.7 452.316 178.911 452.316C179.911 452.316 180.841 452.167 181.7 451.868C182.56 451.553 183.297 451.114 183.911 450.553C184.542 449.974 185.034 449.298 185.384 448.526C185.753 447.737 185.937 446.868 185.937 445.921C185.937 444.956 185.77 444.105 185.437 443.368C185.104 442.632 184.648 442.018 184.069 441.526C183.49 441.035 182.806 440.667 182.016 440.421C181.227 440.158 180.376 440.026 179.463 440.026C178.551 440.026 177.797 440.149 177.2 440.395C176.621 440.64 176.104 440.912 175.648 441.211C175.718 440.614 175.841 440.053 176.016 439.526C176.191 439 176.428 438.553 176.727 438.184C177.042 437.798 177.411 437.5 177.832 437.289C178.27 437.061 178.779 436.947 179.358 436.947C179.744 436.947 180.104 436.982 180.437 437.053C180.77 437.123 181.086 437.219 181.384 437.342C181.683 437.465 181.972 437.623 182.253 437.816C182.534 437.991 182.823 438.193 183.121 438.421L185.253 435.289ZM181.911 446.105C181.911 446.912 181.63 447.57 181.069 448.079C180.525 448.588 179.753 448.842 178.753 448.842C177.753 448.842 176.963 448.588 176.384 448.079C175.823 447.553 175.542 446.886 175.542 446.079C175.542 445.289 175.814 444.649 176.358 444.158C176.92 443.649 177.7 443.395 178.7 443.395C179.7 443.395 180.481 443.649 181.042 444.158C181.621 444.667 181.911 445.316 181.911 446.105ZM189.203 437.079H197.861L189.624 452H194.203L202.466 436.632V433.579H189.203V437.079Z" fill="#706E6E"/>
<path d="M280.929 102.219L277.096 100.468L280.929 98.6834L280.037 97.1634L276.633 99.5426L276.963 95.4121H275.245L275.576 99.5426L272.172 97.1634L271.28 98.6834L275.113 100.468L271.28 102.219L272.172 103.772L275.576 101.36L275.245 105.49H276.963L276.633 101.36L280.037 103.772L280.929 102.219ZM295.127 102.219L291.294 100.468L295.127 98.6834L294.235 97.1634L290.831 99.5426L291.162 95.4121H289.444L289.774 99.5426L286.371 97.1634L285.478 98.6834L289.311 100.468L285.478 102.219L286.371 103.772L289.774 101.36L289.444 105.49H291.162L290.831 101.36L294.235 103.772L295.127 102.219ZM309.325 102.219L305.492 100.468L309.325 98.6834L308.433 97.1634L305.03 99.5426L305.36 95.4121H303.642L303.972 99.5426L300.569 97.1634L299.677 98.6834L303.51 100.468L299.677 102.219L300.569 103.772L303.972 101.36L303.642 105.49H305.36L305.03 101.36L308.433 103.772L309.325 102.219ZM323.524 102.219L319.691 100.468L323.524 98.6834L322.632 97.1634L319.228 99.5426L319.559 95.4121H317.84L318.171 99.5426L314.767 97.1634L313.875 98.6834L317.708 100.468L313.875 102.219L314.767 103.772L318.171 101.36L317.84 105.49H319.559L319.228 101.36L322.632 103.772L323.524 102.219Z" fill="#706E6E"/>
<path d="M356.069 105.49C356.069 104.103 355.738 103.001 355.077 102.186C354.439 101.349 353.524 100.622 352.335 100.005C353.238 99.4545 353.954 98.7826 354.483 97.9896C355.011 97.1965 355.276 96.1722 355.276 94.9165C355.276 94.0354 355.077 93.2093 354.681 92.4383C354.306 91.6452 353.756 90.9623 353.029 90.3896C352.324 89.8168 351.465 89.3652 350.451 89.0348C349.46 88.7043 348.359 88.5391 347.147 88.5391C345.913 88.5391 344.801 88.7043 343.81 89.0348C342.818 89.3652 341.959 89.8168 341.232 90.3896C340.527 90.9623 339.977 91.6452 339.58 92.4383C339.206 93.2093 339.018 94.0354 339.018 94.9165C339.018 96.1722 339.283 97.1965 339.811 97.9896C340.34 98.7826 341.056 99.4545 341.959 100.005C340.726 100.578 339.789 101.305 339.15 102.186C338.534 103.045 338.225 104.191 338.225 105.623C338.225 106.636 338.446 107.561 338.886 108.398C339.349 109.213 339.977 109.918 340.77 110.513C341.563 111.086 342.499 111.537 343.578 111.868C344.68 112.176 345.869 112.33 347.147 112.33C348.425 112.33 349.603 112.176 350.683 111.868C351.784 111.559 352.731 111.119 353.524 110.546C354.317 109.951 354.934 109.235 355.375 108.398C355.837 107.539 356.069 106.57 356.069 105.49ZM350.451 95.4783C350.451 96.3154 350.154 96.9983 349.559 97.527C348.964 98.0557 348.16 98.32 347.147 98.32C346.134 98.32 345.33 98.0557 344.735 97.527C344.14 96.9762 343.843 96.2823 343.843 95.4452C343.843 94.7183 344.129 94.0904 344.702 93.5617C345.275 93.011 346.09 92.7357 347.147 92.7357C348.204 92.7357 349.019 93.011 349.592 93.5617C350.165 94.1125 350.451 94.7513 350.451 95.4783ZM351.145 105.226C351.145 106.063 350.793 106.757 350.088 107.308C349.383 107.859 348.403 108.134 347.147 108.134C345.891 108.134 344.911 107.859 344.206 107.308C343.501 106.757 343.149 106.063 343.149 105.226C343.149 104.301 343.523 103.596 344.272 103.111C345.021 102.605 345.979 102.351 347.147 102.351C348.315 102.351 349.273 102.605 350.022 103.111C350.771 103.596 351.145 104.301 351.145 105.226ZM377.642 99.7409C377.642 98.5954 377.576 97.571 377.444 96.6678C377.312 95.7646 377.125 94.9606 376.882 94.2557C376.64 93.5507 376.354 92.9339 376.023 92.4052C375.693 91.8765 375.318 91.4029 374.9 90.9843C374.459 90.5438 374.007 90.1693 373.545 89.8609C373.082 89.5304 372.587 89.2661 372.058 89.0678C371.529 88.8696 370.945 88.7264 370.307 88.6383C369.69 88.5281 368.996 88.473 368.225 88.473C366.925 88.473 365.725 88.6823 364.623 89.1009C363.544 89.4974 362.618 90.0591 361.847 90.7861C361.076 91.513 360.471 92.3722 360.03 93.3635C359.612 94.3548 359.402 95.4342 359.402 96.6017C359.402 97.7913 359.589 98.8487 359.964 99.7739C360.36 100.699 360.922 101.481 361.649 102.12C362.376 102.759 363.246 103.254 364.26 103.607C365.273 103.937 366.407 104.103 367.663 104.103C368.676 104.103 369.569 103.959 370.34 103.673C371.111 103.387 371.783 103.001 372.355 102.517C372.179 104.081 371.705 105.347 370.934 106.317C370.185 107.286 369.095 107.77 367.663 107.77C366.672 107.77 365.791 107.616 365.02 107.308C364.249 106.977 363.445 106.471 362.607 105.788L359.931 109.654C360.922 110.469 362.013 111.13 363.202 111.637C364.392 112.143 365.835 112.397 367.531 112.397C369.183 112.397 370.637 112.088 371.893 111.471C373.148 110.854 374.195 109.995 375.032 108.894C375.891 107.792 376.541 106.471 376.981 104.929C377.422 103.365 377.642 101.635 377.642 99.7409ZM372.454 96.4035C372.454 97.4168 372.102 98.2539 371.397 98.9148C370.714 99.5536 369.745 99.873 368.489 99.873C367.234 99.873 366.242 99.5536 365.515 98.9148C364.81 98.2759 364.458 97.4278 364.458 96.3704C364.458 95.313 364.799 94.4649 365.482 93.8261C366.165 93.1652 367.134 92.8348 368.39 92.8348C369.668 92.8348 370.659 93.1652 371.364 93.8261C372.091 94.487 372.454 95.3461 372.454 96.4035ZM381.677 93.2643H392.548L382.206 112H387.955L398.331 92.7026V88.8696H381.677V93.2643ZM419.054 91.0174C418.547 90.6209 418.03 90.2684 417.501 89.96C416.972 89.6296 416.422 89.3542 415.849 89.1339C415.276 88.9136 414.659 88.7484 413.998 88.6383C413.337 88.5281 412.61 88.473 411.817 88.473C410.099 88.473 408.601 88.8035 407.324 89.4643C406.046 90.1032 404.988 90.9954 404.151 92.1409C403.314 93.2643 402.686 94.5971 402.268 96.1391C401.871 97.6812 401.673 99.3443 401.673 101.129C401.673 103.442 401.915 105.281 402.4 106.647C402.907 107.991 403.579 109.081 404.416 109.918C405.231 110.733 406.167 111.35 407.224 111.769C408.282 112.187 409.57 112.397 411.09 112.397C412.346 112.397 413.514 112.209 414.593 111.835C415.673 111.438 416.598 110.888 417.369 110.183C418.162 109.456 418.779 108.608 419.219 107.638C419.682 106.647 419.913 105.557 419.913 104.367C419.913 103.155 419.704 102.087 419.285 101.162C418.867 100.237 418.294 99.4655 417.567 98.8487C416.84 98.2319 415.981 97.7693 414.99 97.4609C413.998 97.1304 412.93 96.9652 411.784 96.9652C410.639 96.9652 409.692 97.1194 408.943 97.4278C408.216 97.7362 407.566 98.0777 406.993 98.4522C407.081 97.7032 407.235 96.9983 407.456 96.3374C407.676 95.6765 407.973 95.1148 408.348 94.6522C408.744 94.1675 409.207 93.793 409.736 93.5287C410.286 93.2423 410.925 93.0991 411.652 93.0991C412.137 93.0991 412.588 93.1432 413.007 93.2313C413.426 93.3194 413.822 93.4406 414.197 93.5948C414.571 93.749 414.935 93.9472 415.287 94.1896C415.639 94.4099 416.003 94.6632 416.377 94.9496L419.054 91.0174ZM414.857 104.598C414.857 105.612 414.505 106.438 413.8 107.077C413.117 107.715 412.148 108.035 410.892 108.035C409.637 108.035 408.645 107.715 407.918 107.077C407.213 106.416 406.861 105.579 406.861 104.565C406.861 103.574 407.202 102.77 407.885 102.153C408.59 101.514 409.57 101.195 410.826 101.195C412.082 101.195 413.062 101.514 413.767 102.153C414.494 102.792 414.857 103.607 414.857 104.598Z" fill="#706E6E"/>
<path d="M374.9 442.98C374.9 442.007 374.767 441.087 374.5 440.22C374.233 439.34 373.847 438.573 373.34 437.92C372.847 437.253 372.24 436.727 371.52 436.34C370.813 435.953 370.013 435.76 369.12 435.76C368.227 435.76 367.42 435.96 366.7 436.36C365.993 436.747 365.387 437.273 364.88 437.94C364.373 438.607 363.98 439.38 363.7 440.26C363.433 441.127 363.3 442.047 363.3 443.02C363.3 443.993 363.433 444.92 363.7 445.8C363.967 446.667 364.347 447.433 364.84 448.1C365.347 448.753 365.953 449.273 366.66 449.66C367.38 450.047 368.187 450.24 369.08 450.24C369.973 450.24 370.773 450.047 371.48 449.66C372.2 449.26 372.813 448.727 373.32 448.06C373.827 447.393 374.213 446.627 374.48 445.76C374.76 444.88 374.9 443.953 374.9 442.98ZM373.82 443.02C373.82 443.847 373.707 444.64 373.48 445.4C373.267 446.147 372.953 446.813 372.54 447.4C372.14 447.973 371.647 448.433 371.06 448.78C370.487 449.127 369.84 449.3 369.12 449.3C368.4 449.3 367.747 449.127 367.16 448.78C366.573 448.42 366.073 447.953 365.66 447.38C365.247 446.793 364.927 446.12 364.7 445.36C364.487 444.6 364.38 443.807 364.38 442.98C364.38 442.167 364.487 441.38 364.7 440.62C364.927 439.86 365.24 439.193 365.64 438.62C366.053 438.033 366.547 437.567 367.12 437.22C367.707 436.873 368.36 436.7 369.08 436.7C369.8 436.7 370.453 436.88 371.04 437.24C371.627 437.587 372.127 438.053 372.54 438.64C372.953 439.213 373.267 439.887 373.48 440.66C373.707 441.42 373.82 442.207 373.82 443.02ZM387.219 437.38C386.606 436.873 385.979 436.48 385.339 436.2C384.699 435.907 383.979 435.76 383.179 435.76C382.313 435.76 381.526 435.96 380.819 436.36C380.113 436.747 379.513 437.287 379.019 437.98C378.526 438.66 378.146 439.467 377.879 440.4C377.613 441.32 377.479 442.307 377.479 443.36C377.479 444.093 377.513 444.74 377.579 445.3C377.659 445.847 377.773 446.333 377.919 446.76C378.079 447.187 378.266 447.567 378.479 447.9C378.706 448.233 378.966 448.547 379.259 448.84C379.686 449.267 380.206 449.607 380.819 449.86C381.433 450.113 382.099 450.24 382.819 450.24C383.513 450.24 384.153 450.127 384.739 449.9C385.339 449.673 385.859 449.353 386.299 448.94C386.739 448.527 387.086 448.04 387.339 447.48C387.593 446.907 387.719 446.287 387.719 445.62C387.719 444.993 387.586 444.42 387.319 443.9C387.066 443.367 386.719 442.913 386.279 442.54C385.839 442.167 385.326 441.88 384.739 441.68C384.153 441.467 383.539 441.36 382.899 441.36C382.326 441.36 381.813 441.433 381.359 441.58C380.906 441.727 380.499 441.92 380.139 442.16C379.793 442.4 379.486 442.68 379.219 443C378.953 443.307 378.719 443.627 378.519 443.96C378.493 442.893 378.579 441.913 378.779 441.02C378.993 440.127 379.299 439.36 379.699 438.72C380.099 438.08 380.586 437.587 381.159 437.24C381.746 436.88 382.393 436.7 383.099 436.7C383.766 436.7 384.373 436.827 384.919 437.08C385.466 437.333 386.013 437.7 386.559 438.18L387.219 437.38ZM386.639 445.66C386.639 446.167 386.546 446.64 386.359 447.08C386.186 447.52 385.933 447.907 385.599 448.24C385.279 448.56 384.886 448.82 384.419 449.02C383.966 449.207 383.459 449.3 382.899 449.3C382.339 449.3 381.813 449.213 381.319 449.04C380.839 448.853 380.419 448.607 380.059 448.3C379.713 447.98 379.439 447.607 379.239 447.18C379.039 446.74 378.939 446.267 378.939 445.76C378.939 445.32 379.033 444.893 379.219 444.48C379.419 444.067 379.686 443.7 380.019 443.38C380.366 443.047 380.779 442.78 381.259 442.58C381.739 442.38 382.266 442.28 382.839 442.28C383.399 442.28 383.906 442.367 384.359 442.54C384.826 442.713 385.226 442.953 385.559 443.26C385.906 443.553 386.173 443.907 386.359 444.32C386.546 444.733 386.639 445.18 386.639 445.66ZM397.916 434.04L388.476 452.56H389.456L398.896 434.04H397.916ZM404.565 436.72C404.979 436.72 405.379 436.793 405.765 436.94C406.152 437.073 406.485 437.273 406.765 437.54C407.059 437.793 407.292 438.107 407.465 438.48C407.639 438.853 407.725 439.267 407.725 439.72C407.725 440.093 407.672 440.453 407.565 440.8C407.459 441.147 407.285 441.507 407.045 441.88C406.805 442.253 406.485 442.653 406.085 443.08C405.685 443.507 405.199 443.98 404.625 444.5L399.405 449.22V450H408.965V449H401.045L405.325 445.12C405.939 444.56 406.465 444.053 406.905 443.6C407.345 443.133 407.705 442.693 407.985 442.28C408.279 441.853 408.492 441.433 408.625 441.02C408.759 440.593 408.825 440.14 408.825 439.66C408.825 439.113 408.719 438.607 408.505 438.14C408.292 437.66 407.999 437.247 407.625 436.9C407.265 436.553 406.832 436.287 406.325 436.1C405.819 435.9 405.265 435.8 404.665 435.8C404.052 435.8 403.505 435.873 403.025 436.02C402.545 436.153 402.105 436.353 401.705 436.62C401.319 436.873 400.959 437.187 400.625 437.56C400.305 437.92 399.992 438.333 399.685 438.8L400.465 439.32C401.052 438.48 401.659 437.84 402.285 437.4C402.912 436.947 403.672 436.72 404.565 436.72ZM418.597 435.9L410.597 445.8L410.957 446.58H418.537V450H419.537V446.58H421.817V445.68H419.537V435.9H418.597ZM418.537 445.68H411.857L418.537 437.4V445.68Z" fill="#736D6D"/>
<circle cx="103" cy="107" r="21" fill="#EB001B"/>
<circle cx="127" cy="107" r="21" fill="#F79E1B" fill-opacity="0.83"/>
</svg>
