<svg width="49" height="53" viewBox="0 0 49 53" fill="none" xmlns="http://www.w3.org/2000/svg">
<path fill-rule="evenodd" clip-rule="evenodd" d="M5.88198 26.8065C5.88198 15.4549 14.2824 6.25255 24.6449 6.25255C35.0074 6.25255 43.4078 15.4549 43.4078 26.8065C43.4078 26.902 43.4136 26.996 43.4247 27.0882C43.4164 27.177 43.4131 27.2674 43.4151 27.359C43.4309 28.0807 43.3465 29.2005 43.1302 30.2706C42.8944 31.4365 42.5874 32.1064 42.4078 32.3129C41.6264 33.211 40.5514 33.7323 39.4193 33.7622C38.2871 33.792 37.1904 33.328 36.3706 32.4721C35.8345 31.9124 35.6808 31.0912 35.6389 29.1827L35.34 15.5799C35.3142 14.4059 34.4246 13.4771 33.3529 13.5054C32.2812 13.5336 31.4334 14.5082 31.4592 15.6822L31.5023 17.6458C29.6361 15.9674 27.2479 14.9599 24.6449 14.9599C18.6724 14.9599 13.8308 20.2637 13.8308 26.8063C13.8308 33.3489 18.6724 38.6527 24.6449 38.6527C27.943 38.6527 30.8963 37.0353 32.8799 34.485C33.1023 34.8558 33.37 35.2139 33.6924 35.5506C35.2576 37.1846 37.3512 38.0705 39.5126 38.0135C41.6741 37.9565 43.7264 36.9613 45.218 35.2467C46.1748 34.1469 46.6589 32.4828 46.9203 31.1903C47.201 29.8021 47.3197 28.3391 47.2959 27.2567C47.2942 27.1788 47.2887 27.1019 47.2796 27.0263C47.2863 26.954 47.2898 26.8807 47.2898 26.8065C47.2898 13.1063 37.1513 2 24.6449 2C12.1385 2 2 13.1063 2 26.8065C2 40.5068 12.1385 51.6131 24.6449 51.6131C29.9322 51.6131 34.8011 49.6254 38.6553 46.2964C39.4971 45.5694 39.6414 44.2324 38.9777 43.3103C38.314 42.3881 37.0935 42.23 36.2517 42.9571C33.0579 45.7157 29.0294 47.3605 24.6449 47.3605C14.2824 47.3605 5.88198 38.1582 5.88198 26.8065ZM24.6449 19.2125C20.8164 19.2125 17.7127 22.6124 17.7127 26.8063C17.7127 31.0003 20.8164 34.4002 24.6449 34.4002C28.4734 34.4002 31.577 31.0003 31.577 26.8063C31.577 22.6124 28.4734 19.2125 24.6449 19.2125Z" fill="#222222" stroke="black" stroke-width="2.15709" stroke-linecap="round"/>
</svg>
