<svg width="48" height="64" viewBox="0 0 48 64" fill="none" xmlns="http://www.w3.org/2000/svg">
<path d="M19.2354 44.8727C19.2354 42.2845 21.2684 40.1864 23.7763 40.1864C26.2842 40.1864 28.3172 42.2845 28.3172 44.8727C28.3172 47.4608 26.2842 49.559 23.7763 49.559C21.2684 49.559 19.2354 47.4608 19.2354 44.8727Z" fill="#222222"/>
<path fill-rule="evenodd" clip-rule="evenodd" d="M10.5218 27.9931L9.5669 19.1235C9.44447 17.9864 9.44447 16.8387 9.5669 15.7016L9.63582 15.0615C10.3669 8.27136 15.5393 2.8988 22.1139 2.10055C23.2183 1.96646 24.3342 1.96646 25.4386 2.10055C32.0132 2.8988 37.1856 8.27136 37.9167 15.0615L37.9856 15.7016C38.108 16.8387 38.108 17.9864 37.9856 19.1235L37.0307 27.993L39.1092 28.1643C42.3869 28.4343 45.0634 30.9771 45.5947 34.3259C46.7029 41.3106 46.7029 48.4347 45.5947 55.4194C45.0634 58.7682 42.3869 61.311 39.1092 61.581L34.58 61.9542C27.389 62.5466 20.1638 62.5466 12.9728 61.9542L8.4436 61.581C5.16588 61.311 2.48944 58.7682 1.9581 55.4194C0.849902 48.4347 0.849902 41.3106 1.9581 34.3259C2.48944 30.9771 5.16587 28.4343 8.4436 28.1643L10.5218 27.9931ZM22.6445 6.75476C23.3964 6.66346 24.1561 6.66346 24.908 6.75476C29.3843 7.29823 32.9058 10.9561 33.4035 15.579L33.4725 16.2191C33.5578 17.0123 33.5578 17.8128 33.4725 18.606L32.5002 27.6364C26.6903 27.2503 20.8622 27.2503 15.0523 27.6364L14.08 18.606C13.9946 17.8128 13.9946 17.0123 14.08 16.2191L14.149 15.579C14.6467 10.956 18.1682 7.29823 22.6445 6.75476ZM34.2186 32.4626C27.2682 31.8899 20.2846 31.8899 13.3342 32.4626L8.80496 32.8357C7.6094 32.9342 6.63316 33.8617 6.43935 35.0832C5.41072 41.5663 5.41072 48.179 6.43935 54.6621C6.63316 55.8836 7.6094 56.8111 8.80496 56.9096L13.3342 57.2827C20.2846 57.8554 27.2682 57.8554 34.2186 57.2827L38.7478 56.9096C39.9434 56.8111 40.9196 55.8836 41.1134 54.6621C42.1421 48.179 42.1421 41.5663 41.1134 35.0832C40.9196 33.8617 39.9434 32.9342 38.7478 32.8357L34.2186 32.4626Z" fill="#222222"/>
<path d="M19.2354 44.8727C19.2354 42.2845 21.2684 40.1864 23.7763 40.1864C26.2842 40.1864 28.3172 42.2845 28.3172 44.8727C28.3172 47.4608 26.2842 49.559 23.7763 49.559C21.2684 49.559 19.2354 47.4608 19.2354 44.8727Z" stroke="black" stroke-width="2.15709"/>
<path fill-rule="evenodd" clip-rule="evenodd" d="M10.5218 27.9931L9.5669 19.1235C9.44447 17.9864 9.44447 16.8387 9.5669 15.7016L9.63582 15.0615C10.3669 8.27136 15.5393 2.8988 22.1139 2.10055C23.2183 1.96646 24.3342 1.96646 25.4386 2.10055C32.0132 2.8988 37.1856 8.27136 37.9167 15.0615L37.9856 15.7016C38.108 16.8387 38.108 17.9864 37.9856 19.1235L37.0307 27.993L39.1092 28.1643C42.3869 28.4343 45.0634 30.9771 45.5947 34.3259C46.7029 41.3106 46.7029 48.4347 45.5947 55.4194C45.0634 58.7682 42.3869 61.311 39.1092 61.581L34.58 61.9542C27.389 62.5466 20.1638 62.5466 12.9728 61.9542L8.4436 61.581C5.16588 61.311 2.48944 58.7682 1.9581 55.4194C0.849902 48.4347 0.849902 41.3106 1.9581 34.3259C2.48944 30.9771 5.16587 28.4343 8.4436 28.1643L10.5218 27.9931ZM22.6445 6.75476C23.3964 6.66346 24.1561 6.66346 24.908 6.75476C29.3843 7.29823 32.9058 10.9561 33.4035 15.579L33.4725 16.2191C33.5578 17.0123 33.5578 17.8128 33.4725 18.606L32.5002 27.6364C26.6903 27.2503 20.8622 27.2503 15.0523 27.6364L14.08 18.606C13.9946 17.8128 13.9946 17.0123 14.08 16.2191L14.149 15.579C14.6467 10.956 18.1682 7.29823 22.6445 6.75476ZM34.2186 32.4626C27.2682 31.8899 20.2846 31.8899 13.3342 32.4626L8.80496 32.8357C7.6094 32.9342 6.63316 33.8617 6.43935 35.0832C5.41072 41.5663 5.41072 48.179 6.43935 54.6621C6.63316 55.8836 7.6094 56.8111 8.80496 56.9096L13.3342 57.2827C20.2846 57.8554 27.2682 57.8554 34.2186 57.2827L38.7478 56.9096C39.9434 56.8111 40.9196 55.8836 41.1134 54.6621C42.1421 48.179 42.1421 41.5663 41.1134 35.0832C40.9196 33.8617 39.9434 32.9342 38.7478 32.8357L34.2186 32.4626Z" stroke="black" stroke-width="2.15709"/>
</svg>
