<svg width="608" height="564" viewBox="0 0 608 564" fill="none" xmlns="http://www.w3.org/2000/svg">
<rect x="1" width="605" height="564" rx="15" fill="white"/>
<g filter="url(#filter0_d_107_92)">
<rect x="35" y="102" width="417" height="153" rx="20" fill="white"/>
<path d="M78.28 144.46H82.98V143H71.98V144.46H76.68V157H78.28V144.46ZM93.2897 151.82C93.2897 151.087 93.1564 150.393 92.8897 149.74C92.623 149.087 92.2497 148.52 91.7697 148.04C91.2897 147.547 90.7164 147.16 90.0497 146.88C89.3964 146.587 88.683 146.44 87.9097 146.44C87.123 146.44 86.3964 146.587 85.7297 146.88C85.0764 147.16 84.5097 147.547 84.0297 148.04C83.5497 148.533 83.1764 149.113 82.9097 149.78C82.643 150.433 82.5097 151.127 82.5097 151.86C82.5097 152.593 82.643 153.287 82.9097 153.94C83.1764 154.593 83.5497 155.167 84.0297 155.66C84.5097 156.14 85.0764 156.527 85.7297 156.82C86.383 157.1 87.0964 157.24 87.8697 157.24C88.643 157.24 89.363 157.1 90.0297 156.82C90.6964 156.527 91.2697 156.133 91.7497 155.64C92.2297 155.147 92.603 154.573 92.8697 153.92C93.1497 153.253 93.2897 152.553 93.2897 151.82ZM91.7097 151.86C91.7097 152.42 91.6164 152.947 91.4297 153.44C91.243 153.92 90.983 154.34 90.6497 154.7C90.3164 155.06 89.9164 155.347 89.4497 155.56C88.983 155.76 88.4697 155.86 87.9097 155.86C87.363 155.86 86.8564 155.753 86.3897 155.54C85.923 155.327 85.5164 155.04 85.1697 154.68C84.8364 154.32 84.5697 153.893 84.3697 153.4C84.183 152.907 84.0897 152.38 84.0897 151.82C84.0897 151.26 84.183 150.74 84.3697 150.26C84.5564 149.767 84.8097 149.34 85.1297 148.98C85.463 148.607 85.863 148.32 86.3297 148.12C86.7964 147.907 87.3097 147.8 87.8697 147.8C88.4164 147.8 88.923 147.907 89.3897 148.12C89.8564 148.333 90.263 148.627 90.6097 149C90.9564 149.36 91.223 149.787 91.4097 150.28C91.6097 150.773 91.7097 151.3 91.7097 151.86ZM98.1594 148.02H101.439V146.66H98.1594V143.54H96.6194V146.66H95.1794V148.02H96.6194V154.26C96.6194 154.78 96.6927 155.227 96.8394 155.6C96.986 155.973 97.186 156.28 97.4394 156.52C97.706 156.747 98.0194 156.913 98.3794 157.02C98.7394 157.127 99.126 157.18 99.5394 157.18C99.9127 157.18 100.246 157.14 100.539 157.06C100.846 156.993 101.133 156.887 101.399 156.74V155.42C101.133 155.553 100.879 155.647 100.639 155.7C100.413 155.753 100.166 155.78 99.8994 155.78C99.3794 155.78 98.9594 155.653 98.6394 155.4C98.3194 155.147 98.1594 154.7 98.1594 154.06V148.02ZM107.905 147.88C108.879 147.88 109.632 148.12 110.165 148.6C110.712 149.067 110.985 149.767 110.985 150.7V151.06C110.519 150.927 110.039 150.82 109.545 150.74C109.052 150.66 108.472 150.62 107.805 150.62C107.152 150.62 106.552 150.693 106.005 150.84C105.472 150.987 105.005 151.2 104.605 151.48C104.219 151.76 103.919 152.113 103.705 152.54C103.492 152.953 103.385 153.433 103.385 153.98C103.385 154.527 103.492 155 103.705 155.4C103.932 155.8 104.225 156.14 104.585 156.42C104.959 156.687 105.372 156.887 105.825 157.02C106.292 157.153 106.765 157.22 107.245 157.22C108.165 157.22 108.925 157.04 109.525 156.68C110.139 156.32 110.625 155.907 110.985 155.44V157H112.465V150.68C112.465 149.307 112.085 148.273 111.325 147.58C110.565 146.873 109.479 146.52 108.065 146.52C107.305 146.52 106.632 146.6 106.045 146.76C105.459 146.907 104.879 147.113 104.305 147.38L104.765 148.64C105.245 148.413 105.732 148.233 106.225 148.1C106.732 147.953 107.292 147.88 107.905 147.88ZM107.965 151.76C108.605 151.76 109.172 151.807 109.665 151.9C110.172 151.993 110.619 152.093 111.005 152.2V153.2C111.005 153.613 110.912 153.993 110.725 154.34C110.552 154.673 110.305 154.967 109.985 155.22C109.679 155.46 109.312 155.653 108.885 155.8C108.472 155.933 108.025 156 107.545 156C107.199 156 106.865 155.953 106.545 155.86C106.239 155.767 105.965 155.633 105.725 155.46C105.485 155.273 105.292 155.053 105.145 154.8C105.012 154.547 104.945 154.253 104.945 153.92C104.945 153.253 105.205 152.727 105.725 152.34C106.245 151.953 106.992 151.76 107.965 151.76ZM117.427 157V142.4H115.887V157H117.427ZM138.837 157L134.537 151.28C135.084 151.187 135.591 151.027 136.057 150.8C136.524 150.573 136.924 150.293 137.257 149.96C137.604 149.613 137.871 149.213 138.057 148.76C138.244 148.293 138.337 147.767 138.337 147.18C138.337 146.553 138.217 145.987 137.977 145.48C137.737 144.96 137.397 144.52 136.957 144.16C136.517 143.787 135.984 143.5 135.357 143.3C134.744 143.1 134.051 143 133.277 143H127.257V157H128.837V151.56H132.837L136.897 157H138.837ZM136.737 147.24C136.737 147.693 136.644 148.1 136.457 148.46C136.284 148.82 136.037 149.127 135.717 149.38C135.397 149.62 135.017 149.807 134.577 149.94C134.137 150.073 133.657 150.14 133.137 150.14H128.837V144.46H133.157C134.291 144.46 135.171 144.707 135.797 145.2C136.424 145.68 136.737 146.36 136.737 147.24ZM142.175 152.4H150.375C150.388 152.307 150.395 152.22 150.395 152.14C150.395 152.06 150.395 151.987 150.395 151.92C150.395 151.16 150.288 150.447 150.075 149.78C149.862 149.113 149.548 148.533 149.135 148.04C148.722 147.547 148.215 147.16 147.615 146.88C147.015 146.587 146.335 146.44 145.575 146.44C144.855 146.44 144.188 146.58 143.575 146.86C142.975 147.14 142.455 147.527 142.015 148.02C141.575 148.5 141.228 149.073 140.975 149.74C140.735 150.393 140.615 151.093 140.615 151.84C140.615 152.64 140.748 153.373 141.015 154.04C141.295 154.707 141.668 155.28 142.135 155.76C142.602 156.227 143.148 156.593 143.775 156.86C144.402 157.113 145.068 157.24 145.775 157.24C146.762 157.24 147.588 157.067 148.255 156.72C148.922 156.36 149.515 155.887 150.035 155.3L149.075 154.44C148.648 154.88 148.175 155.233 147.655 155.5C147.148 155.767 146.535 155.9 145.815 155.9C145.362 155.9 144.928 155.827 144.515 155.68C144.102 155.52 143.728 155.293 143.395 155C143.062 154.693 142.788 154.327 142.575 153.9C142.362 153.46 142.228 152.96 142.175 152.4ZM142.175 151.26C142.228 150.753 142.348 150.287 142.535 149.86C142.722 149.433 142.962 149.067 143.255 148.76C143.548 148.44 143.888 148.193 144.275 148.02C144.662 147.833 145.082 147.74 145.535 147.74C146.055 147.74 146.508 147.84 146.895 148.04C147.295 148.227 147.628 148.48 147.895 148.8C148.175 149.12 148.388 149.493 148.535 149.92C148.695 150.347 148.795 150.793 148.835 151.26H142.175ZM161.971 155.24L160.991 154.32C160.578 154.76 160.111 155.127 159.591 155.42C159.084 155.713 158.498 155.86 157.831 155.86C157.284 155.86 156.778 155.76 156.311 155.56C155.858 155.347 155.458 155.06 155.111 154.7C154.778 154.327 154.511 153.893 154.311 153.4C154.124 152.907 154.031 152.38 154.031 151.82C154.031 151.26 154.124 150.74 154.311 150.26C154.498 149.767 154.758 149.34 155.091 148.98C155.424 148.607 155.818 148.32 156.271 148.12C156.724 147.907 157.211 147.8 157.731 147.8C158.438 147.8 159.031 147.953 159.511 148.26C160.004 148.567 160.458 148.933 160.871 149.36L161.891 148.28C161.651 148.027 161.391 147.787 161.111 147.56C160.831 147.333 160.524 147.14 160.191 146.98C159.858 146.807 159.491 146.673 159.091 146.58C158.691 146.487 158.244 146.44 157.751 146.44C156.991 146.44 156.284 146.587 155.631 146.88C154.991 147.16 154.431 147.547 153.951 148.04C153.484 148.533 153.118 149.113 152.851 149.78C152.584 150.433 152.451 151.127 152.451 151.86C152.451 152.593 152.584 153.287 152.851 153.94C153.118 154.593 153.484 155.167 153.951 155.66C154.431 156.14 154.991 156.527 155.631 156.82C156.284 157.1 156.991 157.24 157.751 157.24C158.724 157.24 159.538 157.053 160.191 156.68C160.858 156.307 161.451 155.827 161.971 155.24ZM165.144 152.4H173.344C173.357 152.307 173.364 152.22 173.364 152.14C173.364 152.06 173.364 151.987 173.364 151.92C173.364 151.16 173.257 150.447 173.044 149.78C172.831 149.113 172.517 148.533 172.104 148.04C171.691 147.547 171.184 147.16 170.584 146.88C169.984 146.587 169.304 146.44 168.544 146.44C167.824 146.44 167.157 146.58 166.544 146.86C165.944 147.14 165.424 147.527 164.984 148.02C164.544 148.5 164.197 149.073 163.944 149.74C163.704 150.393 163.584 151.093 163.584 151.84C163.584 152.64 163.717 153.373 163.984 154.04C164.264 154.707 164.637 155.28 165.104 155.76C165.571 156.227 166.117 156.593 166.744 156.86C167.371 157.113 168.037 157.24 168.744 157.24C169.731 157.24 170.557 157.067 171.224 156.72C171.891 156.36 172.484 155.887 173.004 155.3L172.044 154.44C171.617 154.88 171.144 155.233 170.624 155.5C170.117 155.767 169.504 155.9 168.784 155.9C168.331 155.9 167.897 155.827 167.484 155.68C167.071 155.52 166.697 155.293 166.364 155C166.031 154.693 165.757 154.327 165.544 153.9C165.331 153.46 165.197 152.96 165.144 152.4ZM165.144 151.26C165.197 150.753 165.317 150.287 165.504 149.86C165.691 149.433 165.931 149.067 166.224 148.76C166.517 148.44 166.857 148.193 167.244 148.02C167.631 147.833 168.051 147.74 168.504 147.74C169.024 147.74 169.477 147.84 169.864 148.04C170.264 148.227 170.597 148.48 170.864 148.8C171.144 149.12 171.357 149.493 171.504 149.92C171.664 150.347 171.764 150.793 171.804 151.26H165.144ZM177.86 144.4V142.7H176.1V144.4H177.86ZM177.74 157V146.66H176.2V157H177.74ZM185.474 155.24L181.994 146.66H180.294L184.774 157.08H186.134L190.634 146.66H188.974L185.474 155.24ZM193.367 152.4H201.567C201.58 152.307 201.587 152.22 201.587 152.14C201.587 152.06 201.587 151.987 201.587 151.92C201.587 151.16 201.48 150.447 201.267 149.78C201.053 149.113 200.74 148.533 200.327 148.04C199.913 147.547 199.407 147.16 198.807 146.88C198.207 146.587 197.527 146.44 196.767 146.44C196.047 146.44 195.38 146.58 194.767 146.86C194.167 147.14 193.647 147.527 193.207 148.02C192.767 148.5 192.42 149.073 192.167 149.74C191.927 150.393 191.807 151.093 191.807 151.84C191.807 152.64 191.94 153.373 192.207 154.04C192.487 154.707 192.86 155.28 193.327 155.76C193.793 156.227 194.34 156.593 194.967 156.86C195.593 157.113 196.26 157.24 196.967 157.24C197.953 157.24 198.78 157.067 199.447 156.72C200.113 156.36 200.707 155.887 201.227 155.3L200.267 154.44C199.84 154.88 199.367 155.233 198.847 155.5C198.34 155.767 197.727 155.9 197.007 155.9C196.553 155.9 196.12 155.827 195.707 155.68C195.293 155.52 194.92 155.293 194.587 155C194.253 154.693 193.98 154.327 193.767 153.9C193.553 153.46 193.42 152.96 193.367 152.4ZM193.367 151.26C193.42 150.753 193.54 150.287 193.727 149.86C193.913 149.433 194.153 149.067 194.447 148.76C194.74 148.44 195.08 148.193 195.467 148.02C195.853 147.833 196.273 147.74 196.727 147.74C197.247 147.74 197.7 147.84 198.087 148.04C198.487 148.227 198.82 148.48 199.087 148.8C199.367 149.12 199.58 149.493 199.727 149.92C199.887 150.347 199.987 150.793 200.027 151.26H193.367ZM214.123 157V142.4H212.583V148.64C212.383 148.347 212.149 148.067 211.883 147.8C211.629 147.533 211.343 147.3 211.023 147.1C210.703 146.9 210.343 146.74 209.943 146.62C209.543 146.5 209.103 146.44 208.623 146.44C207.996 146.44 207.389 146.567 206.803 146.82C206.216 147.06 205.689 147.413 205.223 147.88C204.756 148.333 204.383 148.893 204.103 149.56C203.823 150.227 203.683 150.987 203.683 151.84C203.683 152.693 203.823 153.453 204.103 154.12C204.383 154.787 204.756 155.353 205.223 155.82C205.689 156.273 206.216 156.62 206.803 156.86C207.389 157.1 207.996 157.22 208.623 157.22C209.103 157.22 209.536 157.16 209.923 157.04C210.323 156.92 210.683 156.753 211.003 156.54C211.323 156.327 211.609 156.08 211.863 155.8C212.129 155.52 212.369 155.227 212.583 154.92V157H214.123ZM212.643 151.82C212.643 152.42 212.536 152.973 212.323 153.48C212.123 153.973 211.843 154.393 211.483 154.74C211.136 155.087 210.736 155.36 210.283 155.56C209.843 155.747 209.383 155.84 208.903 155.84C208.409 155.84 207.943 155.747 207.503 155.56C207.063 155.373 206.676 155.107 206.343 154.76C206.009 154.4 205.743 153.973 205.543 153.48C205.356 152.987 205.263 152.433 205.263 151.82C205.263 151.193 205.356 150.633 205.543 150.14C205.743 149.633 206.003 149.213 206.323 148.88C206.656 148.533 207.043 148.273 207.483 148.1C207.923 147.913 208.396 147.82 208.903 147.82C209.383 147.82 209.843 147.92 210.283 148.12C210.736 148.307 211.136 148.573 211.483 148.92C211.843 149.267 212.123 149.687 212.323 150.18C212.536 150.673 212.643 151.22 212.643 151.82Z" fill="#706E6E"/>
<path d="M75.321 189.226L79.5264 192.013C80.314 191.667 81.1645 191.383 82.078 191.163C83.0231 190.911 84.0153 190.785 85.0549 190.785C86.8504 190.785 88.268 191.179 89.3075 191.966C90.3786 192.754 90.9141 193.872 90.9141 195.321C90.9141 196.833 90.4101 197.983 89.402 198.77C88.4255 199.558 87.0867 199.952 85.3856 199.952C83.9051 199.952 82.5348 199.637 81.2747 199.007C80.0147 198.377 78.7546 197.495 77.4946 196.361L73.1002 201.606C74.7067 203.149 76.5023 204.362 78.4869 205.244C80.4715 206.126 82.8025 206.567 85.4801 206.567C87.3702 206.567 89.087 206.299 90.6306 205.764C92.2056 205.228 93.5287 204.472 94.5997 203.496C95.7023 202.488 96.5528 201.275 97.1513 199.857C97.7498 198.44 98.0491 196.849 98.0491 195.085C98.0491 193.195 97.7498 191.588 97.1513 190.265C96.5528 188.911 95.7338 187.808 94.6942 186.958C93.6547 186.107 92.4261 185.477 91.0086 185.067C89.6225 184.658 88.1105 184.453 86.4724 184.453C85.5589 184.453 84.7714 184.516 84.1098 184.642C83.4483 184.737 82.7868 184.863 82.1253 185.02L82.5033 179.303H96.5843V172.924H76.2661L75.321 189.226ZM104.045 179.208H119.59L104.801 206H113.022L127.859 178.405V172.924H104.045V179.208ZM131.315 210.678L131.93 213.655C134.733 213.623 136.891 212.915 138.403 211.528C139.915 210.174 140.671 207.937 140.671 204.819V198.44H133.017V206H135.946C136.198 208.772 134.655 210.331 131.315 210.678ZM171.013 175.995C170.289 175.428 169.548 174.924 168.792 174.483C168.036 174.011 167.249 173.617 166.43 173.302C165.611 172.987 164.729 172.751 163.784 172.593C162.839 172.436 161.799 172.357 160.665 172.357C158.208 172.357 156.066 172.829 154.239 173.774C152.412 174.688 150.9 175.964 149.703 177.602C148.506 179.208 147.608 181.114 147.009 183.319C146.442 185.524 146.159 187.903 146.159 190.454C146.159 193.762 146.505 196.392 147.198 198.345C147.923 200.267 148.884 201.826 150.081 203.023C151.246 204.189 152.585 205.071 154.097 205.669C155.609 206.268 157.452 206.567 159.626 206.567C161.421 206.567 163.091 206.299 164.634 205.764C166.178 205.197 167.501 204.409 168.603 203.401C169.737 202.362 170.619 201.149 171.249 199.763C171.911 198.345 172.242 196.786 172.242 195.085C172.242 193.352 171.942 191.824 171.344 190.501C170.745 189.178 169.926 188.076 168.887 187.194C167.847 186.312 166.619 185.65 165.201 185.209C163.784 184.737 162.256 184.5 160.618 184.5C158.98 184.5 157.625 184.721 156.554 185.162C155.515 185.603 154.585 186.091 153.766 186.627C153.892 185.556 154.113 184.548 154.428 183.603C154.743 182.658 155.168 181.854 155.704 181.193C156.271 180.5 156.932 179.964 157.688 179.586C158.476 179.177 159.389 178.972 160.429 178.972C161.122 178.972 161.768 179.035 162.366 179.161C162.965 179.287 163.532 179.46 164.067 179.681C164.603 179.901 165.122 180.185 165.626 180.531C166.131 180.846 166.65 181.209 167.186 181.618L171.013 175.995ZM165.012 195.416C165.012 196.865 164.508 198.046 163.5 198.959C162.524 199.873 161.138 200.33 159.342 200.33C157.546 200.33 156.129 199.873 155.089 198.959C154.081 198.014 153.577 196.817 153.577 195.368C153.577 193.951 154.066 192.801 155.042 191.919C156.05 191.005 157.452 190.549 159.248 190.549C161.043 190.549 162.445 191.005 163.453 191.919C164.492 192.833 165.012 193.998 165.012 195.416ZM189.494 178.972C190.817 178.972 191.888 179.334 192.707 180.059C193.526 180.783 193.935 181.854 193.935 183.272C193.935 183.965 193.825 184.611 193.605 185.209C193.416 185.776 193.085 186.375 192.612 187.005C192.171 187.603 191.589 188.249 190.864 188.942C190.14 189.604 189.258 190.36 188.218 191.21L177.208 200.235V206H201.685V199.716H187.273L192.66 195.557C194.109 194.423 195.385 193.384 196.487 192.439C197.59 191.462 198.487 190.486 199.18 189.509C199.905 188.533 200.44 187.509 200.787 186.438C201.165 185.335 201.354 184.091 201.354 182.705C201.354 181.161 201.086 179.76 200.551 178.499C200.047 177.239 199.291 176.168 198.283 175.286C197.306 174.373 196.109 173.68 194.691 173.207C193.305 172.703 191.73 172.451 189.966 172.451C188.486 172.451 187.163 172.609 185.997 172.924C184.832 173.207 183.761 173.648 182.784 174.247C181.839 174.814 180.941 175.523 180.091 176.373C179.272 177.224 178.453 178.2 177.634 179.303L182.737 183.414C183.965 181.902 185.068 180.783 186.044 180.059C187.052 179.334 188.202 178.972 189.494 178.972ZM221.06 179.161L213.169 187.099L214.303 191.73H217.327C219.406 191.73 220.997 192.092 222.1 192.817C223.234 193.541 223.801 194.597 223.801 195.983C223.801 197.243 223.36 198.235 222.478 198.959C221.627 199.684 220.509 200.046 219.123 200.046C217.422 200.046 215.941 199.716 214.681 199.054C213.453 198.361 212.271 197.369 211.137 196.077L206.129 200.85C207.546 202.551 209.294 203.937 211.374 205.008C213.484 206.047 216.036 206.567 219.028 206.567C220.855 206.567 222.509 206.299 223.99 205.764C225.47 205.228 226.715 204.472 227.723 203.496C228.762 202.519 229.55 201.369 230.085 200.046C230.652 198.723 230.936 197.274 230.936 195.699C230.936 194.156 230.684 192.848 230.18 191.777C229.676 190.675 229.014 189.761 228.195 189.037C227.376 188.281 226.431 187.698 225.36 187.288C224.289 186.879 223.187 186.58 222.052 186.391L230.416 178.405V172.924H208.066V179.161H221.06ZM244.265 206V198.44H236.61V206H244.265Z" fill="black"/>
<path d="M69.7411 192.862C69.7411 191.55 69.3007 190.496 68.4199 189.702C67.539 188.89 66.1141 188.259 64.1452 187.81V181.437C64.836 181.558 65.501 181.765 66.14 182.059C66.7963 182.353 67.4354 182.767 68.0572 183.303L69.1712 181.748C68.4112 181.161 67.6426 180.695 66.8654 180.349C66.0882 179.986 65.2074 179.762 64.2229 179.676V178.121H62.5649V179.624C61.7704 179.658 61.0363 179.805 60.3628 180.064C59.7064 180.323 59.1365 180.669 58.6529 181.1C58.1693 181.515 57.7893 182.007 57.513 182.577C57.2539 183.13 57.1244 183.743 57.1244 184.417C57.1244 185.781 57.5648 186.852 58.4456 187.629C59.3265 188.406 60.7255 189.019 62.6426 189.468V195.945C61.6581 195.842 60.7686 195.582 59.9742 195.168C59.1797 194.753 58.3938 194.192 57.6166 193.484L56.4508 195.038C57.3662 195.816 58.3247 196.429 59.3265 196.878C60.3282 197.327 61.4077 197.603 62.5649 197.707V200.298H64.2229V197.759C65.0347 197.707 65.7773 197.56 66.4509 197.318C67.1418 197.059 67.729 196.714 68.2126 196.282C68.6962 195.85 69.0675 195.349 69.3266 194.779C69.6029 194.209 69.7411 193.57 69.7411 192.862ZM62.6426 187.448C61.9345 187.275 61.3472 187.085 60.8809 186.878C60.4318 186.653 60.0778 186.411 59.8187 186.152C59.5596 185.893 59.3783 185.608 59.2747 185.297C59.171 184.986 59.1192 184.65 59.1192 184.287C59.1192 183.89 59.1969 183.518 59.3524 183.173C59.5251 182.828 59.7583 182.525 60.0519 182.266C60.3628 182.007 60.7341 181.8 61.1659 181.644C61.5977 181.472 62.0899 181.377 62.6426 181.36V187.448ZM67.7463 192.992C67.7463 193.855 67.4181 194.563 66.7618 195.116C66.1228 195.669 65.2506 195.971 64.1452 196.023V189.831C64.8706 190.004 65.4578 190.194 65.9069 190.401C66.3732 190.608 66.7445 190.841 67.0209 191.101C67.2972 191.36 67.4872 191.645 67.5908 191.955C67.6945 192.266 67.7463 192.612 67.7463 192.992Z" fill="#706E6E"/>
<path d="M261.677 199.188C261.677 198.27 261.547 197.407 261.286 196.6C261.038 195.781 260.671 195.067 260.187 194.459C259.716 193.838 259.138 193.354 258.456 193.006C257.785 192.646 257.034 192.466 256.202 192.466C255.358 192.466 254.595 192.646 253.912 193.006C253.229 193.366 252.646 193.857 252.162 194.477C251.69 195.086 251.324 195.799 251.063 196.619C250.802 197.438 250.672 198.307 250.672 199.226C250.672 200.144 250.796 201.013 251.044 201.832C251.305 202.639 251.671 203.353 252.143 203.974C252.627 204.582 253.204 205.066 253.875 205.426C254.558 205.774 255.321 205.948 256.165 205.948C256.997 205.948 257.754 205.768 258.437 205.408C259.12 205.048 259.697 204.563 260.169 203.955C260.653 203.334 261.025 202.614 261.286 201.795C261.547 200.976 261.677 200.107 261.677 199.188ZM260.15 199.226C260.15 199.946 260.057 200.634 259.871 201.292C259.697 201.938 259.436 202.509 259.089 203.006C258.753 203.49 258.338 203.881 257.841 204.179C257.357 204.464 256.811 204.607 256.202 204.607C255.594 204.607 255.042 204.464 254.545 204.179C254.049 203.881 253.627 203.483 253.279 202.987C252.931 202.49 252.664 201.913 252.478 201.255C252.292 200.597 252.199 199.908 252.199 199.188C252.199 198.468 252.292 197.786 252.478 197.14C252.664 196.482 252.925 195.911 253.26 195.427C253.608 194.93 254.024 194.539 254.508 194.254C255.004 193.956 255.557 193.807 256.165 193.807C256.773 193.807 257.32 193.956 257.804 194.254C258.3 194.552 258.722 194.949 259.07 195.445C259.418 195.942 259.684 196.519 259.871 197.177C260.057 197.823 260.15 198.506 260.15 199.226ZM274.988 199.188C274.988 198.27 274.857 197.407 274.597 196.6C274.348 195.781 273.982 195.067 273.498 194.459C273.026 193.838 272.449 193.354 271.766 193.006C271.096 192.646 270.345 192.466 269.513 192.466C268.669 192.466 267.906 192.646 267.223 193.006C266.54 193.366 265.957 193.857 265.473 194.477C265.001 195.086 264.635 195.799 264.374 196.619C264.113 197.438 263.983 198.307 263.983 199.226C263.983 200.144 264.107 201.013 264.355 201.832C264.616 202.639 264.982 203.353 265.454 203.974C265.938 204.582 266.515 205.066 267.186 205.426C267.868 205.774 268.632 205.948 269.476 205.948C270.308 205.948 271.065 205.768 271.748 205.408C272.431 205.048 273.008 204.563 273.479 203.955C273.964 203.334 274.336 202.614 274.597 201.795C274.857 200.976 274.988 200.107 274.988 199.188ZM273.461 199.226C273.461 199.946 273.368 200.634 273.182 201.292C273.008 201.938 272.747 202.509 272.399 203.006C272.064 203.49 271.648 203.881 271.152 204.179C270.668 204.464 270.122 204.607 269.513 204.607C268.905 204.607 268.353 204.464 267.856 204.179C267.359 203.881 266.937 203.483 266.59 202.987C266.242 202.49 265.975 201.913 265.789 201.255C265.603 200.597 265.51 199.908 265.51 199.188C265.51 198.468 265.603 197.786 265.789 197.14C265.975 196.482 266.236 195.911 266.571 195.427C266.919 194.93 267.335 194.539 267.819 194.254C268.315 193.956 268.868 193.807 269.476 193.807C270.084 193.807 270.631 193.956 271.115 194.254C271.611 194.552 272.033 194.949 272.381 195.445C272.728 195.942 272.995 196.519 273.182 197.177C273.368 197.823 273.461 198.506 273.461 199.226Z" fill="#706E6E"/>
<rect x="302" y="211" width="133" height="29" rx="14.5" fill="#222222"/>
<path d="M312.846 224.787L313.512 225.228C313.674 225.15 313.851 225.084 314.043 225.03C314.235 224.976 314.445 224.949 314.673 224.949C315.069 224.949 315.384 225.045 315.618 225.237C315.858 225.423 315.978 225.678 315.978 226.002C315.978 226.338 315.864 226.605 315.636 226.803C315.408 227.001 315.105 227.1 314.727 227.1C314.433 227.1 314.151 227.034 313.881 226.902C313.617 226.764 313.359 226.578 313.107 226.344L312.423 227.145C312.723 227.433 313.062 227.667 313.44 227.847C313.818 228.021 314.25 228.108 314.736 228.108C315.084 228.108 315.402 228.057 315.69 227.955C315.978 227.853 316.224 227.709 316.428 227.523C316.632 227.337 316.788 227.112 316.896 226.848C317.01 226.584 317.067 226.29 317.067 225.966C317.067 225.63 317.01 225.339 316.896 225.093C316.788 224.841 316.635 224.634 316.437 224.472C316.239 224.304 316.005 224.181 315.735 224.103C315.471 224.019 315.186 223.977 314.88 223.977C314.67 223.977 314.487 223.995 314.331 224.031C314.181 224.061 314.031 224.103 313.881 224.157L313.98 222.681H316.788V221.7H313.026L312.846 224.787ZM321.001 223.23C321.001 223.014 320.965 222.81 320.893 222.618C320.821 222.42 320.719 222.249 320.587 222.105C320.461 221.955 320.308 221.838 320.128 221.754C319.948 221.67 319.747 221.628 319.525 221.628C319.303 221.628 319.099 221.673 318.913 221.763C318.733 221.847 318.577 221.964 318.445 222.114C318.313 222.258 318.211 222.429 318.139 222.627C318.067 222.819 318.031 223.026 318.031 223.248C318.031 223.464 318.067 223.671 318.139 223.869C318.211 224.061 318.31 224.232 318.436 224.382C318.568 224.526 318.724 224.64 318.904 224.724C319.084 224.808 319.285 224.85 319.507 224.85C319.729 224.85 319.93 224.808 320.11 224.724C320.296 224.634 320.455 224.517 320.587 224.373C320.719 224.223 320.821 224.052 320.893 223.86C320.965 223.662 321.001 223.452 321.001 223.23ZM324.169 221.7H323.278L318.67 228H319.561L324.169 221.7ZM324.808 226.452C324.808 226.236 324.772 226.032 324.7 225.84C324.628 225.642 324.526 225.471 324.394 225.327C324.268 225.177 324.115 225.06 323.935 224.976C323.755 224.892 323.554 224.85 323.332 224.85C323.11 224.85 322.906 224.895 322.72 224.985C322.54 225.069 322.384 225.186 322.252 225.336C322.12 225.48 322.018 225.651 321.946 225.849C321.874 226.041 321.838 226.248 321.838 226.47C321.838 226.686 321.874 226.893 321.946 227.091C322.018 227.283 322.117 227.454 322.243 227.604C322.375 227.748 322.531 227.862 322.711 227.946C322.891 228.03 323.092 228.072 323.314 228.072C323.536 228.072 323.737 228.03 323.917 227.946C324.103 227.856 324.262 227.739 324.394 227.595C324.526 227.445 324.628 227.274 324.7 227.082C324.772 226.884 324.808 226.674 324.808 226.452ZM320.2 223.248C320.2 223.5 320.14 223.716 320.02 223.896C319.9 224.07 319.735 224.157 319.525 224.157C319.321 224.157 319.153 224.07 319.021 223.896C318.895 223.716 318.832 223.494 318.832 223.23C318.832 222.978 318.892 222.765 319.012 222.591C319.132 222.411 319.297 222.321 319.507 222.321C319.711 222.321 319.876 222.411 320.002 222.591C320.134 222.765 320.2 222.984 320.2 223.248ZM324.007 226.47C324.007 226.722 323.947 226.938 323.827 227.118C323.707 227.292 323.542 227.379 323.332 227.379C323.128 227.379 322.96 227.292 322.828 227.118C322.702 226.938 322.639 226.716 322.639 226.452C322.639 226.2 322.699 225.987 322.819 225.813C322.939 225.633 323.104 225.543 323.314 225.543C323.518 225.543 323.683 225.633 323.809 225.813C323.941 225.987 324.007 226.206 324.007 226.47ZM332.57 223.986C332.444 223.734 332.261 223.533 332.021 223.383C331.787 223.227 331.499 223.149 331.157 223.149C330.977 223.149 330.812 223.173 330.662 223.221C330.518 223.263 330.386 223.323 330.266 223.401C330.152 223.479 330.05 223.566 329.96 223.662C329.87 223.758 329.786 223.86 329.708 223.968V223.248H328.619V228H329.708V225.327C329.708 224.955 329.801 224.664 329.987 224.454C330.173 224.244 330.419 224.139 330.725 224.139C331.031 224.139 331.268 224.238 331.436 224.436C331.604 224.634 331.688 224.919 331.688 225.291V228H332.777V225.318C332.777 224.934 332.87 224.643 333.056 224.445C333.248 224.241 333.494 224.139 333.794 224.139C334.1 224.139 334.337 224.238 334.505 224.436C334.673 224.634 334.757 224.922 334.757 225.3V228H335.846V224.967C335.846 224.385 335.699 223.938 335.405 223.626C335.111 223.308 334.703 223.149 334.181 223.149C333.821 223.149 333.509 223.227 333.245 223.383C332.987 223.533 332.762 223.734 332.57 223.986ZM341.976 225.624C341.976 225.282 341.913 224.961 341.787 224.661C341.661 224.361 341.484 224.1 341.256 223.878C341.034 223.65 340.767 223.473 340.455 223.347C340.149 223.215 339.813 223.149 339.447 223.149C339.081 223.149 338.742 223.215 338.43 223.347C338.124 223.479 337.857 223.659 337.629 223.887C337.407 224.109 337.23 224.373 337.098 224.679C336.972 224.979 336.909 225.3 336.909 225.642C336.909 225.984 336.972 226.305 337.098 226.605C337.224 226.899 337.398 227.16 337.62 227.388C337.848 227.61 338.115 227.787 338.421 227.919C338.733 228.045 339.069 228.108 339.429 228.108C339.795 228.108 340.134 228.042 340.446 227.91C340.758 227.778 341.025 227.601 341.247 227.379C341.475 227.151 341.652 226.887 341.778 226.587C341.91 226.287 341.976 225.966 341.976 225.624ZM340.887 225.642C340.887 225.852 340.854 226.05 340.788 226.236C340.722 226.416 340.626 226.575 340.5 226.713C340.374 226.851 340.221 226.962 340.041 227.046C339.867 227.124 339.669 227.163 339.447 227.163C339.237 227.163 339.042 227.124 338.862 227.046C338.688 226.962 338.535 226.851 338.403 226.713C338.277 226.575 338.178 226.413 338.106 226.227C338.034 226.035 337.998 225.834 337.998 225.624C337.998 225.414 338.031 225.219 338.097 225.039C338.163 224.853 338.259 224.691 338.385 224.553C338.511 224.415 338.661 224.307 338.835 224.229C339.015 224.145 339.213 224.103 339.429 224.103C339.645 224.103 339.84 224.145 340.014 224.229C340.194 224.307 340.347 224.418 340.473 224.562C340.605 224.7 340.707 224.862 340.779 225.048C340.851 225.234 340.887 225.432 340.887 225.642ZM344.174 226.191C344.174 225.879 344.213 225.606 344.291 225.372C344.369 225.132 344.48 224.934 344.624 224.778C344.768 224.622 344.939 224.505 345.137 224.427C345.335 224.349 345.554 224.31 345.794 224.31H345.857V223.158C345.437 223.14 345.089 223.239 344.813 223.455C344.537 223.671 344.324 223.959 344.174 224.319V223.248H343.085V228H344.174V226.191ZM347.473 226.011H350.965C350.971 225.957 350.974 225.906 350.974 225.858C350.98 225.81 350.983 225.762 350.983 225.714C350.983 225.372 350.935 225.045 350.839 224.733C350.743 224.421 350.599 224.148 350.407 223.914C350.221 223.68 349.984 223.494 349.696 223.356C349.414 223.218 349.084 223.149 348.706 223.149C348.364 223.149 348.052 223.215 347.77 223.347C347.488 223.479 347.242 223.659 347.032 223.887C346.828 224.109 346.669 224.37 346.555 224.67C346.441 224.97 346.384 225.291 346.384 225.633C346.384 226.005 346.447 226.344 346.573 226.65C346.699 226.95 346.87 227.208 347.086 227.424C347.308 227.64 347.566 227.808 347.86 227.928C348.16 228.048 348.481 228.108 348.823 228.108C349.261 228.108 349.636 228.027 349.948 227.865C350.266 227.703 350.539 227.487 350.767 227.217L350.128 226.65C349.936 226.836 349.741 226.977 349.543 227.073C349.345 227.169 349.111 227.217 348.841 227.217C348.487 227.217 348.187 227.115 347.941 226.911C347.695 226.701 347.539 226.401 347.473 226.011ZM347.464 225.291C347.512 224.919 347.644 224.619 347.86 224.391C348.082 224.157 348.361 224.04 348.697 224.04C348.877 224.04 349.036 224.073 349.174 224.139C349.318 224.205 349.441 224.295 349.543 224.409C349.645 224.517 349.726 224.649 349.786 224.805C349.846 224.955 349.885 225.117 349.903 225.291H347.464ZM356.089 224.184H357.367V223.248H356.089V221.943H355V223.248H354.397V224.184H355V226.686C355 226.95 355.033 227.172 355.099 227.352C355.165 227.526 355.258 227.667 355.378 227.775C355.504 227.883 355.651 227.961 355.819 228.009C355.987 228.057 356.17 228.081 356.368 228.081C356.572 228.081 356.752 228.06 356.908 228.018C357.064 227.976 357.211 227.916 357.349 227.838V226.947C357.133 227.055 356.908 227.109 356.674 227.109C356.488 227.109 356.344 227.064 356.242 226.974C356.14 226.878 356.089 226.725 356.089 226.515V224.184ZM359.555 225.318C359.555 224.946 359.654 224.658 359.852 224.454C360.05 224.244 360.308 224.139 360.626 224.139C360.95 224.139 361.199 224.241 361.373 224.445C361.553 224.643 361.643 224.928 361.643 225.3V228H362.732V224.976C362.732 224.418 362.585 223.974 362.291 223.644C361.997 223.314 361.58 223.149 361.04 223.149C360.854 223.149 360.686 223.173 360.536 223.221C360.392 223.263 360.257 223.323 360.131 223.401C360.011 223.479 359.903 223.569 359.807 223.671C359.717 223.767 359.633 223.872 359.555 223.986V221.43H358.466V228H359.555V225.318ZM368.034 228V225.183C368.034 224.547 367.863 224.055 367.521 223.707C367.179 223.353 366.654 223.176 365.946 223.176C365.556 223.176 365.223 223.212 364.947 223.284C364.671 223.356 364.401 223.452 364.137 223.572L364.434 224.445C364.65 224.355 364.863 224.283 365.073 224.229C365.283 224.175 365.523 224.148 365.793 224.148C366.171 224.148 366.459 224.235 366.657 224.409C366.861 224.583 366.963 224.835 366.963 225.165V225.282C366.777 225.222 366.582 225.174 366.378 225.138C366.18 225.102 365.937 225.084 365.649 225.084C365.373 225.084 365.115 225.117 364.875 225.183C364.641 225.243 364.437 225.336 364.263 225.462C364.095 225.588 363.963 225.747 363.867 225.939C363.771 226.131 363.723 226.356 363.723 226.614V226.632C363.723 226.872 363.768 227.085 363.858 227.271C363.954 227.451 364.077 227.604 364.227 227.73C364.383 227.85 364.563 227.94 364.767 228C364.971 228.066 365.187 228.099 365.415 228.099C365.775 228.099 366.081 228.033 366.333 227.901C366.585 227.769 366.792 227.607 366.954 227.415V228H368.034ZM366.981 226.281C366.981 226.431 366.948 226.569 366.882 226.695C366.822 226.815 366.735 226.92 366.621 227.01C366.507 227.094 366.372 227.16 366.216 227.208C366.066 227.256 365.901 227.28 365.721 227.28C365.463 227.28 365.244 227.22 365.064 227.1C364.89 226.98 364.803 226.806 364.803 226.578V226.56C364.803 226.314 364.899 226.125 365.091 225.993C365.283 225.861 365.55 225.795 365.892 225.795C366.102 225.795 366.3 225.813 366.486 225.849C366.678 225.885 366.843 225.93 366.981 225.984V226.281ZM370.419 225.318C370.419 224.946 370.518 224.658 370.716 224.454C370.914 224.244 371.172 224.139 371.49 224.139C371.814 224.139 372.063 224.241 372.237 224.445C372.417 224.643 372.507 224.928 372.507 225.3V228H373.596V224.976C373.596 224.418 373.449 223.974 373.155 223.644C372.861 223.314 372.444 223.149 371.904 223.149C371.718 223.149 371.55 223.173 371.4 223.221C371.256 223.263 371.121 223.323 370.995 223.401C370.875 223.479 370.767 223.569 370.671 223.671C370.581 223.767 370.497 223.872 370.419 223.986V223.248H369.33V228H370.419V225.318ZM378.761 228V221.43H377.672V228H378.761ZM384.171 228V225.183C384.171 224.547 384 224.055 383.658 223.707C383.316 223.353 382.791 223.176 382.083 223.176C381.693 223.176 381.36 223.212 381.084 223.284C380.808 223.356 380.538 223.452 380.274 223.572L380.571 224.445C380.787 224.355 381 224.283 381.21 224.229C381.42 224.175 381.66 224.148 381.93 224.148C382.308 224.148 382.596 224.235 382.794 224.409C382.998 224.583 383.1 224.835 383.1 225.165V225.282C382.914 225.222 382.719 225.174 382.515 225.138C382.317 225.102 382.074 225.084 381.786 225.084C381.51 225.084 381.252 225.117 381.012 225.183C380.778 225.243 380.574 225.336 380.4 225.462C380.232 225.588 380.1 225.747 380.004 225.939C379.908 226.131 379.86 226.356 379.86 226.614V226.632C379.86 226.872 379.905 227.085 379.995 227.271C380.091 227.451 380.214 227.604 380.364 227.73C380.52 227.85 380.7 227.94 380.904 228C381.108 228.066 381.324 228.099 381.552 228.099C381.912 228.099 382.218 228.033 382.47 227.901C382.722 227.769 382.929 227.607 383.091 227.415V228H384.171ZM383.118 226.281C383.118 226.431 383.085 226.569 383.019 226.695C382.959 226.815 382.872 226.92 382.758 227.01C382.644 227.094 382.509 227.16 382.353 227.208C382.203 227.256 382.038 227.28 381.858 227.28C381.6 227.28 381.381 227.22 381.201 227.1C381.027 226.98 380.94 226.806 380.94 226.578V226.56C380.94 226.314 381.036 226.125 381.228 225.993C381.42 225.861 381.687 225.795 382.029 225.795C382.239 225.795 382.437 225.813 382.623 225.849C382.815 225.885 382.98 225.93 383.118 225.984V226.281ZM388.859 226.596V226.578C388.859 226.362 388.814 226.179 388.724 226.029C388.634 225.879 388.517 225.753 388.373 225.651C388.235 225.543 388.079 225.453 387.905 225.381C387.731 225.309 387.557 225.246 387.383 225.192C387.245 225.15 387.11 225.108 386.978 225.066C386.852 225.018 386.738 224.97 386.636 224.922C386.54 224.868 386.462 224.811 386.402 224.751C386.342 224.685 386.312 224.61 386.312 224.526V224.508C386.312 224.37 386.369 224.256 386.483 224.166C386.603 224.076 386.768 224.031 386.978 224.031C387.176 224.031 387.392 224.073 387.626 224.157C387.86 224.235 388.091 224.343 388.319 224.481L388.751 223.707C388.499 223.539 388.22 223.407 387.914 223.311C387.608 223.215 387.305 223.167 387.005 223.167C386.771 223.167 386.549 223.2 386.339 223.266C386.135 223.332 385.955 223.428 385.799 223.554C385.649 223.68 385.529 223.833 385.439 224.013C385.355 224.193 385.313 224.394 385.313 224.616V224.634C385.313 224.862 385.358 225.054 385.448 225.21C385.538 225.36 385.652 225.489 385.79 225.597C385.934 225.699 386.093 225.783 386.267 225.849C386.447 225.915 386.624 225.975 386.798 226.029C386.936 226.071 387.068 226.113 387.194 226.155C387.326 226.191 387.44 226.236 387.536 226.29C387.638 226.338 387.716 226.395 387.77 226.461C387.83 226.527 387.86 226.605 387.86 226.695V226.713C387.86 226.869 387.794 226.995 387.662 227.091C387.536 227.181 387.356 227.226 387.122 227.226C386.876 227.226 386.618 227.178 386.348 227.082C386.084 226.98 385.823 226.833 385.565 226.641L385.079 227.379C385.379 227.613 385.703 227.79 386.051 227.91C386.405 228.03 386.753 228.09 387.095 228.09C387.341 228.09 387.572 228.06 387.788 228C388.004 227.934 388.19 227.841 388.346 227.721C388.508 227.595 388.634 227.439 388.724 227.253C388.814 227.067 388.859 226.848 388.859 226.596ZM391.192 224.184H392.47V223.248H391.192V221.943H390.103V223.248H389.5V224.184H390.103V226.686C390.103 226.95 390.136 227.172 390.202 227.352C390.268 227.526 390.361 227.667 390.481 227.775C390.607 227.883 390.754 227.961 390.922 228.009C391.09 228.057 391.273 228.081 391.471 228.081C391.675 228.081 391.855 228.06 392.011 228.018C392.167 227.976 392.314 227.916 392.452 227.838V226.947C392.236 227.055 392.011 227.109 391.777 227.109C391.591 227.109 391.447 227.064 391.345 226.974C391.243 226.878 391.192 226.725 391.192 226.515V224.184ZM400.219 223.986C400.093 223.734 399.91 223.533 399.67 223.383C399.436 223.227 399.148 223.149 398.806 223.149C398.626 223.149 398.461 223.173 398.311 223.221C398.167 223.263 398.035 223.323 397.915 223.401C397.801 223.479 397.699 223.566 397.609 223.662C397.519 223.758 397.435 223.86 397.357 223.968V223.248H396.268V228H397.357V225.327C397.357 224.955 397.45 224.664 397.636 224.454C397.822 224.244 398.068 224.139 398.374 224.139C398.68 224.139 398.917 224.238 399.085 224.436C399.253 224.634 399.337 224.919 399.337 225.291V228H400.426V225.318C400.426 224.934 400.519 224.643 400.705 224.445C400.897 224.241 401.143 224.139 401.443 224.139C401.749 224.139 401.986 224.238 402.154 224.436C402.322 224.634 402.406 224.922 402.406 225.3V228H403.495V224.967C403.495 224.385 403.348 223.938 403.054 223.626C402.76 223.308 402.352 223.149 401.83 223.149C401.47 223.149 401.158 223.227 400.894 223.383C400.636 223.533 400.411 223.734 400.219 223.986ZM409.626 225.624C409.626 225.282 409.563 224.961 409.437 224.661C409.311 224.361 409.134 224.1 408.906 223.878C408.684 223.65 408.417 223.473 408.105 223.347C407.799 223.215 407.463 223.149 407.097 223.149C406.731 223.149 406.392 223.215 406.08 223.347C405.774 223.479 405.507 223.659 405.279 223.887C405.057 224.109 404.88 224.373 404.748 224.679C404.622 224.979 404.559 225.3 404.559 225.642C404.559 225.984 404.622 226.305 404.748 226.605C404.874 226.899 405.048 227.16 405.27 227.388C405.498 227.61 405.765 227.787 406.071 227.919C406.383 228.045 406.719 228.108 407.079 228.108C407.445 228.108 407.784 228.042 408.096 227.91C408.408 227.778 408.675 227.601 408.897 227.379C409.125 227.151 409.302 226.887 409.428 226.587C409.56 226.287 409.626 225.966 409.626 225.624ZM408.537 225.642C408.537 225.852 408.504 226.05 408.438 226.236C408.372 226.416 408.276 226.575 408.15 226.713C408.024 226.851 407.871 226.962 407.691 227.046C407.517 227.124 407.319 227.163 407.097 227.163C406.887 227.163 406.692 227.124 406.512 227.046C406.338 226.962 406.185 226.851 406.053 226.713C405.927 226.575 405.828 226.413 405.756 226.227C405.684 226.035 405.648 225.834 405.648 225.624C405.648 225.414 405.681 225.219 405.747 225.039C405.813 224.853 405.909 224.691 406.035 224.553C406.161 224.415 406.311 224.307 406.485 224.229C406.665 224.145 406.863 224.103 407.079 224.103C407.295 224.103 407.49 224.145 407.664 224.229C407.844 224.307 407.997 224.418 408.123 224.562C408.255 224.7 408.357 224.862 408.429 225.048C408.501 225.234 408.537 225.432 408.537 225.642ZM411.824 225.318C411.824 224.946 411.923 224.658 412.121 224.454C412.319 224.244 412.577 224.139 412.895 224.139C413.219 224.139 413.468 224.241 413.642 224.445C413.822 224.643 413.912 224.928 413.912 225.3V228H415.001V224.976C415.001 224.418 414.854 223.974 414.56 223.644C414.266 223.314 413.849 223.149 413.309 223.149C413.123 223.149 412.955 223.173 412.805 223.221C412.661 223.263 412.526 223.323 412.4 223.401C412.28 223.479 412.172 223.569 412.076 223.671C411.986 223.767 411.902 223.872 411.824 223.986V223.248H410.735V228H411.824V225.318ZM417.63 224.184H418.908V223.248H417.63V221.943H416.541V223.248H415.938V224.184H416.541V226.686C416.541 226.95 416.574 227.172 416.64 227.352C416.706 227.526 416.799 227.667 416.919 227.775C417.045 227.883 417.192 227.961 417.36 228.009C417.528 228.057 417.711 228.081 417.909 228.081C418.113 228.081 418.293 228.06 418.449 228.018C418.605 227.976 418.752 227.916 418.89 227.838V226.947C418.674 227.055 418.449 227.109 418.215 227.109C418.029 227.109 417.885 227.064 417.783 226.974C417.681 226.878 417.63 226.725 417.63 226.515V224.184ZM421.096 225.318C421.096 224.946 421.195 224.658 421.393 224.454C421.591 224.244 421.849 224.139 422.167 224.139C422.491 224.139 422.74 224.241 422.914 224.445C423.094 224.643 423.184 224.928 423.184 225.3V228H424.273V224.976C424.273 224.418 424.126 223.974 423.832 223.644C423.538 223.314 423.121 223.149 422.581 223.149C422.395 223.149 422.227 223.173 422.077 223.221C421.933 223.263 421.798 223.323 421.672 223.401C421.552 223.479 421.444 223.569 421.348 223.671C421.258 223.767 421.174 223.872 421.096 223.986V221.43H420.007V228H421.096V225.318Z" fill="#F6FF82"/>
</g>
<g filter="url(#filter1_d_107_92)">
<rect x="156" y="308" width="417" height="153" rx="20" fill="white"/>
<path d="M199.28 350.46H203.98V349H192.98V350.46H197.68V363H199.28V350.46ZM214.29 357.82C214.29 357.087 214.156 356.393 213.89 355.74C213.623 355.087 213.25 354.52 212.77 354.04C212.29 353.547 211.716 353.16 211.05 352.88C210.396 352.587 209.683 352.44 208.91 352.44C208.123 352.44 207.396 352.587 206.73 352.88C206.076 353.16 205.51 353.547 205.03 354.04C204.55 354.533 204.176 355.113 203.91 355.78C203.643 356.433 203.51 357.127 203.51 357.86C203.51 358.593 203.643 359.287 203.91 359.94C204.176 360.593 204.55 361.167 205.03 361.66C205.51 362.14 206.076 362.527 206.73 362.82C207.383 363.1 208.096 363.24 208.87 363.24C209.643 363.24 210.363 363.1 211.03 362.82C211.696 362.527 212.27 362.133 212.75 361.64C213.23 361.147 213.603 360.573 213.87 359.92C214.15 359.253 214.29 358.553 214.29 357.82ZM212.71 357.86C212.71 358.42 212.616 358.947 212.43 359.44C212.243 359.92 211.983 360.34 211.65 360.7C211.316 361.06 210.916 361.347 210.45 361.56C209.983 361.76 209.47 361.86 208.91 361.86C208.363 361.86 207.856 361.753 207.39 361.54C206.923 361.327 206.516 361.04 206.17 360.68C205.836 360.32 205.57 359.893 205.37 359.4C205.183 358.907 205.09 358.38 205.09 357.82C205.09 357.26 205.183 356.74 205.37 356.26C205.556 355.767 205.81 355.34 206.13 354.98C206.463 354.607 206.863 354.32 207.33 354.12C207.796 353.907 208.31 353.8 208.87 353.8C209.416 353.8 209.923 353.907 210.39 354.12C210.856 354.333 211.263 354.627 211.61 355C211.956 355.36 212.223 355.787 212.41 356.28C212.61 356.773 212.71 357.3 212.71 357.86ZM219.159 354.02H222.439V352.66H219.159V349.54H217.619V352.66H216.179V354.02H217.619V360.26C217.619 360.78 217.693 361.227 217.839 361.6C217.986 361.973 218.186 362.28 218.439 362.52C218.706 362.747 219.019 362.913 219.379 363.02C219.739 363.127 220.126 363.18 220.539 363.18C220.913 363.18 221.246 363.14 221.539 363.06C221.846 362.993 222.133 362.887 222.399 362.74V361.42C222.133 361.553 221.879 361.647 221.639 361.7C221.413 361.753 221.166 361.78 220.899 361.78C220.379 361.78 219.959 361.653 219.639 361.4C219.319 361.147 219.159 360.7 219.159 360.06V354.02ZM228.905 353.88C229.879 353.88 230.632 354.12 231.165 354.6C231.712 355.067 231.985 355.767 231.985 356.7V357.06C231.519 356.927 231.039 356.82 230.545 356.74C230.052 356.66 229.472 356.62 228.805 356.62C228.152 356.62 227.552 356.693 227.005 356.84C226.472 356.987 226.005 357.2 225.605 357.48C225.219 357.76 224.919 358.113 224.705 358.54C224.492 358.953 224.385 359.433 224.385 359.98C224.385 360.527 224.492 361 224.705 361.4C224.932 361.8 225.225 362.14 225.585 362.42C225.959 362.687 226.372 362.887 226.825 363.02C227.292 363.153 227.765 363.22 228.245 363.22C229.165 363.22 229.925 363.04 230.525 362.68C231.139 362.32 231.625 361.907 231.985 361.44V363H233.465V356.68C233.465 355.307 233.085 354.273 232.325 353.58C231.565 352.873 230.479 352.52 229.065 352.52C228.305 352.52 227.632 352.6 227.045 352.76C226.459 352.907 225.879 353.113 225.305 353.38L225.765 354.64C226.245 354.413 226.732 354.233 227.225 354.1C227.732 353.953 228.292 353.88 228.905 353.88ZM228.965 357.76C229.605 357.76 230.172 357.807 230.665 357.9C231.172 357.993 231.619 358.093 232.005 358.2V359.2C232.005 359.613 231.912 359.993 231.725 360.34C231.552 360.673 231.305 360.967 230.985 361.22C230.679 361.46 230.312 361.653 229.885 361.8C229.472 361.933 229.025 362 228.545 362C228.199 362 227.865 361.953 227.545 361.86C227.239 361.767 226.965 361.633 226.725 361.46C226.485 361.273 226.292 361.053 226.145 360.8C226.012 360.547 225.945 360.253 225.945 359.92C225.945 359.253 226.205 358.727 226.725 358.34C227.245 357.953 227.992 357.76 228.965 357.76ZM238.427 363V348.4H236.887V363H238.427ZM249.477 352.5C249.477 352.18 249.544 351.88 249.677 351.6C249.824 351.32 250.024 351.08 250.277 350.88C250.544 350.68 250.857 350.52 251.217 350.4C251.591 350.28 252.004 350.22 252.457 350.22C253.177 350.22 253.864 350.34 254.517 350.58C255.184 350.82 255.844 351.207 256.497 351.74L257.417 350.52C256.697 349.947 255.951 349.52 255.177 349.24C254.417 348.947 253.524 348.8 252.497 348.8C251.831 348.8 251.217 348.9 250.657 349.1C250.097 349.287 249.611 349.553 249.197 349.9C248.784 350.233 248.464 350.633 248.237 351.1C248.011 351.567 247.897 352.08 247.897 352.64C247.897 353.227 247.991 353.733 248.177 354.16C248.364 354.587 248.651 354.96 249.037 355.28C249.424 355.6 249.911 355.873 250.497 356.1C251.097 356.327 251.797 356.527 252.597 356.7C253.331 356.86 253.931 357.027 254.397 357.2C254.877 357.373 255.251 357.567 255.517 357.78C255.784 357.993 255.971 358.233 256.077 358.5C256.184 358.753 256.237 359.047 256.237 359.38C256.237 360.1 255.951 360.68 255.377 361.12C254.817 361.56 254.064 361.78 253.117 361.78C252.144 361.78 251.284 361.62 250.537 361.3C249.791 360.967 249.051 360.467 248.317 359.8L247.337 360.96C248.177 361.72 249.057 362.287 249.977 362.66C250.911 363.02 251.937 363.2 253.057 363.2C253.751 363.2 254.391 363.107 254.977 362.92C255.564 362.733 256.064 362.467 256.477 362.12C256.904 361.773 257.237 361.353 257.477 360.86C257.717 360.367 257.837 359.82 257.837 359.22C257.837 358.14 257.464 357.293 256.717 356.68C255.984 356.067 254.837 355.587 253.277 355.24C252.504 355.08 251.871 354.913 251.377 354.74C250.884 354.553 250.497 354.353 250.217 354.14C249.937 353.913 249.744 353.667 249.637 353.4C249.531 353.133 249.477 352.833 249.477 352.5ZM271.23 357.82C271.23 356.967 271.09 356.207 270.81 355.54C270.53 354.873 270.157 354.313 269.69 353.86C269.224 353.393 268.69 353.04 268.09 352.8C267.504 352.56 266.904 352.44 266.29 352.44C265.81 352.44 265.37 352.507 264.97 352.64C264.584 352.76 264.23 352.927 263.91 353.14C263.59 353.34 263.297 353.58 263.03 353.86C262.777 354.14 262.544 354.433 262.33 354.74V352.66H260.79V366.2H262.33V361.02C262.53 361.313 262.757 361.593 263.01 361.86C263.277 362.127 263.57 362.36 263.89 362.56C264.21 362.76 264.57 362.92 264.97 363.04C265.37 363.16 265.81 363.22 266.29 363.22C266.917 363.22 267.524 363.1 268.11 362.86C268.71 362.607 269.237 362.253 269.69 361.8C270.157 361.333 270.53 360.767 270.81 360.1C271.09 359.433 271.23 358.673 271.23 357.82ZM269.65 357.84C269.65 358.467 269.55 359.033 269.35 359.54C269.164 360.033 268.904 360.453 268.57 360.8C268.25 361.133 267.864 361.393 267.41 361.58C266.97 361.753 266.504 361.84 266.01 361.84C265.53 361.84 265.064 361.747 264.61 361.56C264.17 361.36 263.77 361.087 263.41 360.74C263.064 360.393 262.784 359.973 262.57 359.48C262.37 358.973 262.27 358.42 262.27 357.82C262.27 357.22 262.37 356.673 262.57 356.18C262.784 355.687 263.064 355.267 263.41 354.92C263.77 354.573 264.17 354.307 264.61 354.12C265.064 353.92 265.53 353.82 266.01 353.82C266.504 353.82 266.97 353.913 267.41 354.1C267.85 354.287 268.237 354.56 268.57 354.92C268.904 355.267 269.164 355.687 269.35 356.18C269.55 356.673 269.65 357.227 269.65 357.84ZM274.992 358.4H283.192C283.205 358.307 283.212 358.22 283.212 358.14C283.212 358.06 283.212 357.987 283.212 357.92C283.212 357.16 283.105 356.447 282.892 355.78C282.678 355.113 282.365 354.533 281.952 354.04C281.538 353.547 281.032 353.16 280.432 352.88C279.832 352.587 279.152 352.44 278.392 352.44C277.672 352.44 277.005 352.58 276.392 352.86C275.792 353.14 275.272 353.527 274.832 354.02C274.392 354.5 274.045 355.073 273.792 355.74C273.552 356.393 273.432 357.093 273.432 357.84C273.432 358.64 273.565 359.373 273.832 360.04C274.112 360.707 274.485 361.28 274.952 361.76C275.418 362.227 275.965 362.593 276.592 362.86C277.218 363.113 277.885 363.24 278.592 363.24C279.578 363.24 280.405 363.067 281.072 362.72C281.738 362.36 282.332 361.887 282.852 361.3L281.892 360.44C281.465 360.88 280.992 361.233 280.472 361.5C279.965 361.767 279.352 361.9 278.632 361.9C278.178 361.9 277.745 361.827 277.332 361.68C276.918 361.52 276.545 361.293 276.212 361C275.878 360.693 275.605 360.327 275.392 359.9C275.178 359.46 275.045 358.96 274.992 358.4ZM274.992 357.26C275.045 356.753 275.165 356.287 275.352 355.86C275.538 355.433 275.778 355.067 276.072 354.76C276.365 354.44 276.705 354.193 277.092 354.02C277.478 353.833 277.898 353.74 278.352 353.74C278.872 353.74 279.325 353.84 279.712 354.04C280.112 354.227 280.445 354.48 280.712 354.8C280.992 355.12 281.205 355.493 281.352 355.92C281.512 356.347 281.612 356.793 281.652 357.26H274.992ZM287.448 357.08C287.448 356.6 287.521 356.16 287.668 355.76C287.828 355.36 288.048 355.02 288.328 354.74C288.608 354.447 288.934 354.227 289.308 354.08C289.694 353.92 290.108 353.84 290.548 353.84C291.468 353.84 292.174 354.12 292.668 354.68C293.161 355.24 293.408 356 293.408 356.96V363H294.948V356.58C294.948 355.967 294.854 355.407 294.668 354.9C294.494 354.393 294.234 353.96 293.888 353.6C293.554 353.227 293.141 352.94 292.648 352.74C292.168 352.54 291.614 352.44 290.988 352.44C290.094 352.44 289.368 352.64 288.808 353.04C288.248 353.427 287.794 353.9 287.448 354.46V352.66H285.908V363H287.448V357.08ZM300.312 354.02H303.592V352.66H300.312V349.54H298.772V352.66H297.332V354.02H298.772V360.26C298.772 360.78 298.845 361.227 298.992 361.6C299.138 361.973 299.338 362.28 299.592 362.52C299.858 362.747 300.172 362.913 300.532 363.02C300.892 363.127 301.278 363.18 301.692 363.18C302.065 363.18 302.398 363.14 302.692 363.06C302.998 362.993 303.285 362.887 303.552 362.74V361.42C303.285 361.553 303.032 361.647 302.792 361.7C302.565 361.753 302.318 361.78 302.052 361.78C301.532 361.78 301.112 361.653 300.792 361.4C300.472 361.147 300.312 360.7 300.312 360.06V354.02Z" fill="#706E6E"/>
<path d="M195.281 385.208H210.827L196.038 412H204.259L219.096 384.405V378.924H195.281V385.208ZM222.552 416.678L223.167 419.655C225.97 419.623 228.128 418.915 229.64 417.528C231.152 416.174 231.908 413.937 231.908 410.819V404.44H224.253V412H227.183C227.435 414.772 225.892 416.331 222.552 416.678ZM262.25 381.995C261.526 381.428 260.785 380.924 260.029 380.483C259.273 380.011 258.486 379.617 257.667 379.302C256.848 378.987 255.966 378.751 255.021 378.593C254.076 378.436 253.036 378.357 251.902 378.357C249.445 378.357 247.303 378.829 245.476 379.774C243.649 380.688 242.137 381.964 240.94 383.602C239.743 385.208 238.845 387.114 238.246 389.319C237.679 391.524 237.396 393.903 237.396 396.454C237.396 399.762 237.742 402.392 238.435 404.345C239.16 406.267 240.121 407.826 241.318 409.023C242.483 410.189 243.822 411.071 245.334 411.669C246.846 412.268 248.689 412.567 250.862 412.567C252.658 412.567 254.328 412.299 255.871 411.764C257.415 411.197 258.738 410.409 259.84 409.401C260.974 408.362 261.856 407.149 262.486 405.763C263.148 404.345 263.479 402.786 263.479 401.085C263.479 399.352 263.179 397.824 262.581 396.501C261.982 395.178 261.163 394.076 260.124 393.194C259.084 392.312 257.856 391.65 256.438 391.209C255.021 390.737 253.493 390.5 251.855 390.5C250.217 390.5 248.862 390.721 247.791 391.162C246.752 391.603 245.822 392.091 245.003 392.627C245.129 391.556 245.35 390.548 245.665 389.603C245.98 388.658 246.405 387.854 246.941 387.193C247.508 386.5 248.169 385.964 248.925 385.586C249.713 385.177 250.626 384.972 251.666 384.972C252.359 384.972 253.005 385.035 253.603 385.161C254.202 385.287 254.769 385.46 255.304 385.681C255.84 385.901 256.359 386.185 256.863 386.531C257.367 386.846 257.887 387.209 258.423 387.618L262.25 381.995ZM256.249 401.416C256.249 402.865 255.745 404.046 254.737 404.959C253.761 405.873 252.375 406.33 250.579 406.33C248.783 406.33 247.366 405.873 246.326 404.959C245.318 404.014 244.814 402.817 244.814 401.368C244.814 399.951 245.302 398.801 246.279 397.919C247.287 397.005 248.689 396.549 250.484 396.549C252.28 396.549 253.682 397.005 254.69 397.919C255.729 398.833 256.249 399.998 256.249 401.416ZM280.731 384.972C282.054 384.972 283.125 385.334 283.944 386.059C284.763 386.783 285.172 387.854 285.172 389.272C285.172 389.965 285.062 390.611 284.842 391.209C284.653 391.776 284.322 392.375 283.849 393.005C283.408 393.603 282.826 394.249 282.101 394.942C281.377 395.604 280.494 396.36 279.455 397.21L268.445 406.235V412H292.922V405.716H278.51L283.897 401.557C285.346 400.423 286.621 399.384 287.724 398.439C288.827 397.462 289.724 396.486 290.417 395.509C291.142 394.533 291.677 393.509 292.024 392.438C292.402 391.335 292.591 390.091 292.591 388.705C292.591 387.161 292.323 385.76 291.788 384.499C291.284 383.239 290.528 382.168 289.52 381.286C288.543 380.373 287.346 379.68 285.928 379.207C284.542 378.703 282.967 378.451 281.203 378.451C279.723 378.451 278.4 378.609 277.234 378.924C276.069 379.207 274.998 379.648 274.021 380.247C273.076 380.814 272.178 381.523 271.328 382.373C270.509 383.224 269.69 384.2 268.871 385.303L273.974 389.414C275.202 387.902 276.305 386.783 277.281 386.059C278.289 385.334 279.439 384.972 280.731 384.972ZM312.297 385.161L304.406 393.099L305.54 397.73H308.564C310.643 397.73 312.234 398.092 313.337 398.817C314.471 399.541 315.038 400.597 315.038 401.983C315.038 403.243 314.597 404.235 313.715 404.959C312.864 405.684 311.746 406.046 310.36 406.046C308.659 406.046 307.178 405.716 305.918 405.054C304.69 404.361 303.508 403.369 302.374 402.077L297.366 406.85C298.783 408.551 300.531 409.937 302.611 411.008C304.721 412.047 307.273 412.567 310.265 412.567C312.092 412.567 313.746 412.299 315.227 411.764C316.707 411.228 317.952 410.472 318.96 409.496C319.999 408.519 320.787 407.369 321.322 406.046C321.889 404.723 322.173 403.274 322.173 401.699C322.173 400.156 321.921 398.848 321.417 397.777C320.913 396.675 320.251 395.761 319.432 395.037C318.613 394.281 317.668 393.698 316.597 393.288C315.526 392.879 314.423 392.58 313.289 392.391L321.653 384.405V378.924H299.303V385.161H312.297ZM335.502 412V404.44H327.847V412H335.502Z" fill="black"/>
<path d="M190.741 398.862C190.741 397.55 190.301 396.496 189.42 395.702C188.539 394.89 187.114 394.259 185.145 393.81V387.437C185.836 387.558 186.501 387.765 187.14 388.059C187.796 388.353 188.435 388.767 189.057 389.303L190.171 387.748C189.411 387.161 188.643 386.695 187.865 386.349C187.088 385.986 186.207 385.762 185.223 385.676V384.121H183.565V385.624C182.77 385.658 182.036 385.805 181.363 386.064C180.706 386.323 180.136 386.669 179.653 387.1C179.169 387.515 178.789 388.007 178.513 388.577C178.254 389.13 178.124 389.743 178.124 390.417C178.124 391.781 178.565 392.852 179.446 393.629C180.326 394.406 181.725 395.019 183.643 395.468V401.945C182.658 401.842 181.769 401.582 180.974 401.168C180.18 400.753 179.394 400.192 178.617 399.484L177.451 401.038C178.366 401.816 179.325 402.429 180.326 402.878C181.328 403.327 182.408 403.603 183.565 403.707V406.298H185.223V403.759C186.035 403.707 186.777 403.56 187.451 403.318C188.142 403.059 188.729 402.714 189.213 402.282C189.696 401.85 190.068 401.349 190.327 400.779C190.603 400.209 190.741 399.57 190.741 398.862ZM183.643 393.448C182.934 393.275 182.347 393.085 181.881 392.878C181.432 392.653 181.078 392.411 180.819 392.152C180.56 391.893 180.378 391.608 180.275 391.297C180.171 390.986 180.119 390.65 180.119 390.287C180.119 389.89 180.197 389.518 180.352 389.173C180.525 388.828 180.758 388.525 181.052 388.266C181.363 388.007 181.734 387.8 182.166 387.644C182.598 387.472 183.09 387.377 183.643 387.36V393.448ZM188.746 398.992C188.746 399.855 188.418 400.563 187.762 401.116C187.123 401.669 186.251 401.971 185.145 402.023V395.831C185.871 396.004 186.458 396.194 186.907 396.401C187.373 396.608 187.745 396.841 188.021 397.101C188.297 397.36 188.487 397.645 188.591 397.955C188.694 398.266 188.746 398.612 188.746 398.992Z" fill="#706E6E"/>
<path d="M352.677 405.188C352.677 404.27 352.547 403.407 352.286 402.6C352.038 401.781 351.671 401.067 351.187 400.459C350.716 399.838 350.138 399.354 349.456 399.006C348.785 398.646 348.034 398.466 347.202 398.466C346.358 398.466 345.595 398.646 344.912 399.006C344.229 399.366 343.646 399.857 343.162 400.477C342.69 401.086 342.324 401.799 342.063 402.619C341.802 403.438 341.672 404.307 341.672 405.226C341.672 406.144 341.796 407.013 342.044 407.832C342.305 408.639 342.671 409.353 343.143 409.974C343.627 410.582 344.204 411.066 344.875 411.426C345.558 411.774 346.321 411.948 347.165 411.948C347.997 411.948 348.754 411.768 349.437 411.408C350.12 411.048 350.697 410.563 351.169 409.955C351.653 409.334 352.025 408.614 352.286 407.795C352.547 406.976 352.677 406.107 352.677 405.188ZM351.15 405.226C351.15 405.946 351.057 406.634 350.871 407.292C350.697 407.938 350.436 408.509 350.089 409.006C349.753 409.49 349.338 409.881 348.841 410.179C348.357 410.464 347.811 410.607 347.202 410.607C346.594 410.607 346.042 410.464 345.545 410.179C345.049 409.881 344.627 409.483 344.279 408.987C343.931 408.49 343.664 407.913 343.478 407.255C343.292 406.597 343.199 405.908 343.199 405.188C343.199 404.468 343.292 403.786 343.478 403.14C343.664 402.482 343.925 401.911 344.26 401.427C344.608 400.93 345.024 400.539 345.508 400.254C346.004 399.956 346.557 399.807 347.165 399.807C347.773 399.807 348.32 399.956 348.804 400.254C349.3 400.552 349.722 400.949 350.07 401.445C350.418 401.942 350.684 402.519 350.871 403.177C351.057 403.823 351.15 404.506 351.15 405.226ZM365.988 405.188C365.988 404.27 365.857 403.407 365.597 402.6C365.348 401.781 364.982 401.067 364.498 400.459C364.026 399.838 363.449 399.354 362.766 399.006C362.096 398.646 361.345 398.466 360.513 398.466C359.669 398.466 358.906 398.646 358.223 399.006C357.54 399.366 356.957 399.857 356.473 400.477C356.001 401.086 355.635 401.799 355.374 402.619C355.113 403.438 354.983 404.307 354.983 405.226C354.983 406.144 355.107 407.013 355.355 407.832C355.616 408.639 355.982 409.353 356.454 409.974C356.938 410.582 357.515 411.066 358.186 411.426C358.868 411.774 359.632 411.948 360.476 411.948C361.308 411.948 362.065 411.768 362.748 411.408C363.431 411.048 364.008 410.563 364.479 409.955C364.964 409.334 365.336 408.614 365.597 407.795C365.857 406.976 365.988 406.107 365.988 405.188ZM364.461 405.226C364.461 405.946 364.368 406.634 364.182 407.292C364.008 407.938 363.747 408.509 363.399 409.006C363.064 409.49 362.648 409.881 362.152 410.179C361.668 410.464 361.122 410.607 360.513 410.607C359.905 410.607 359.353 410.464 358.856 410.179C358.359 409.881 357.937 409.483 357.59 408.987C357.242 408.49 356.975 407.913 356.789 407.255C356.603 406.597 356.51 405.908 356.51 405.188C356.51 404.468 356.603 403.786 356.789 403.14C356.975 402.482 357.236 401.911 357.571 401.427C357.919 400.93 358.335 400.539 358.819 400.254C359.315 399.956 359.868 399.807 360.476 399.807C361.084 399.807 361.631 399.956 362.115 400.254C362.611 400.552 363.033 400.949 363.381 401.445C363.728 401.942 363.995 402.519 364.182 403.177C364.368 403.823 364.461 404.506 364.461 405.226Z" fill="#706E6E"/>
<rect x="423" y="417" width="130" height="29" rx="14.5" fill="#222222"/>
<path d="M433.234 428.195L433.468 429.095L434.602 428.78V434H435.7V427.655H434.926L433.234 428.195ZM437.414 430.787L438.08 431.228C438.242 431.15 438.419 431.084 438.611 431.03C438.803 430.976 439.013 430.949 439.241 430.949C439.637 430.949 439.952 431.045 440.186 431.237C440.426 431.423 440.546 431.678 440.546 432.002C440.546 432.338 440.432 432.605 440.204 432.803C439.976 433.001 439.673 433.1 439.295 433.1C439.001 433.1 438.719 433.034 438.449 432.902C438.185 432.764 437.927 432.578 437.675 432.344L436.991 433.145C437.291 433.433 437.63 433.667 438.008 433.847C438.386 434.021 438.818 434.108 439.304 434.108C439.652 434.108 439.97 434.057 440.258 433.955C440.546 433.853 440.792 433.709 440.996 433.523C441.2 433.337 441.356 433.112 441.464 432.848C441.578 432.584 441.635 432.29 441.635 431.966C441.635 431.63 441.578 431.339 441.464 431.093C441.356 430.841 441.203 430.634 441.005 430.472C440.807 430.304 440.573 430.181 440.303 430.103C440.039 430.019 439.754 429.977 439.448 429.977C439.238 429.977 439.055 429.995 438.899 430.031C438.749 430.061 438.599 430.103 438.449 430.157L438.548 428.681H441.356V427.7H437.594L437.414 430.787ZM445.569 429.23C445.569 429.014 445.533 428.81 445.461 428.618C445.389 428.42 445.287 428.249 445.155 428.105C445.029 427.955 444.876 427.838 444.696 427.754C444.516 427.67 444.315 427.628 444.093 427.628C443.871 427.628 443.667 427.673 443.481 427.763C443.301 427.847 443.145 427.964 443.013 428.114C442.881 428.258 442.779 428.429 442.707 428.627C442.635 428.819 442.599 429.026 442.599 429.248C442.599 429.464 442.635 429.671 442.707 429.869C442.779 430.061 442.878 430.232 443.004 430.382C443.136 430.526 443.292 430.64 443.472 430.724C443.652 430.808 443.853 430.85 444.075 430.85C444.297 430.85 444.498 430.808 444.678 430.724C444.864 430.634 445.023 430.517 445.155 430.373C445.287 430.223 445.389 430.052 445.461 429.86C445.533 429.662 445.569 429.452 445.569 429.23ZM448.737 427.7H447.846L443.238 434H444.129L448.737 427.7ZM449.376 432.452C449.376 432.236 449.34 432.032 449.268 431.84C449.196 431.642 449.094 431.471 448.962 431.327C448.836 431.177 448.683 431.06 448.503 430.976C448.323 430.892 448.122 430.85 447.9 430.85C447.678 430.85 447.474 430.895 447.288 430.985C447.108 431.069 446.952 431.186 446.82 431.336C446.688 431.48 446.586 431.651 446.514 431.849C446.442 432.041 446.406 432.248 446.406 432.47C446.406 432.686 446.442 432.893 446.514 433.091C446.586 433.283 446.685 433.454 446.811 433.604C446.943 433.748 447.099 433.862 447.279 433.946C447.459 434.03 447.66 434.072 447.882 434.072C448.104 434.072 448.305 434.03 448.485 433.946C448.671 433.856 448.83 433.739 448.962 433.595C449.094 433.445 449.196 433.274 449.268 433.082C449.34 432.884 449.376 432.674 449.376 432.452ZM444.768 429.248C444.768 429.5 444.708 429.716 444.588 429.896C444.468 430.07 444.303 430.157 444.093 430.157C443.889 430.157 443.721 430.07 443.589 429.896C443.463 429.716 443.4 429.494 443.4 429.23C443.4 428.978 443.46 428.765 443.58 428.591C443.7 428.411 443.865 428.321 444.075 428.321C444.279 428.321 444.444 428.411 444.57 428.591C444.702 428.765 444.768 428.984 444.768 429.248ZM448.575 432.47C448.575 432.722 448.515 432.938 448.395 433.118C448.275 433.292 448.11 433.379 447.9 433.379C447.696 433.379 447.528 433.292 447.396 433.118C447.27 432.938 447.207 432.716 447.207 432.452C447.207 432.2 447.267 431.987 447.387 431.813C447.507 431.633 447.672 431.543 447.882 431.543C448.086 431.543 448.251 431.633 448.377 431.813C448.509 431.987 448.575 432.206 448.575 432.47ZM454.339 434V427.43H453.25V434H454.339ZM456.59 432.011H460.082C460.088 431.957 460.091 431.906 460.091 431.858C460.097 431.81 460.1 431.762 460.1 431.714C460.1 431.372 460.052 431.045 459.956 430.733C459.86 430.421 459.716 430.148 459.524 429.914C459.338 429.68 459.101 429.494 458.813 429.356C458.531 429.218 458.201 429.149 457.823 429.149C457.481 429.149 457.169 429.215 456.887 429.347C456.605 429.479 456.359 429.659 456.149 429.887C455.945 430.109 455.786 430.37 455.672 430.67C455.558 430.97 455.501 431.291 455.501 431.633C455.501 432.005 455.564 432.344 455.69 432.65C455.816 432.95 455.987 433.208 456.203 433.424C456.425 433.64 456.683 433.808 456.977 433.928C457.277 434.048 457.598 434.108 457.94 434.108C458.378 434.108 458.753 434.027 459.065 433.865C459.383 433.703 459.656 433.487 459.884 433.217L459.245 432.65C459.053 432.836 458.858 432.977 458.66 433.073C458.462 433.169 458.228 433.217 457.958 433.217C457.604 433.217 457.304 433.115 457.058 432.911C456.812 432.701 456.656 432.401 456.59 432.011ZM456.581 431.291C456.629 430.919 456.761 430.619 456.977 430.391C457.199 430.157 457.478 430.04 457.814 430.04C457.994 430.04 458.153 430.073 458.291 430.139C458.435 430.205 458.558 430.295 458.66 430.409C458.762 430.517 458.843 430.649 458.903 430.805C458.963 430.955 459.002 431.117 459.02 431.291H456.581ZM464.587 432.596V432.578C464.587 432.362 464.542 432.179 464.452 432.029C464.362 431.879 464.245 431.753 464.101 431.651C463.963 431.543 463.807 431.453 463.633 431.381C463.459 431.309 463.285 431.246 463.111 431.192C462.973 431.15 462.838 431.108 462.706 431.066C462.58 431.018 462.466 430.97 462.364 430.922C462.268 430.868 462.19 430.811 462.13 430.751C462.07 430.685 462.04 430.61 462.04 430.526V430.508C462.04 430.37 462.097 430.256 462.211 430.166C462.331 430.076 462.496 430.031 462.706 430.031C462.904 430.031 463.12 430.073 463.354 430.157C463.588 430.235 463.819 430.343 464.047 430.481L464.479 429.707C464.227 429.539 463.948 429.407 463.642 429.311C463.336 429.215 463.033 429.167 462.733 429.167C462.499 429.167 462.277 429.2 462.067 429.266C461.863 429.332 461.683 429.428 461.527 429.554C461.377 429.68 461.257 429.833 461.167 430.013C461.083 430.193 461.041 430.394 461.041 430.616V430.634C461.041 430.862 461.086 431.054 461.176 431.21C461.266 431.36 461.38 431.489 461.518 431.597C461.662 431.699 461.821 431.783 461.995 431.849C462.175 431.915 462.352 431.975 462.526 432.029C462.664 432.071 462.796 432.113 462.922 432.155C463.054 432.191 463.168 432.236 463.264 432.29C463.366 432.338 463.444 432.395 463.498 432.461C463.558 432.527 463.588 432.605 463.588 432.695V432.713C463.588 432.869 463.522 432.995 463.39 433.091C463.264 433.181 463.084 433.226 462.85 433.226C462.604 433.226 462.346 433.178 462.076 433.082C461.812 432.98 461.551 432.833 461.293 432.641L460.807 433.379C461.107 433.613 461.431 433.79 461.779 433.91C462.133 434.03 462.481 434.09 462.823 434.09C463.069 434.09 463.3 434.06 463.516 434C463.732 433.934 463.918 433.841 464.074 433.721C464.236 433.595 464.362 433.439 464.452 433.253C464.542 433.067 464.587 432.848 464.587 432.596ZM468.999 432.596V432.578C468.999 432.362 468.954 432.179 468.864 432.029C468.774 431.879 468.657 431.753 468.513 431.651C468.375 431.543 468.219 431.453 468.045 431.381C467.871 431.309 467.697 431.246 467.523 431.192C467.385 431.15 467.25 431.108 467.118 431.066C466.992 431.018 466.878 430.97 466.776 430.922C466.68 430.868 466.602 430.811 466.542 430.751C466.482 430.685 466.452 430.61 466.452 430.526V430.508C466.452 430.37 466.509 430.256 466.623 430.166C466.743 430.076 466.908 430.031 467.118 430.031C467.316 430.031 467.532 430.073 467.766 430.157C468 430.235 468.231 430.343 468.459 430.481L468.891 429.707C468.639 429.539 468.36 429.407 468.054 429.311C467.748 429.215 467.445 429.167 467.145 429.167C466.911 429.167 466.689 429.2 466.479 429.266C466.275 429.332 466.095 429.428 465.939 429.554C465.789 429.68 465.669 429.833 465.579 430.013C465.495 430.193 465.453 430.394 465.453 430.616V430.634C465.453 430.862 465.498 431.054 465.588 431.21C465.678 431.36 465.792 431.489 465.93 431.597C466.074 431.699 466.233 431.783 466.407 431.849C466.587 431.915 466.764 431.975 466.938 432.029C467.076 432.071 467.208 432.113 467.334 432.155C467.466 432.191 467.58 432.236 467.676 432.29C467.778 432.338 467.856 432.395 467.91 432.461C467.97 432.527 468 432.605 468 432.695V432.713C468 432.869 467.934 432.995 467.802 433.091C467.676 433.181 467.496 433.226 467.262 433.226C467.016 433.226 466.758 433.178 466.488 433.082C466.224 432.98 465.963 432.833 465.705 432.641L465.219 433.379C465.519 433.613 465.843 433.79 466.191 433.91C466.545 434.03 466.893 434.09 467.235 434.09C467.481 434.09 467.712 434.06 467.928 434C468.144 433.934 468.33 433.841 468.486 433.721C468.648 433.595 468.774 433.439 468.864 433.253C468.954 433.067 468.999 432.848 468.999 432.596ZM474.118 430.184H475.396V429.248H474.118V427.943H473.029V429.248H472.426V430.184H473.029V432.686C473.029 432.95 473.062 433.172 473.128 433.352C473.194 433.526 473.287 433.667 473.407 433.775C473.533 433.883 473.68 433.961 473.848 434.009C474.016 434.057 474.199 434.081 474.397 434.081C474.601 434.081 474.781 434.06 474.937 434.018C475.093 433.976 475.24 433.916 475.378 433.838V432.947C475.162 433.055 474.937 433.109 474.703 433.109C474.517 433.109 474.373 433.064 474.271 432.974C474.169 432.878 474.118 432.725 474.118 432.515V430.184ZM477.585 431.318C477.585 430.946 477.684 430.658 477.882 430.454C478.08 430.244 478.338 430.139 478.656 430.139C478.98 430.139 479.229 430.241 479.403 430.445C479.583 430.643 479.673 430.928 479.673 431.3V434H480.762V430.976C480.762 430.418 480.615 429.974 480.321 429.644C480.027 429.314 479.61 429.149 479.07 429.149C478.884 429.149 478.716 429.173 478.566 429.221C478.422 429.263 478.287 429.323 478.161 429.401C478.041 429.479 477.933 429.569 477.837 429.671C477.747 429.767 477.663 429.872 477.585 429.986V427.43H476.496V434H477.585V431.318ZM486.064 434V431.183C486.064 430.547 485.893 430.055 485.551 429.707C485.209 429.353 484.684 429.176 483.976 429.176C483.586 429.176 483.253 429.212 482.977 429.284C482.701 429.356 482.431 429.452 482.167 429.572L482.464 430.445C482.68 430.355 482.893 430.283 483.103 430.229C483.313 430.175 483.553 430.148 483.823 430.148C484.201 430.148 484.489 430.235 484.687 430.409C484.891 430.583 484.993 430.835 484.993 431.165V431.282C484.807 431.222 484.612 431.174 484.408 431.138C484.21 431.102 483.967 431.084 483.679 431.084C483.403 431.084 483.145 431.117 482.905 431.183C482.671 431.243 482.467 431.336 482.293 431.462C482.125 431.588 481.993 431.747 481.897 431.939C481.801 432.131 481.753 432.356 481.753 432.614V432.632C481.753 432.872 481.798 433.085 481.888 433.271C481.984 433.451 482.107 433.604 482.257 433.73C482.413 433.85 482.593 433.94 482.797 434C483.001 434.066 483.217 434.099 483.445 434.099C483.805 434.099 484.111 434.033 484.363 433.901C484.615 433.769 484.822 433.607 484.984 433.415V434H486.064ZM485.011 432.281C485.011 432.431 484.978 432.569 484.912 432.695C484.852 432.815 484.765 432.92 484.651 433.01C484.537 433.094 484.402 433.16 484.246 433.208C484.096 433.256 483.931 433.28 483.751 433.28C483.493 433.28 483.274 433.22 483.094 433.1C482.92 432.98 482.833 432.806 482.833 432.578V432.56C482.833 432.314 482.929 432.125 483.121 431.993C483.313 431.861 483.58 431.795 483.922 431.795C484.132 431.795 484.33 431.813 484.516 431.849C484.708 431.885 484.873 431.93 485.011 431.984V432.281ZM488.448 431.318C488.448 430.946 488.547 430.658 488.745 430.454C488.943 430.244 489.201 430.139 489.519 430.139C489.843 430.139 490.092 430.241 490.266 430.445C490.446 430.643 490.536 430.928 490.536 431.3V434H491.625V430.976C491.625 430.418 491.478 429.974 491.184 429.644C490.89 429.314 490.473 429.149 489.933 429.149C489.747 429.149 489.579 429.173 489.429 429.221C489.285 429.263 489.15 429.323 489.024 429.401C488.904 429.479 488.796 429.569 488.7 429.671C488.61 429.767 488.526 429.872 488.448 429.986V429.248H487.359V434H488.448V431.318ZM496.79 434V427.43H495.701V434H496.79ZM502.2 434V431.183C502.2 430.547 502.029 430.055 501.687 429.707C501.345 429.353 500.82 429.176 500.112 429.176C499.722 429.176 499.389 429.212 499.113 429.284C498.837 429.356 498.567 429.452 498.303 429.572L498.6 430.445C498.816 430.355 499.029 430.283 499.239 430.229C499.449 430.175 499.689 430.148 499.959 430.148C500.337 430.148 500.625 430.235 500.823 430.409C501.027 430.583 501.129 430.835 501.129 431.165V431.282C500.943 431.222 500.748 431.174 500.544 431.138C500.346 431.102 500.103 431.084 499.815 431.084C499.539 431.084 499.281 431.117 499.041 431.183C498.807 431.243 498.603 431.336 498.429 431.462C498.261 431.588 498.129 431.747 498.033 431.939C497.937 432.131 497.889 432.356 497.889 432.614V432.632C497.889 432.872 497.934 433.085 498.024 433.271C498.12 433.451 498.243 433.604 498.393 433.73C498.549 433.85 498.729 433.94 498.933 434C499.137 434.066 499.353 434.099 499.581 434.099C499.941 434.099 500.247 434.033 500.499 433.901C500.751 433.769 500.958 433.607 501.12 433.415V434H502.2ZM501.147 432.281C501.147 432.431 501.114 432.569 501.048 432.695C500.988 432.815 500.901 432.92 500.787 433.01C500.673 433.094 500.538 433.16 500.382 433.208C500.232 433.256 500.067 433.28 499.887 433.28C499.629 433.28 499.41 433.22 499.23 433.1C499.056 432.98 498.969 432.806 498.969 432.578V432.56C498.969 432.314 499.065 432.125 499.257 431.993C499.449 431.861 499.716 431.795 500.058 431.795C500.268 431.795 500.466 431.813 500.652 431.849C500.844 431.885 501.009 431.93 501.147 431.984V432.281ZM506.889 432.596V432.578C506.889 432.362 506.844 432.179 506.754 432.029C506.664 431.879 506.547 431.753 506.403 431.651C506.265 431.543 506.109 431.453 505.935 431.381C505.761 431.309 505.587 431.246 505.413 431.192C505.275 431.15 505.14 431.108 505.008 431.066C504.882 431.018 504.768 430.97 504.666 430.922C504.57 430.868 504.492 430.811 504.432 430.751C504.372 430.685 504.342 430.61 504.342 430.526V430.508C504.342 430.37 504.399 430.256 504.513 430.166C504.633 430.076 504.798 430.031 505.008 430.031C505.206 430.031 505.422 430.073 505.656 430.157C505.89 430.235 506.121 430.343 506.349 430.481L506.781 429.707C506.529 429.539 506.25 429.407 505.944 429.311C505.638 429.215 505.335 429.167 505.035 429.167C504.801 429.167 504.579 429.2 504.369 429.266C504.165 429.332 503.985 429.428 503.829 429.554C503.679 429.68 503.559 429.833 503.469 430.013C503.385 430.193 503.343 430.394 503.343 430.616V430.634C503.343 430.862 503.388 431.054 503.478 431.21C503.568 431.36 503.682 431.489 503.82 431.597C503.964 431.699 504.123 431.783 504.297 431.849C504.477 431.915 504.654 431.975 504.828 432.029C504.966 432.071 505.098 432.113 505.224 432.155C505.356 432.191 505.47 432.236 505.566 432.29C505.668 432.338 505.746 432.395 505.8 432.461C505.86 432.527 505.89 432.605 505.89 432.695V432.713C505.89 432.869 505.824 432.995 505.692 433.091C505.566 433.181 505.386 433.226 505.152 433.226C504.906 433.226 504.648 433.178 504.378 433.082C504.114 432.98 503.853 432.833 503.595 432.641L503.109 433.379C503.409 433.613 503.733 433.79 504.081 433.91C504.435 434.03 504.783 434.09 505.125 434.09C505.371 434.09 505.602 434.06 505.818 434C506.034 433.934 506.22 433.841 506.376 433.721C506.538 433.595 506.664 433.439 506.754 433.253C506.844 433.067 506.889 432.848 506.889 432.596ZM509.222 430.184H510.5V429.248H509.222V427.943H508.133V429.248H507.53V430.184H508.133V432.686C508.133 432.95 508.166 433.172 508.232 433.352C508.298 433.526 508.391 433.667 508.511 433.775C508.637 433.883 508.784 433.961 508.952 434.009C509.12 434.057 509.303 434.081 509.501 434.081C509.705 434.081 509.885 434.06 510.041 434.018C510.197 433.976 510.344 433.916 510.482 433.838V432.947C510.266 433.055 510.041 433.109 509.807 433.109C509.621 433.109 509.477 433.064 509.375 432.974C509.273 432.878 509.222 432.725 509.222 432.515V430.184ZM518.248 429.986C518.122 429.734 517.939 429.533 517.699 429.383C517.465 429.227 517.177 429.149 516.835 429.149C516.655 429.149 516.49 429.173 516.34 429.221C516.196 429.263 516.064 429.323 515.944 429.401C515.83 429.479 515.728 429.566 515.638 429.662C515.548 429.758 515.464 429.86 515.386 429.968V429.248H514.297V434H515.386V431.327C515.386 430.955 515.479 430.664 515.665 430.454C515.851 430.244 516.097 430.139 516.403 430.139C516.709 430.139 516.946 430.238 517.114 430.436C517.282 430.634 517.366 430.919 517.366 431.291V434H518.455V431.318C518.455 430.934 518.548 430.643 518.734 430.445C518.926 430.241 519.172 430.139 519.472 430.139C519.778 430.139 520.015 430.238 520.183 430.436C520.351 430.634 520.435 430.922 520.435 431.3V434H521.524V430.967C521.524 430.385 521.377 429.938 521.083 429.626C520.789 429.308 520.381 429.149 519.859 429.149C519.499 429.149 519.187 429.227 518.923 429.383C518.665 429.533 518.44 429.734 518.248 429.986ZM527.655 431.624C527.655 431.282 527.592 430.961 527.466 430.661C527.34 430.361 527.163 430.1 526.935 429.878C526.713 429.65 526.446 429.473 526.134 429.347C525.828 429.215 525.492 429.149 525.126 429.149C524.76 429.149 524.421 429.215 524.109 429.347C523.803 429.479 523.536 429.659 523.308 429.887C523.086 430.109 522.909 430.373 522.777 430.679C522.651 430.979 522.588 431.3 522.588 431.642C522.588 431.984 522.651 432.305 522.777 432.605C522.903 432.899 523.077 433.16 523.299 433.388C523.527 433.61 523.794 433.787 524.1 433.919C524.412 434.045 524.748 434.108 525.108 434.108C525.474 434.108 525.813 434.042 526.125 433.91C526.437 433.778 526.704 433.601 526.926 433.379C527.154 433.151 527.331 432.887 527.457 432.587C527.589 432.287 527.655 431.966 527.655 431.624ZM526.566 431.642C526.566 431.852 526.533 432.05 526.467 432.236C526.401 432.416 526.305 432.575 526.179 432.713C526.053 432.851 525.9 432.962 525.72 433.046C525.546 433.124 525.348 433.163 525.126 433.163C524.916 433.163 524.721 433.124 524.541 433.046C524.367 432.962 524.214 432.851 524.082 432.713C523.956 432.575 523.857 432.413 523.785 432.227C523.713 432.035 523.677 431.834 523.677 431.624C523.677 431.414 523.71 431.219 523.776 431.039C523.842 430.853 523.938 430.691 524.064 430.553C524.19 430.415 524.34 430.307 524.514 430.229C524.694 430.145 524.892 430.103 525.108 430.103C525.324 430.103 525.519 430.145 525.693 430.229C525.873 430.307 526.026 430.418 526.152 430.562C526.284 430.7 526.386 430.862 526.458 431.048C526.53 431.234 526.566 431.432 526.566 431.642ZM529.853 431.318C529.853 430.946 529.952 430.658 530.15 430.454C530.348 430.244 530.606 430.139 530.924 430.139C531.248 430.139 531.497 430.241 531.671 430.445C531.851 430.643 531.941 430.928 531.941 431.3V434H533.03V430.976C533.03 430.418 532.883 429.974 532.589 429.644C532.295 429.314 531.878 429.149 531.338 429.149C531.152 429.149 530.984 429.173 530.834 429.221C530.69 429.263 530.555 429.323 530.429 429.401C530.309 429.479 530.201 429.569 530.105 429.671C530.015 429.767 529.931 429.872 529.853 429.986V429.248H528.764V434H529.853V431.318ZM535.659 430.184H536.937V429.248H535.659V427.943H534.57V429.248H533.967V430.184H534.57V432.686C534.57 432.95 534.603 433.172 534.669 433.352C534.735 433.526 534.828 433.667 534.948 433.775C535.074 433.883 535.221 433.961 535.389 434.009C535.557 434.057 535.74 434.081 535.938 434.081C536.142 434.081 536.322 434.06 536.478 434.018C536.634 433.976 536.781 433.916 536.919 433.838V432.947C536.703 433.055 536.478 433.109 536.244 433.109C536.058 433.109 535.914 433.064 535.812 432.974C535.71 432.878 535.659 432.725 535.659 432.515V430.184ZM539.126 431.318C539.126 430.946 539.225 430.658 539.423 430.454C539.621 430.244 539.879 430.139 540.197 430.139C540.521 430.139 540.77 430.241 540.944 430.445C541.124 430.643 541.214 430.928 541.214 431.3V434H542.303V430.976C542.303 430.418 542.156 429.974 541.862 429.644C541.568 429.314 541.151 429.149 540.611 429.149C540.425 429.149 540.257 429.173 540.107 429.221C539.963 429.263 539.828 429.323 539.702 429.401C539.582 429.479 539.474 429.569 539.378 429.671C539.288 429.767 539.204 429.872 539.126 429.986V427.43H538.037V434H539.126V431.318Z" fill="#F6FF82"/>
</g>
<defs>
<filter id="filter0_d_107_92" x="0" y="68" width="487" height="223" filterUnits="userSpaceOnUse" color-interpolation-filters="sRGB">
<feFlood flood-opacity="0" result="BackgroundImageFix"/>
<feColorMatrix in="SourceAlpha" type="matrix" values="0 0 0 0 0 0 0 0 0 0 0 0 0 0 0 0 0 0 127 0" result="hardAlpha"/>
<feOffset dy="1"/>
<feGaussianBlur stdDeviation="17.5"/>
<feComposite in2="hardAlpha" operator="out"/>
<feColorMatrix type="matrix" values="0 0 0 0 0.133333 0 0 0 0 0.133333 0 0 0 0 0.133333 0 0 0 0.3 0"/>
<feBlend mode="normal" in2="BackgroundImageFix" result="effect1_dropShadow_107_92"/>
<feBlend mode="normal" in="SourceGraphic" in2="effect1_dropShadow_107_92" result="shape"/>
</filter>
<filter id="filter1_d_107_92" x="121" y="277" width="487" height="223" filterUnits="userSpaceOnUse" color-interpolation-filters="sRGB">
<feFlood flood-opacity="0" result="BackgroundImageFix"/>
<feColorMatrix in="SourceAlpha" type="matrix" values="0 0 0 0 0 0 0 0 0 0 0 0 0 0 0 0 0 0 127 0" result="hardAlpha"/>
<feOffset dy="4"/>
<feGaussianBlur stdDeviation="17.5"/>
<feComposite in2="hardAlpha" operator="out"/>
<feColorMatrix type="matrix" values="0 0 0 0 0.133333 0 0 0 0 0.133333 0 0 0 0 0.133333 0 0 0 0.3 0"/>
<feBlend mode="normal" in2="BackgroundImageFix" result="effect1_dropShadow_107_92"/>
<feBlend mode="normal" in="SourceGraphic" in2="effect1_dropShadow_107_92" result="shape"/>
</filter>
</defs>
</svg>
