<svg width="23" height="18" viewBox="0 0 23 18" fill="none" xmlns="http://www.w3.org/2000/svg">
<path fill-rule="evenodd" clip-rule="evenodd" d="M14.3848 0.0809499C14.8932 -0.00613239 15.4625 -0.0352084 15.9983 0.055434C16.9551 0.217317 17.839 0.662045 18.5376 1.3288C18.9943 1.33913 19.4431 1.24916 19.8403 1.1209C20.1764 1.01235 20.4603 0.881276 20.6593 0.777639C20.7582 0.726108 20.8346 0.682149 20.8843 0.65239C20.9091 0.637533 20.9271 0.626289 20.9378 0.619498L20.9473 0.613436C21.2441 0.415708 21.6394 0.454192 21.8922 0.705698C22.1452 0.957262 22.1859 1.35218 21.9897 1.65009C21.7819 1.96538 21.4936 2.52745 21.1705 3.15721C21.1197 3.25623 21.0681 3.35692 21.0157 3.45859C20.8305 3.81855 20.6405 4.18237 20.4634 4.4945C20.3522 4.69049 20.2333 4.88946 20.1134 5.0614V5.33518C20.121 6.34081 20.0056 7.34119 19.7716 8.31441C19.6243 8.92675 19.43 9.52835 19.1898 10.1137C18.5673 11.6304 17.6489 13.0078 16.4882 14.1656C15.3275 15.3233 13.9477 16.2382 12.4294 16.8567C10.9125 17.4747 9.28778 17.7845 7.64994 17.7681C5.27562 17.7701 2.95126 17.0861 0.956536 15.7982C0.662735 15.6085 0.539036 15.2409 0.658373 14.9121C0.777709 14.5834 1.1084 14.3808 1.45547 14.4238C1.75584 14.4609 2.05825 14.4791 2.3609 14.4781C3.44835 14.475 4.51509 14.2348 5.48895 13.7821C5.1794 13.6412 4.88386 13.4675 4.60771 13.2627C3.79599 12.6608 3.19208 11.8208 2.88002 10.8597C2.79892 10.6099 2.85436 10.3359 3.02617 10.1374C3.02925 10.1338 3.03236 10.1303 3.03549 10.1268C2.85197 9.96315 2.68024 9.78496 2.52214 9.59333C1.81082 8.73112 1.41915 7.64969 1.41337 6.53195L1.41335 6.52807L1.41336 6.47807C1.41336 6.21221 1.55411 5.96621 1.78331 5.83149C1.84141 5.79734 1.903 5.77164 1.96635 5.7544C1.62801 5.07931 1.45207 4.33387 1.45336 3.57761C1.45296 2.72084 1.67675 1.87888 2.10252 1.13537C2.22543 0.920738 2.44625 0.7805 2.69278 0.760524C2.93931 0.740548 3.17984 0.843402 3.3357 1.03545C4.29826 2.22146 5.49954 3.19172 6.86153 3.88319C7.56167 4.23864 8.29622 4.51634 9.05202 4.71277C9.47575 4.8229 9.90616 4.90749 10.3409 4.96591C10.3218 4.24266 10.4646 3.51979 10.7643 2.85186C11.204 1.87203 11.9565 1.06585 12.9037 0.559761C13.3049 0.345432 13.8374 0.174721 14.3848 0.0809499ZM3.10663 7.62844C3.23628 7.99333 3.42915 8.33565 3.6792 8.63875C4.17052 9.23429 4.85247 9.64185 5.60969 9.79249C5.94697 9.85958 6.19541 10.1475 6.21244 10.4909C6.22946 10.8344 6.01071 11.1455 5.68171 11.2456C5.40922 11.3285 5.13004 11.3863 4.84769 11.4184C5.03427 11.6589 5.25375 11.8743 5.50115 12.0578C6.06234 12.4739 6.73928 12.7048 7.43779 12.7182C7.75471 12.7243 8.03358 12.929 8.1344 13.2295C8.23523 13.53 8.13625 13.8615 7.88714 14.0575C6.83797 14.883 5.62477 15.4587 4.33922 15.7526C5.40471 16.0938 6.52215 16.2695 7.65244 16.2681L7.66115 16.2681C9.1012 16.283 10.5298 16.0109 11.8635 15.4676C13.1972 14.9242 14.4093 14.1206 15.4289 13.1036C16.4485 12.0865 17.2553 10.8765 17.8021 9.54423C18.0131 9.03001 18.1838 8.50155 18.3131 7.96364C18.519 7.10787 18.6203 6.2282 18.6134 5.34394L18.6134 5.33807V4.80807C18.6134 4.62622 18.6794 4.45056 18.7993 4.31379C18.8685 4.23475 18.9897 4.05219 19.1587 3.75429C19.3194 3.47116 19.4972 3.13126 19.6821 2.77208C19.6933 2.75035 19.7045 2.72852 19.7158 2.70658C19.2362 2.81073 18.6926 2.86531 18.1228 2.80373C17.9423 2.78423 17.775 2.69994 17.652 2.5665C17.1491 2.02116 16.4795 1.65816 15.7481 1.53442C15.4235 1.47951 15.0312 1.49208 14.6381 1.55942C14.211 1.63258 13.8392 1.76059 13.6106 1.88277C12.9563 2.23234 12.4366 2.78918 12.1329 3.46597C11.8292 4.14275 11.7587 4.9012 11.9325 5.62236C11.9879 5.85227 11.9316 6.09485 11.7806 6.27688C11.6297 6.45891 11.4017 6.55906 11.1655 6.54712C10.322 6.50446 9.48757 6.37581 8.6747 6.16454C7.8148 5.94105 6.97907 5.6251 6.18249 5.22069C5.00971 4.62527 3.94166 3.84818 3.01682 2.92049C2.97463 3.1361 2.95321 3.35613 2.95336 3.57758L2.95336 3.5795C2.95231 4.13022 3.08746 4.67265 3.34677 5.1585C3.60608 5.64435 3.9815 6.05854 4.43961 6.36419C4.71764 6.54969 4.83937 6.89677 4.73811 7.21529C4.63686 7.53381 4.33706 7.74689 4.00296 7.7378C3.70036 7.72956 3.4003 7.69276 3.10663 7.62844Z" fill="#F6FF82"/>
</svg>
