<svg width="46" height="50" viewBox="0 0 46 50" fill="none" xmlns="http://www.w3.org/2000/svg">
<path fill-rule="evenodd" clip-rule="evenodd" d="M10.2288 12.4186C10.2288 5.55998 15.7897 0 22.6494 0C29.5092 0 35.0701 5.55998 35.0701 12.4186C35.0701 19.2772 29.5092 24.8371 22.6494 24.8371C15.7897 24.8371 10.2288 19.2772 10.2288 12.4186ZM22.6494 4.38302C18.2108 4.38302 14.6125 7.98066 14.6125 12.4186C14.6125 16.8565 18.2108 20.4541 22.6494 20.4541C27.0881 20.4541 30.6863 16.8565 30.6863 12.4186C30.6863 7.98066 27.0881 4.38302 22.6494 4.38302Z" fill="black"/>
<path fill-rule="evenodd" clip-rule="evenodd" d="M10.9594 33.6032C7.32778 33.6032 4.38376 36.5467 4.38376 40.1777V43.6499C4.38376 43.7028 4.42209 43.7479 4.47427 43.7564C16.5114 45.7213 28.7875 45.7213 40.8246 43.7564C40.8768 43.7479 40.9151 43.7028 40.9151 43.6499V40.1777C40.9151 36.5467 37.9711 33.6032 34.3395 33.6032H33.3433C33.2663 33.6032 33.1897 33.6154 33.1165 33.6393L30.587 34.4651C25.4293 36.149 19.8696 36.149 14.7119 34.4651L12.1824 33.6393C12.1092 33.6154 12.0326 33.6032 11.9556 33.6032H10.9594ZM0 40.1777C0 34.126 4.90669 29.2202 10.9594 29.2202H11.9556C12.4948 29.2202 13.0306 29.3054 13.5431 29.4727L16.0726 30.2986C20.3461 31.6938 24.9528 31.6938 29.2263 30.2986L31.7558 29.4727C32.2683 29.3054 32.8041 29.2202 33.3433 29.2202H34.3395C40.3922 29.2202 45.2989 34.126 45.2989 40.1777V43.6499C45.2989 45.8509 43.7035 47.7275 41.531 48.0821C29.0261 50.1234 16.2728 50.1234 3.76791 48.0821C1.59535 47.7275 0 45.8509 0 43.6499V40.1777Z" fill="black"/>
</svg>
