<svg width="22" height="16" viewBox="0 0 22 16" fill="none" xmlns="http://www.w3.org/2000/svg">
<path fill-rule="evenodd" clip-rule="evenodd" d="M9.63502 3.91209C9.40332 3.77307 9.11475 3.76943 8.87962 3.90256C8.64449 4.03569 8.49915 4.285 8.49915 4.55521V10.5552C8.49915 10.8254 8.64449 11.0747 8.87962 11.2079C9.11475 11.341 9.40332 11.3373 9.63502 11.1983L14.635 8.19833C14.8609 8.06278 14.9991 7.81865 14.9991 7.55521C14.9991 7.29176 14.8609 7.04763 14.635 6.91209L9.63502 3.91209ZM12.7914 7.55521L9.99915 9.23056V5.87985L12.7914 7.55521Z" fill="#F6FF82"/>
<path fill-rule="evenodd" clip-rule="evenodd" d="M16.2798 0.196487C12.9312 -0.0654956 9.56718 -0.0654958 6.21853 0.196487L3.97783 0.371789C2.61526 0.47839 1.50058 1.49959 1.27534 2.84764C0.754575 5.96441 0.754575 9.146 1.27534 12.2628C1.50058 13.6108 2.61526 14.632 3.97783 14.7386L6.21853 14.9139C9.56718 15.1759 12.9312 15.1759 16.2798 14.9139L18.5205 14.7386C19.8831 14.632 20.9978 13.6108 21.223 12.2628C21.7438 9.146 21.7438 5.96441 21.223 2.84764C20.9978 1.49959 19.8831 0.47839 18.5205 0.371789L16.2798 0.196487ZM6.33552 1.69192C9.6063 1.43603 12.8921 1.43603 16.1628 1.69192L18.4035 1.86722C19.0791 1.92008 19.6318 2.42643 19.7435 3.09484C20.2369 6.04795 20.2369 9.06246 19.7435 12.0156C19.6318 12.684 19.0791 13.1903 18.4035 13.2432L16.1628 13.4185C12.8921 13.6744 9.60629 13.6744 6.33552 13.4185L4.09482 13.2432C3.41921 13.1903 2.86651 12.684 2.75483 12.0156C2.26141 9.06246 2.26141 6.04795 2.75483 3.09484C2.86651 2.42643 3.41921 1.92008 4.09482 1.86722L6.33552 1.69192Z" fill="#F6FF82"/>
</svg>
